%TF.GenerationSoftware,KiCad,Pcbnew,10.0.3*%
%TF.CreationDate,2026-06-11T15:14:47-04:00*%
%TF.ProjectId,magnetic-chess-board,6d61676e-6574-4696-932d-63686573732d,rev?*%
%TF.SameCoordinates,Original*%
%TF.FileFunction,Paste,Top*%
%TF.FilePolarity,Positive*%
%FSLAX46Y46*%
G04 Gerber Fmt 4.6, Leading zero omitted, Abs format (unit mm)*
G04 Created by KiCad (PCBNEW 10.0.3) date 2026-06-11 15:14:47*
%MOMM*%
%LPD*%
G01*
G04 APERTURE LIST*
G04 Aperture macros list*
%AMRoundRect*
0 Rectangle with rounded corners*
0 $1 Rounding radius*
0 $2 $3 $4 $5 $6 $7 $8 $9 X,Y pos of 4 corners*
0 Add a 4 corners polygon primitive as box body*
4,1,4,$2,$3,$4,$5,$6,$7,$8,$9,$2,$3,0*
0 Add four circle primitives for the rounded corners*
1,1,$1+$1,$2,$3*
1,1,$1+$1,$4,$5*
1,1,$1+$1,$6,$7*
1,1,$1+$1,$8,$9*
0 Add four rect primitives between the rounded corners*
20,1,$1+$1,$2,$3,$4,$5,0*
20,1,$1+$1,$4,$5,$6,$7,0*
20,1,$1+$1,$6,$7,$8,$9,0*
20,1,$1+$1,$8,$9,$2,$3,0*%
G04 Aperture macros list end*
%ADD10R,3.800000X2.200000*%
%ADD11O,1.100000X1.800000*%
%ADD12O,1.050000X1.450000*%
%ADD13RoundRect,0.200000X-0.587400X-0.587400X0.587400X-0.587400X0.587400X0.587400X-0.587400X0.587400X0*%
%ADD14C,1.574800*%
%ADD15RoundRect,0.300000X-0.450000X-0.450000X0.450000X-0.450000X0.450000X0.450000X-0.450000X0.450000X0*%
G04 APERTURE END LIST*
D10*
%TO.C,A1*%
X274997500Y-58842500D03*
X274997500Y-61382500D03*
X274997500Y-63922500D03*
X274997500Y-66462500D03*
X274997500Y-69002500D03*
X274997500Y-71542500D03*
X274997500Y-74082500D03*
X274997500Y-76622500D03*
X274997500Y-79162500D03*
X274997500Y-81702500D03*
X274997500Y-84242500D03*
X274997500Y-86782500D03*
X274997500Y-89322500D03*
X274997500Y-91862500D03*
X274997500Y-94402500D03*
X274997500Y-96942500D03*
X274997500Y-99482500D03*
X274997500Y-102022500D03*
X274997500Y-104562500D03*
X274997500Y-107102500D03*
D11*
X281962500Y-58972500D03*
D12*
X282262500Y-62002500D03*
X287112500Y-62002500D03*
D11*
X287412500Y-58972500D03*
D10*
X294377500Y-58842500D03*
X294377500Y-61382500D03*
X294377500Y-63922500D03*
X294377500Y-66462500D03*
X294377500Y-69002500D03*
X294377500Y-71542500D03*
X294377500Y-74082500D03*
X294377500Y-76622500D03*
X294377500Y-79162500D03*
X294377500Y-81702500D03*
X294377500Y-84242500D03*
X294377500Y-86782500D03*
X294377500Y-89322500D03*
X294377500Y-91862500D03*
X294377500Y-94402500D03*
X294377500Y-96942500D03*
X294377500Y-99482500D03*
X294377500Y-102022500D03*
X294377500Y-104562500D03*
X294377500Y-107102500D03*
D13*
X285271600Y-88672500D03*
D14*
X287811600Y-88672500D03*
X290351600Y-88672500D03*
D15*
X284687500Y-61972500D03*
X285687500Y-58672500D03*
X283687500Y-58672500D03*
X282187500Y-66972500D03*
X282187500Y-69472500D03*
X282187500Y-71972500D03*
%TD*%
M02*
