%TF.GenerationSoftware,KiCad,Pcbnew,10.0.3*%
%TF.CreationDate,2026-06-11T15:14:47-04:00*%
%TF.ProjectId,magnetic-chess-board,6d61676e-6574-4696-932d-63686573732d,rev?*%
%TF.SameCoordinates,Original*%
%TF.FileFunction,Soldermask,Top*%
%TF.FilePolarity,Negative*%
%FSLAX46Y46*%
G04 Gerber Fmt 4.6, Leading zero omitted, Abs format (unit mm)*
G04 Created by KiCad (PCBNEW 10.0.3) date 2026-06-11 15:14:47*
%MOMM*%
%LPD*%
G01*
G04 APERTURE LIST*
G04 Aperture macros list*
%AMRoundRect*
0 Rectangle with rounded corners*
0 $1 Rounding radius*
0 $2 $3 $4 $5 $6 $7 $8 $9 X,Y pos of 4 corners*
0 Add a 4 corners polygon primitive as box body*
4,1,4,$2,$3,$4,$5,$6,$7,$8,$9,$2,$3,0*
0 Add four circle primitives for the rounded corners*
1,1,$1+$1,$2,$3*
1,1,$1+$1,$4,$5*
1,1,$1+$1,$6,$7*
1,1,$1+$1,$8,$9*
0 Add four rect primitives between the rounded corners*
20,1,$1+$1,$2,$3,$4,$5,0*
20,1,$1+$1,$4,$5,$6,$7,0*
20,1,$1+$1,$6,$7,$8,$9,0*
20,1,$1+$1,$8,$9,$2,$3,0*%
%AMFreePoly0*
4,1,37,0.800000,0.796148,0.878414,0.796148,1.032228,0.765552,1.177117,0.705537,1.307515,0.618408,1.418408,0.507515,1.505537,0.377117,1.565552,0.232228,1.596148,0.078414,1.596148,-0.078414,1.565552,-0.232228,1.505537,-0.377117,1.418408,-0.507515,1.307515,-0.618408,1.177117,-0.705537,1.032228,-0.765552,0.878414,-0.796148,0.800000,-0.796148,0.800000,-0.800000,-1.400000,-0.800000,
-1.403843,-0.796157,-1.439018,-0.796157,-1.511114,-0.766294,-1.566294,-0.711114,-1.596157,-0.639018,-1.596157,-0.603843,-1.600000,-0.600000,-1.600000,0.600000,-1.596157,0.603843,-1.596157,0.639018,-1.566294,0.711114,-1.511114,0.766294,-1.439018,0.796157,-1.403843,0.796157,-1.400000,0.800000,0.800000,0.800000,0.800000,0.796148,0.800000,0.796148,$1*%
%AMFreePoly1*
4,1,37,1.403843,0.796157,1.439018,0.796157,1.511114,0.766294,1.566294,0.711114,1.596157,0.639018,1.596157,0.603843,1.600000,0.600000,1.600000,-0.600000,1.596157,-0.603843,1.596157,-0.639018,1.566294,-0.711114,1.511114,-0.766294,1.439018,-0.796157,1.403843,-0.796157,1.400000,-0.800000,-0.800000,-0.800000,-0.800000,-0.796148,-0.878414,-0.796148,-1.032228,-0.765552,-1.177117,-0.705537,
-1.307515,-0.618408,-1.418408,-0.507515,-1.505537,-0.377117,-1.565552,-0.232228,-1.596148,-0.078414,-1.596148,0.078414,-1.565552,0.232228,-1.505537,0.377117,-1.418408,0.507515,-1.307515,0.618408,-1.177117,0.705537,-1.032228,0.765552,-0.878414,0.796148,-0.800000,0.796148,-0.800000,0.800000,1.400000,0.800000,1.403843,0.796157,1.403843,0.796157,$1*%
G04 Aperture macros list end*
%ADD10RoundRect,0.250000X-0.550000X-0.550000X0.550000X-0.550000X0.550000X0.550000X-0.550000X0.550000X0*%
%ADD11C,1.600000*%
%ADD12C,1.524000*%
%ADD13C,3.200000*%
%ADD14C,2.404000*%
%ADD15RoundRect,0.102000X-0.754000X-0.754000X0.754000X-0.754000X0.754000X0.754000X-0.754000X0.754000X0*%
%ADD16C,1.712000*%
%ADD17C,1.900000*%
%ADD18C,3.050000*%
%ADD19C,3.450000*%
%ADD20O,1.100000X1.800000*%
%ADD21O,1.050000X1.450000*%
%ADD22FreePoly0,0.000000*%
%ADD23RoundRect,0.800000X-0.800000X-0.000010X0.800000X-0.000010X0.800000X0.000010X-0.800000X0.000010X0*%
%ADD24FreePoly1,0.000000*%
%ADD25RoundRect,0.200000X-0.587400X-0.587400X0.587400X-0.587400X0.587400X0.587400X-0.587400X0.587400X0*%
%ADD26C,1.574800*%
%ADD27RoundRect,0.300000X-0.450000X-0.450000X0.450000X-0.450000X0.450000X0.450000X-0.450000X0.450000X0*%
G04 APERTURE END LIST*
D10*
%TO.C,D41*%
X205967500Y-85477500D03*
D11*
X213587500Y-85477500D03*
%TD*%
D10*
%TO.C,D32*%
X171677500Y-205492500D03*
D11*
X179297500Y-205492500D03*
%TD*%
D12*
%TO.C,SW34*%
X189381996Y-114053004D03*
X203213004Y-100221996D03*
%TD*%
%TO.C,SW29*%
X172236996Y-165488004D03*
X186068004Y-151656996D03*
%TD*%
D10*
%TO.C,D18*%
X154532500Y-102622500D03*
D11*
X162152500Y-102622500D03*
%TD*%
D10*
%TO.C,D31*%
X171677500Y-188347500D03*
D11*
X179297500Y-188347500D03*
%TD*%
D10*
%TO.C,D48*%
X205967500Y-205492500D03*
D11*
X213587500Y-205492500D03*
%TD*%
D12*
%TO.C,SW1*%
X120801996Y-96940000D03*
X134633004Y-83108992D03*
%TD*%
%TO.C,SW45*%
X206526996Y-165488004D03*
X220358004Y-151656996D03*
%TD*%
D10*
%TO.C,D50*%
X223112500Y-102622500D03*
D11*
X230732500Y-102622500D03*
%TD*%
D10*
%TO.C,D58*%
X240257500Y-102622500D03*
D11*
X247877500Y-102622500D03*
%TD*%
D12*
%TO.C,SW17*%
X155091996Y-96908004D03*
X168923004Y-83076996D03*
%TD*%
%TO.C,SW51*%
X223671996Y-131198004D03*
X237503004Y-117366996D03*
%TD*%
D10*
%TO.C,D8*%
X120242500Y-205492500D03*
D11*
X127862500Y-205492500D03*
%TD*%
D10*
%TO.C,D23*%
X154532500Y-188347500D03*
D11*
X162152500Y-188347500D03*
%TD*%
D10*
%TO.C,D52*%
X223112500Y-136912500D03*
D11*
X230732500Y-136912500D03*
%TD*%
D12*
%TO.C,SW61*%
X240816996Y-165488004D03*
X254648004Y-151656996D03*
%TD*%
D10*
%TO.C,D55*%
X223112500Y-188347500D03*
D11*
X230732500Y-188347500D03*
%TD*%
D10*
%TO.C,D56*%
X223112500Y-205492500D03*
D11*
X230732500Y-205492500D03*
%TD*%
D13*
%TO.C,REF\u002A\u002A*%
X303562500Y-233980500D03*
%TD*%
D10*
%TO.C,D57*%
X240257500Y-85477500D03*
D11*
X247877500Y-85477500D03*
%TD*%
D12*
%TO.C,SW15*%
X137946996Y-199778004D03*
X151778004Y-185946996D03*
%TD*%
D10*
%TO.C,D43*%
X205967500Y-119767500D03*
D11*
X213587500Y-119767500D03*
%TD*%
D10*
%TO.C,D42*%
X205967500Y-102622500D03*
D11*
X213587500Y-102622500D03*
%TD*%
D10*
%TO.C,D54*%
X223112500Y-171202500D03*
D11*
X230732500Y-171202500D03*
%TD*%
D10*
%TO.C,D34*%
X188822500Y-102622500D03*
D11*
X196442500Y-102622500D03*
%TD*%
D12*
%TO.C,SW43*%
X206526996Y-131198004D03*
X220358004Y-117366996D03*
%TD*%
D14*
%TO.C,J1*%
X295136950Y-153912500D03*
X295136950Y-130912500D03*
X274132500Y-153912500D03*
X274132500Y-130912500D03*
D15*
X280822500Y-130412500D03*
D16*
X283362500Y-130412500D03*
X285902500Y-130412500D03*
X288442500Y-130412500D03*
%TD*%
D10*
%TO.C,D53*%
X223112500Y-154057500D03*
D11*
X230732500Y-154057500D03*
%TD*%
D10*
%TO.C,D49*%
X223112500Y-85477500D03*
D11*
X230732500Y-85477500D03*
%TD*%
D10*
%TO.C,D63*%
X240257500Y-188347500D03*
D11*
X247877500Y-188347500D03*
%TD*%
D10*
%TO.C,D38*%
X188822500Y-171202500D03*
D11*
X196442500Y-171202500D03*
%TD*%
D12*
%TO.C,SW49*%
X223671996Y-96908004D03*
X237503004Y-83076996D03*
%TD*%
D10*
%TO.C,D16*%
X137387500Y-205492500D03*
D11*
X145007500Y-205492500D03*
%TD*%
D10*
%TO.C,D62*%
X240257500Y-171202500D03*
D11*
X247877500Y-171202500D03*
%TD*%
D12*
%TO.C,SW39*%
X189381996Y-199778004D03*
X203213004Y-185946996D03*
%TD*%
%TO.C,SW38*%
X189381996Y-182633004D03*
X203213004Y-168801996D03*
%TD*%
%TO.C,SW53*%
X223671996Y-165488004D03*
X237503004Y-151656996D03*
%TD*%
D17*
%TO.C,S2*%
X289712500Y-166122500D03*
D18*
X295212500Y-160222500D03*
D19*
X295212500Y-166122500D03*
D18*
X300212500Y-162322500D03*
D17*
X300712500Y-166122500D03*
%TD*%
D12*
%TO.C,SW57*%
X240816996Y-96908004D03*
X254648004Y-83076996D03*
%TD*%
%TO.C,SW5*%
X120801996Y-165488004D03*
X134633004Y-151656996D03*
%TD*%
%TO.C,SW54*%
X223671996Y-182633004D03*
X237503004Y-168801996D03*
%TD*%
D10*
%TO.C,D64*%
X240257500Y-205492500D03*
D11*
X247877500Y-205492500D03*
%TD*%
D12*
%TO.C,SW16*%
X137946996Y-216923004D03*
X151778004Y-203091996D03*
%TD*%
%TO.C,SW23*%
X155091996Y-199778004D03*
X168923004Y-185946996D03*
%TD*%
D10*
%TO.C,D10*%
X137387500Y-102622500D03*
D11*
X145007500Y-102622500D03*
%TD*%
D10*
%TO.C,D60*%
X240257500Y-136912500D03*
D11*
X247877500Y-136912500D03*
%TD*%
D12*
%TO.C,SW11*%
X138028314Y-131279321D03*
X151859322Y-117448313D03*
%TD*%
%TO.C,SW18*%
X155091996Y-114053004D03*
X168923004Y-100221996D03*
%TD*%
D10*
%TO.C,D9*%
X137387500Y-85477500D03*
D11*
X145007500Y-85477500D03*
%TD*%
D10*
%TO.C,D35*%
X188822500Y-119767500D03*
D11*
X196442500Y-119767500D03*
%TD*%
D12*
%TO.C,SW63*%
X240816996Y-199778004D03*
X254648004Y-185946996D03*
%TD*%
%TO.C,SW6*%
X120801996Y-182633004D03*
X134633004Y-168801996D03*
%TD*%
D10*
%TO.C,D27*%
X171677500Y-119767500D03*
D11*
X179297500Y-119767500D03*
%TD*%
D10*
%TO.C,D39*%
X188822500Y-188347500D03*
D11*
X196442500Y-188347500D03*
%TD*%
D12*
%TO.C,SW32*%
X172236996Y-216923004D03*
X186068004Y-203091996D03*
%TD*%
%TO.C,SW48*%
X206526996Y-216923004D03*
X220358004Y-203091996D03*
%TD*%
%TO.C,SW37*%
X189381996Y-165488004D03*
X203213004Y-151656996D03*
%TD*%
%TO.C,SW12*%
X137946996Y-148343004D03*
X151778004Y-134511996D03*
%TD*%
%TO.C,SW55*%
X223671996Y-199778004D03*
X237503004Y-185946996D03*
%TD*%
D13*
%TO.C,REF\u002A\u002A*%
X116462500Y-66022500D03*
%TD*%
D12*
%TO.C,SW24*%
X155091996Y-216923004D03*
X168923004Y-203091996D03*
%TD*%
%TO.C,SW50*%
X223671996Y-114053004D03*
X237503004Y-100221996D03*
%TD*%
D13*
%TO.C,REF\u002A\u002A*%
X116462500Y-233980500D03*
%TD*%
D12*
%TO.C,SW33*%
X189381996Y-96908004D03*
X203213004Y-83076996D03*
%TD*%
%TO.C,SW4*%
X120801996Y-148343004D03*
X134633004Y-134511996D03*
%TD*%
%TO.C,SW7*%
X120801996Y-199778004D03*
X134633004Y-185946996D03*
%TD*%
D10*
%TO.C,D26*%
X171677500Y-102622500D03*
D11*
X179297500Y-102622500D03*
%TD*%
D10*
%TO.C,D44*%
X205967500Y-136912500D03*
D11*
X213587500Y-136912500D03*
%TD*%
D10*
%TO.C,D15*%
X137387500Y-188347500D03*
D11*
X145007500Y-188347500D03*
%TD*%
D12*
%TO.C,SW41*%
X206526996Y-96908004D03*
X220358004Y-83076996D03*
%TD*%
D10*
%TO.C,D25*%
X171677500Y-85477500D03*
D11*
X179297500Y-85477500D03*
%TD*%
D12*
%TO.C,SW42*%
X206526996Y-114053004D03*
X220358004Y-100221996D03*
%TD*%
D17*
%TO.C,S1*%
X268746500Y-166122500D03*
D18*
X274246500Y-160222500D03*
D19*
X274246500Y-166122500D03*
D18*
X279246500Y-162322500D03*
D17*
X279746500Y-166122500D03*
%TD*%
D12*
%TO.C,SW3*%
X120801996Y-131198004D03*
X134633004Y-117366996D03*
%TD*%
D10*
%TO.C,D59*%
X240257500Y-119767500D03*
D11*
X247877500Y-119767500D03*
%TD*%
D12*
%TO.C,SW9*%
X137946996Y-96908004D03*
X151778004Y-83076996D03*
%TD*%
D10*
%TO.C,D22*%
X154532500Y-171202500D03*
D11*
X162152500Y-171202500D03*
%TD*%
D10*
%TO.C,D21*%
X154532500Y-154057500D03*
D11*
X162152500Y-154057500D03*
%TD*%
D12*
%TO.C,SW26*%
X172236996Y-114053004D03*
X186068004Y-100221996D03*
%TD*%
%TO.C,SW27*%
X172236996Y-131198004D03*
X186068004Y-117366996D03*
%TD*%
D10*
%TO.C,D14*%
X137317500Y-171177500D03*
D11*
X144937500Y-171177500D03*
%TD*%
D10*
%TO.C,D13*%
X137387500Y-154057500D03*
D11*
X145007500Y-154057500D03*
%TD*%
D10*
%TO.C,D36*%
X188822500Y-136912500D03*
D11*
X196442500Y-136912500D03*
%TD*%
D12*
%TO.C,SW64*%
X240816996Y-216923004D03*
X254648004Y-203091996D03*
%TD*%
D10*
%TO.C,D61*%
X240257500Y-154057500D03*
D11*
X247877500Y-154057500D03*
%TD*%
D12*
%TO.C,SW47*%
X206526996Y-199778004D03*
X220358004Y-185946996D03*
%TD*%
%TO.C,SW58*%
X240816996Y-114053004D03*
X254648004Y-100221996D03*
%TD*%
D10*
%TO.C,D24*%
X154532500Y-205492500D03*
D11*
X162152500Y-205492500D03*
%TD*%
D10*
%TO.C,D3*%
X120202500Y-119802500D03*
D11*
X127822500Y-119802500D03*
%TD*%
D10*
%TO.C,D19*%
X154532500Y-119767500D03*
D11*
X162152500Y-119767500D03*
%TD*%
D12*
%TO.C,SW44*%
X206526996Y-148343004D03*
X220358004Y-134511996D03*
%TD*%
%TO.C,SW21*%
X155091996Y-165488004D03*
X168923004Y-151656996D03*
%TD*%
%TO.C,SW59*%
X240816996Y-131198004D03*
X254648004Y-117366996D03*
%TD*%
%TO.C,SW13*%
X137946996Y-165488004D03*
X151778004Y-151656996D03*
%TD*%
D10*
%TO.C,D20*%
X154532500Y-136912500D03*
D11*
X162152500Y-136912500D03*
%TD*%
D12*
%TO.C,SW46*%
X206526996Y-182633004D03*
X220358004Y-168801996D03*
%TD*%
D10*
%TO.C,D51*%
X223112500Y-119767500D03*
D11*
X230732500Y-119767500D03*
%TD*%
D10*
%TO.C,D7*%
X120242500Y-188347500D03*
D11*
X127862500Y-188347500D03*
%TD*%
D12*
%TO.C,SW19*%
X155091996Y-131198004D03*
X168923004Y-117366996D03*
%TD*%
D10*
%TO.C,D5*%
X120192500Y-154072500D03*
D11*
X127812500Y-154072500D03*
%TD*%
D10*
%TO.C,D45*%
X205967500Y-154057500D03*
D11*
X213587500Y-154057500D03*
%TD*%
D12*
%TO.C,SW22*%
X155091996Y-182633004D03*
X168923004Y-168801996D03*
%TD*%
D20*
%TO.C,A1*%
X281962500Y-58972500D03*
D21*
X282262500Y-62002500D03*
X287112500Y-62002500D03*
D20*
X287412500Y-58972500D03*
D22*
X274997500Y-58842500D03*
D23*
X274997500Y-61382500D03*
D24*
X274997500Y-63922500D03*
D23*
X274997500Y-66462500D03*
X274997500Y-69002500D03*
X274997500Y-71542500D03*
X274997500Y-74082500D03*
D24*
X274997500Y-76622500D03*
D23*
X274997500Y-79162500D03*
X274997500Y-81702500D03*
X274997500Y-84242500D03*
X274997500Y-86782500D03*
D24*
X274997500Y-89322500D03*
D23*
X274997500Y-91862500D03*
X274997500Y-94402500D03*
X274997500Y-96942500D03*
X274997500Y-99482500D03*
D24*
X274997500Y-102022500D03*
D23*
X274997500Y-104562500D03*
X274997500Y-107102500D03*
X294377500Y-107102500D03*
X294377500Y-104562500D03*
D22*
X294377500Y-102022500D03*
D23*
X294377500Y-99482500D03*
X294377500Y-96942500D03*
X294377500Y-94402500D03*
X294377500Y-91862500D03*
D22*
X294377500Y-89322500D03*
D23*
X294377500Y-86782500D03*
X294377500Y-84242500D03*
X294377500Y-81702500D03*
X294377500Y-79162500D03*
D22*
X294377500Y-76622500D03*
D23*
X294377500Y-74082500D03*
X294377500Y-71542500D03*
X294377500Y-69002500D03*
X294377500Y-66462500D03*
D22*
X294377500Y-63922500D03*
D23*
X294377500Y-61382500D03*
X294377500Y-58842500D03*
D25*
X285271600Y-88672500D03*
D26*
X287811600Y-88672500D03*
X290351600Y-88672500D03*
D27*
X284687500Y-61972500D03*
X285687500Y-58672500D03*
X283687500Y-58672500D03*
X282187500Y-66972500D03*
X282187500Y-69472500D03*
X282187500Y-71972500D03*
%TD*%
D10*
%TO.C,D47*%
X205967500Y-188347500D03*
D11*
X213587500Y-188347500D03*
%TD*%
D13*
%TO.C,REF\u002A\u002A*%
X303562500Y-66022500D03*
%TD*%
%TO.C,REF\u002A\u002A*%
X116462500Y-233980500D03*
%TD*%
D12*
%TO.C,SW28*%
X172236996Y-148343004D03*
X186068004Y-134511996D03*
%TD*%
%TO.C,SW40*%
X189381996Y-216923004D03*
X203213004Y-203091996D03*
%TD*%
D10*
%TO.C,D30*%
X171677500Y-171202500D03*
D11*
X179297500Y-171202500D03*
%TD*%
D10*
%TO.C,D6*%
X120242500Y-171202500D03*
D11*
X127862500Y-171202500D03*
%TD*%
D10*
%TO.C,D17*%
X154532500Y-85477500D03*
D11*
X162152500Y-85477500D03*
%TD*%
D12*
%TO.C,SW62*%
X240816996Y-182633004D03*
X254648004Y-168801996D03*
%TD*%
%TO.C,SW36*%
X189381996Y-148343004D03*
X203213004Y-134511996D03*
%TD*%
%TO.C,SW2*%
X120801996Y-114053004D03*
X134633004Y-100221996D03*
%TD*%
D10*
%TO.C,D33*%
X188822500Y-85477500D03*
D11*
X196442500Y-85477500D03*
%TD*%
D12*
%TO.C,SW31*%
X172236996Y-199778004D03*
X186068004Y-185946996D03*
%TD*%
%TO.C,SW30*%
X172236996Y-182633004D03*
X186068004Y-168801996D03*
%TD*%
D10*
%TO.C,D4*%
X120202500Y-136932500D03*
D11*
X127822500Y-136932500D03*
%TD*%
D12*
%TO.C,SW10*%
X137946996Y-114053004D03*
X151778004Y-100221996D03*
%TD*%
D10*
%TO.C,D37*%
X188822500Y-154057500D03*
D11*
X196442500Y-154057500D03*
%TD*%
D10*
%TO.C,D1*%
X120172500Y-85562500D03*
D11*
X127792500Y-85562500D03*
%TD*%
D12*
%TO.C,SW35*%
X189381996Y-131198004D03*
X203213004Y-117366996D03*
%TD*%
D10*
%TO.C,D11*%
X137387500Y-119767500D03*
D11*
X145007500Y-119767500D03*
%TD*%
D12*
%TO.C,SW60*%
X240816996Y-148343004D03*
X254648004Y-134511996D03*
%TD*%
%TO.C,SW20*%
X155091996Y-148343004D03*
X168923004Y-134511996D03*
%TD*%
D10*
%TO.C,D12*%
X137387500Y-136912500D03*
D11*
X145007500Y-136912500D03*
%TD*%
D12*
%TO.C,SW56*%
X223671996Y-216923004D03*
X237503004Y-203091996D03*
%TD*%
D10*
%TO.C,D40*%
X188822500Y-205492500D03*
D11*
X196442500Y-205492500D03*
%TD*%
D10*
%TO.C,D28*%
X171677500Y-136912500D03*
D11*
X179297500Y-136912500D03*
%TD*%
D10*
%TO.C,D29*%
X171677500Y-154057500D03*
D11*
X179297500Y-154057500D03*
%TD*%
D12*
%TO.C,SW52*%
X223671996Y-148343004D03*
X237503004Y-134511996D03*
%TD*%
D10*
%TO.C,D2*%
X120172500Y-102692500D03*
D11*
X127792500Y-102692500D03*
%TD*%
D12*
%TO.C,SW14*%
X137946996Y-182633004D03*
X151778004Y-168801996D03*
%TD*%
%TO.C,SW25*%
X172236996Y-96908004D03*
X186068004Y-83076996D03*
%TD*%
%TO.C,SW8*%
X120801996Y-216923004D03*
X134633004Y-203091996D03*
%TD*%
D10*
%TO.C,D46*%
X205967500Y-171202500D03*
D11*
X213587500Y-171202500D03*
%TD*%
M02*
