M48
; DRILL file KiCad 10.0.3 date 2026-06-11T15:09:37
; FORMAT={-:-/ absolute / metric / decimal}
; #@! TF.CreationDate,2026-06-11T15:09:37-04:00
; #@! TF.GenerationSoftware,Kicad,Pcbnew,10.0.3
; #@! TF.FileFunction,Plated,1,2,PTH
FMAT,2
METRIC
; #@! TA.AperFunction,Plated,PTH,ViaDrill
T1C0.300
; #@! TA.AperFunction,Plated,PTH,ComponentDrill
T2C0.800
; #@! TA.AperFunction,Plated,PTH,ComponentDrill
T3C0.914
; #@! TA.AperFunction,Plated,PTH,ComponentDrill
T4C1.000
; #@! TA.AperFunction,Plated,PTH,ComponentDrill
T5C1.050
; #@! TA.AperFunction,Plated,PTH,ComponentDrill
T6C1.100
%
G90
G05
T1
X256.786Y-104.156
X261.123Y-153.452
X261.272Y-87.312
X283.363Y-127.222
X304.252Y-120.152
X306.252Y-207.392
X308.482Y-114.483
X308.553Y-116.402
X309.282Y-117.002
X310.142Y-117.602
X311.042Y-118.102
X312.142Y-160.312
T2
X120.172Y-85.562
X120.172Y-102.692
X120.192Y-154.072
X120.203Y-119.802
X120.203Y-136.933
X120.242Y-171.202
X120.242Y-188.347
X120.242Y-205.492
X127.792Y-85.562
X127.792Y-102.692
X127.812Y-154.072
X127.822Y-119.802
X127.822Y-136.933
X127.862Y-171.202
X127.862Y-188.347
X127.862Y-205.492
X137.317Y-171.177
X137.387Y-85.477
X137.387Y-102.623
X137.387Y-119.767
X137.387Y-136.912
X137.387Y-154.058
X137.387Y-188.347
X137.387Y-205.492
X144.938Y-171.177
X145.007Y-85.477
X145.007Y-102.623
X145.007Y-119.767
X145.007Y-136.912
X145.007Y-154.058
X145.007Y-188.347
X145.007Y-205.492
X154.532Y-85.477
X154.532Y-102.623
X154.532Y-119.767
X154.532Y-136.912
X154.532Y-154.058
X154.532Y-171.202
X154.532Y-188.347
X154.532Y-205.492
X162.153Y-85.477
X162.153Y-102.623
X162.153Y-119.767
X162.153Y-136.912
X162.153Y-154.058
X162.153Y-171.202
X162.153Y-188.347
X162.153Y-205.492
X171.677Y-85.477
X171.677Y-102.623
X171.677Y-119.767
X171.677Y-136.912
X171.677Y-154.058
X171.677Y-171.202
X171.677Y-188.347
X171.677Y-205.492
X179.297Y-85.477
X179.297Y-102.623
X179.297Y-119.767
X179.297Y-136.912
X179.297Y-154.058
X179.297Y-171.202
X179.297Y-188.347
X179.297Y-205.492
X188.822Y-85.477
X188.822Y-102.623
X188.822Y-119.767
X188.822Y-136.912
X188.822Y-154.058
X188.822Y-171.202
X188.822Y-188.347
X188.822Y-205.492
X196.442Y-85.477
X196.442Y-102.623
X196.442Y-119.767
X196.442Y-136.912
X196.442Y-154.058
X196.442Y-171.202
X196.442Y-188.347
X196.442Y-205.492
X205.968Y-85.477
X205.968Y-102.623
X205.968Y-119.767
X205.968Y-136.912
X205.968Y-154.058
X205.968Y-171.202
X205.968Y-188.347
X205.968Y-205.492
X213.587Y-85.477
X213.587Y-102.623
X213.587Y-119.767
X213.587Y-136.912
X213.587Y-154.058
X213.587Y-171.202
X213.587Y-188.347
X213.587Y-205.492
X223.112Y-85.477
X223.112Y-102.623
X223.112Y-119.767
X223.112Y-136.912
X223.112Y-154.058
X223.112Y-171.202
X223.112Y-188.347
X223.112Y-205.492
X230.732Y-85.477
X230.732Y-102.623
X230.732Y-119.767
X230.732Y-136.912
X230.732Y-154.058
X230.732Y-171.202
X230.732Y-188.347
X230.732Y-205.492
X240.257Y-85.477
X240.257Y-102.623
X240.257Y-119.767
X240.257Y-136.912
X240.257Y-154.058
X240.257Y-171.202
X240.257Y-188.347
X240.257Y-205.492
X247.877Y-85.477
X247.877Y-102.623
X247.877Y-119.767
X247.877Y-136.912
X247.877Y-154.058
X247.877Y-171.202
X247.877Y-188.347
X247.877Y-205.492
T3
X120.802Y-96.94
X120.802Y-114.053
X120.802Y-131.198
X120.802Y-148.343
X120.802Y-165.488
X120.802Y-182.633
X120.802Y-199.778
X120.802Y-216.923
X134.633Y-83.109
X134.633Y-100.222
X134.633Y-117.367
X134.633Y-134.512
X134.633Y-151.657
X134.633Y-168.802
X134.633Y-185.947
X134.633Y-203.092
X137.947Y-96.908
X137.947Y-114.053
X137.947Y-148.343
X137.947Y-165.488
X137.947Y-182.633
X137.947Y-199.778
X137.947Y-216.923
X138.028Y-131.279
X151.778Y-83.077
X151.778Y-100.222
X151.778Y-134.512
X151.778Y-151.657
X151.778Y-168.802
X151.778Y-185.947
X151.778Y-203.092
X151.859Y-117.448
X155.092Y-96.908
X155.092Y-114.053
X155.092Y-131.198
X155.092Y-148.343
X155.092Y-165.488
X155.092Y-182.633
X155.092Y-199.778
X155.092Y-216.923
X168.923Y-83.077
X168.923Y-100.222
X168.923Y-117.367
X168.923Y-134.512
X168.923Y-151.657
X168.923Y-168.802
X168.923Y-185.947
X168.923Y-203.092
X172.237Y-96.908
X172.237Y-114.053
X172.237Y-131.198
X172.237Y-148.343
X172.237Y-165.488
X172.237Y-182.633
X172.237Y-199.778
X172.237Y-216.923
X186.068Y-83.077
X186.068Y-100.222
X186.068Y-117.367
X186.068Y-134.512
X186.068Y-151.657
X186.068Y-168.802
X186.068Y-185.947
X186.068Y-203.092
X189.382Y-96.908
X189.382Y-114.053
X189.382Y-131.198
X189.382Y-148.343
X189.382Y-165.488
X189.382Y-182.633
X189.382Y-199.778
X189.382Y-216.923
X203.213Y-83.077
X203.213Y-100.222
X203.213Y-117.367
X203.213Y-134.512
X203.213Y-151.657
X203.213Y-168.802
X203.213Y-185.947
X203.213Y-203.092
X206.527Y-96.908
X206.527Y-114.053
X206.527Y-131.198
X206.527Y-148.343
X206.527Y-165.488
X206.527Y-182.633
X206.527Y-199.778
X206.527Y-216.923
X220.358Y-83.077
X220.358Y-100.222
X220.358Y-117.367
X220.358Y-134.512
X220.358Y-151.657
X220.358Y-168.802
X220.358Y-185.947
X220.358Y-203.092
X223.672Y-96.908
X223.672Y-114.053
X223.672Y-131.198
X223.672Y-148.343
X223.672Y-165.488
X223.672Y-182.633
X223.672Y-199.778
X223.672Y-216.923
X237.503Y-83.077
X237.503Y-100.222
X237.503Y-117.367
X237.503Y-134.512
X237.503Y-151.657
X237.503Y-168.802
X237.503Y-185.947
X237.503Y-203.092
X240.817Y-96.908
X240.817Y-114.053
X240.817Y-131.198
X240.817Y-148.343
X240.817Y-165.488
X240.817Y-182.633
X240.817Y-199.778
X240.817Y-216.923
X254.648Y-83.077
X254.648Y-100.222
X254.648Y-117.367
X254.648Y-134.512
X254.648Y-151.657
X254.648Y-168.802
X254.648Y-185.947
X254.648Y-203.092
T4
X280.822Y-130.412
X283.363Y-130.412
X285.902Y-130.412
X288.442Y-130.412
T6
X274.998Y-63.922
X274.998Y-66.462
X274.998Y-69.002
X274.998Y-71.542
X274.998Y-74.082
X274.998Y-76.623
X274.998Y-79.162
X274.998Y-81.703
X274.998Y-84.242
X274.998Y-86.782
X274.998Y-89.322
X274.998Y-91.862
X274.998Y-94.402
X274.998Y-96.942
X274.998Y-99.483
X274.998Y-102.022
X274.998Y-104.562
X274.998Y-107.102
X294.377Y-58.842
X294.377Y-61.383
X294.377Y-63.922
X294.377Y-66.462
X294.377Y-69.002
X294.377Y-71.542
X294.377Y-74.082
X294.377Y-76.623
X294.377Y-79.162
X294.377Y-81.703
X294.377Y-84.242
X294.377Y-86.782
X294.377Y-89.322
X294.377Y-91.862
X294.377Y-94.402
X294.377Y-96.942
X294.377Y-99.483
X294.377Y-102.022
X294.377Y-104.562
X294.377Y-107.102
T5
G00X274.998Y-58.817
M15
G01X274.998Y-58.867
M16
G05
G00X274.998Y-61.357
M15
G01X274.998Y-61.407
M16
G05
M30
