G04 #@! TF.GenerationSoftware,KiCad,Pcbnew,10.0.3*
G04 #@! TF.CreationDate,2026-06-11T15:09:37-04:00*
G04 #@! TF.ProjectId,magnetic-chess-board,6d61676e-6574-4696-932d-63686573732d,rev?*
G04 #@! TF.SameCoordinates,Original*
G04 #@! TF.FileFunction,Copper,L1,Top*
G04 #@! TF.FilePolarity,Positive*
%FSLAX46Y46*%
G04 Gerber Fmt 4.6, Leading zero omitted, Abs format (unit mm)*
G04 Created by KiCad (PCBNEW 10.0.3) date 2026-06-11 15:09:37*
%MOMM*%
%LPD*%
G01*
G04 APERTURE LIST*
G04 Aperture macros list*
%AMRoundRect*
0 Rectangle with rounded corners*
0 $1 Rounding radius*
0 $2 $3 $4 $5 $6 $7 $8 $9 X,Y pos of 4 corners*
0 Add a 4 corners polygon primitive as box body*
4,1,4,$2,$3,$4,$5,$6,$7,$8,$9,$2,$3,0*
0 Add four circle primitives for the rounded corners*
1,1,$1+$1,$2,$3*
1,1,$1+$1,$4,$5*
1,1,$1+$1,$6,$7*
1,1,$1+$1,$8,$9*
0 Add four rect primitives between the rounded corners*
20,1,$1+$1,$2,$3,$4,$5,0*
20,1,$1+$1,$4,$5,$6,$7,0*
20,1,$1+$1,$6,$7,$8,$9,0*
20,1,$1+$1,$8,$9,$2,$3,0*%
%AMFreePoly0*
4,1,37,0.800000,0.796148,0.878414,0.796148,1.032228,0.765552,1.177117,0.705537,1.307515,0.618408,1.418408,0.507515,1.505537,0.377117,1.565552,0.232228,1.596148,0.078414,1.596148,-0.078414,1.565552,-0.232228,1.505537,-0.377117,1.418408,-0.507515,1.307515,-0.618408,1.177117,-0.705537,1.032228,-0.765552,0.878414,-0.796148,0.800000,-0.796148,0.800000,-0.800000,-1.400000,-0.800000,
-1.403843,-0.796157,-1.439018,-0.796157,-1.511114,-0.766294,-1.566294,-0.711114,-1.596157,-0.639018,-1.596157,-0.603843,-1.600000,-0.600000,-1.600000,0.600000,-1.596157,0.603843,-1.596157,0.639018,-1.566294,0.711114,-1.511114,0.766294,-1.439018,0.796157,-1.403843,0.796157,-1.400000,0.800000,0.800000,0.800000,0.800000,0.796148,0.800000,0.796148,$1*%
%AMFreePoly1*
4,1,37,1.403843,0.796157,1.439018,0.796157,1.511114,0.766294,1.566294,0.711114,1.596157,0.639018,1.596157,0.603843,1.600000,0.600000,1.600000,-0.600000,1.596157,-0.603843,1.596157,-0.639018,1.566294,-0.711114,1.511114,-0.766294,1.439018,-0.796157,1.403843,-0.796157,1.400000,-0.800000,-0.800000,-0.800000,-0.800000,-0.796148,-0.878414,-0.796148,-1.032228,-0.765552,-1.177117,-0.705537,
-1.307515,-0.618408,-1.418408,-0.507515,-1.505537,-0.377117,-1.565552,-0.232228,-1.596148,-0.078414,-1.596148,0.078414,-1.565552,0.232228,-1.505537,0.377117,-1.418408,0.507515,-1.307515,0.618408,-1.177117,0.705537,-1.032228,0.765552,-0.878414,0.796148,-0.800000,0.796148,-0.800000,0.800000,1.400000,0.800000,1.403843,0.796157,1.403843,0.796157,$1*%
G04 Aperture macros list end*
G04 #@! TA.AperFunction,NonConductor*
%ADD10C,0.200000*%
G04 #@! TD*
G04 #@! TA.AperFunction,ComponentPad*
%ADD11RoundRect,0.250000X-0.550000X-0.550000X0.550000X-0.550000X0.550000X0.550000X-0.550000X0.550000X0*%
G04 #@! TD*
G04 #@! TA.AperFunction,ComponentPad*
%ADD12C,1.600000*%
G04 #@! TD*
G04 #@! TA.AperFunction,ComponentPad*
%ADD13C,1.524000*%
G04 #@! TD*
G04 #@! TA.AperFunction,ComponentPad*
%ADD14R,1.508000X1.508000*%
G04 #@! TD*
G04 #@! TA.AperFunction,ComponentPad*
%ADD15C,1.508000*%
G04 #@! TD*
G04 #@! TA.AperFunction,SMDPad,CuDef*
%ADD16O,1.100000X1.800000*%
G04 #@! TD*
G04 #@! TA.AperFunction,SMDPad,CuDef*
%ADD17O,1.050000X1.450000*%
G04 #@! TD*
G04 #@! TA.AperFunction,ComponentPad*
%ADD18FreePoly0,0.000000*%
G04 #@! TD*
G04 #@! TA.AperFunction,ComponentPad*
%ADD19RoundRect,0.800000X-0.800000X-0.000010X0.800000X-0.000010X0.800000X0.000010X-0.800000X0.000010X0*%
G04 #@! TD*
G04 #@! TA.AperFunction,ComponentPad*
%ADD20FreePoly1,0.000000*%
G04 #@! TD*
G04 #@! TA.AperFunction,SMDPad,CuDef*
%ADD21RoundRect,0.200000X-0.587400X-0.587400X0.587400X-0.587400X0.587400X0.587400X-0.587400X0.587400X0*%
G04 #@! TD*
G04 #@! TA.AperFunction,SMDPad,CuDef*
%ADD22C,1.574800*%
G04 #@! TD*
G04 #@! TA.AperFunction,SMDPad,CuDef*
%ADD23RoundRect,0.300000X-0.450000X-0.450000X0.450000X-0.450000X0.450000X0.450000X-0.450000X0.450000X0*%
G04 #@! TD*
G04 #@! TA.AperFunction,ViaPad*
%ADD24C,0.600000*%
G04 #@! TD*
G04 #@! TA.AperFunction,Conductor*
%ADD25C,0.200000*%
G04 #@! TD*
G04 APERTURE END LIST*
D10*
X106452500Y-61022500D02*
X106460938Y-56022500D01*
X111352500Y-56022500D02*
X105302500Y-56022500D01*
D11*
G04 #@! TO.P,D41,1,K_1*
G04 #@! TO.N,/Col 6 (f)*
X205967500Y-85477500D03*
D12*
G04 #@! TO.P,D41,2,A_2*
G04 #@! TO.N,Net-(D41-A)*
X213587500Y-85477500D03*
G04 #@! TD*
D11*
G04 #@! TO.P,D32,1,K_1*
G04 #@! TO.N,/Col 4 (d)*
X171677500Y-205492500D03*
D12*
G04 #@! TO.P,D32,2,A_2*
G04 #@! TO.N,Net-(D32-A)*
X179297500Y-205492500D03*
G04 #@! TD*
D13*
G04 #@! TO.P,SW34,1,1_1*
G04 #@! TO.N,/Row 7*
X189381996Y-114053004D03*
G04 #@! TO.P,SW34,2,2_2*
G04 #@! TO.N,Net-(D34-A)*
X203213004Y-100221996D03*
G04 #@! TD*
G04 #@! TO.P,SW29,1,1_1*
G04 #@! TO.N,/Row 4*
X172236996Y-165488004D03*
G04 #@! TO.P,SW29,2,2_2*
G04 #@! TO.N,Net-(D29-A)*
X186068004Y-151656996D03*
G04 #@! TD*
D11*
G04 #@! TO.P,D18,1,K_1*
G04 #@! TO.N,/Col 3 (c)*
X154532500Y-102622500D03*
D12*
G04 #@! TO.P,D18,2,A_2*
G04 #@! TO.N,Net-(D18-A)*
X162152500Y-102622500D03*
G04 #@! TD*
D11*
G04 #@! TO.P,D31,1,K_1*
G04 #@! TO.N,/Col 4 (d)*
X171677500Y-188347500D03*
D12*
G04 #@! TO.P,D31,2,A_2*
G04 #@! TO.N,Net-(D31-A)*
X179297500Y-188347500D03*
G04 #@! TD*
D11*
G04 #@! TO.P,D48,1,K_1*
G04 #@! TO.N,/Col 6 (f)*
X205967500Y-205492500D03*
D12*
G04 #@! TO.P,D48,2,A_2*
G04 #@! TO.N,Net-(D48-A)*
X213587500Y-205492500D03*
G04 #@! TD*
D13*
G04 #@! TO.P,SW1,1,1_1*
G04 #@! TO.N,/Row 8*
X120801996Y-96940000D03*
G04 #@! TO.P,SW1,2,2_2*
G04 #@! TO.N,Net-(D1-A)*
X134633004Y-83108992D03*
G04 #@! TD*
G04 #@! TO.P,SW45,1,1_1*
G04 #@! TO.N,/Row 4*
X206526996Y-165488004D03*
G04 #@! TO.P,SW45,2,2_2*
G04 #@! TO.N,Net-(D45-A)*
X220358004Y-151656996D03*
G04 #@! TD*
D11*
G04 #@! TO.P,D50,1,K_1*
G04 #@! TO.N,/Col 7 (g)*
X223112500Y-102622500D03*
D12*
G04 #@! TO.P,D50,2,A_2*
G04 #@! TO.N,Net-(D50-A)*
X230732500Y-102622500D03*
G04 #@! TD*
D11*
G04 #@! TO.P,D58,1,K_1*
G04 #@! TO.N,/Col 8 (h)*
X240257500Y-102622500D03*
D12*
G04 #@! TO.P,D58,2,A_2*
G04 #@! TO.N,Net-(D58-A)*
X247877500Y-102622500D03*
G04 #@! TD*
D13*
G04 #@! TO.P,SW17,1,1_1*
G04 #@! TO.N,/Row 8*
X155091996Y-96908004D03*
G04 #@! TO.P,SW17,2,2_2*
G04 #@! TO.N,Net-(D17-A)*
X168923004Y-83076996D03*
G04 #@! TD*
G04 #@! TO.P,SW51,1,1_1*
G04 #@! TO.N,/Row 6*
X223671996Y-131198004D03*
G04 #@! TO.P,SW51,2,2_2*
G04 #@! TO.N,Net-(D51-A)*
X237503004Y-117366996D03*
G04 #@! TD*
D11*
G04 #@! TO.P,D8,1,K_1*
G04 #@! TO.N,/Col 1 (a)*
X120242500Y-205492500D03*
D12*
G04 #@! TO.P,D8,2,A_2*
G04 #@! TO.N,Net-(D8-A)*
X127862500Y-205492500D03*
G04 #@! TD*
D11*
G04 #@! TO.P,D23,1,K_1*
G04 #@! TO.N,/Col 3 (c)*
X154532500Y-188347500D03*
D12*
G04 #@! TO.P,D23,2,A_2*
G04 #@! TO.N,Net-(D23-A)*
X162152500Y-188347500D03*
G04 #@! TD*
D11*
G04 #@! TO.P,D52,1,K_1*
G04 #@! TO.N,/Col 7 (g)*
X223112500Y-136912500D03*
D12*
G04 #@! TO.P,D52,2,A_2*
G04 #@! TO.N,Net-(D52-A)*
X230732500Y-136912500D03*
G04 #@! TD*
D13*
G04 #@! TO.P,SW61,1,1_1*
G04 #@! TO.N,/Row 4*
X240816996Y-165488004D03*
G04 #@! TO.P,SW61,2,2_2*
G04 #@! TO.N,Net-(D61-A)*
X254648004Y-151656996D03*
G04 #@! TD*
D11*
G04 #@! TO.P,D55,1,K_1*
G04 #@! TO.N,/Col 7 (g)*
X223112500Y-188347500D03*
D12*
G04 #@! TO.P,D55,2,A_2*
G04 #@! TO.N,Net-(D55-A)*
X230732500Y-188347500D03*
G04 #@! TD*
D11*
G04 #@! TO.P,D56,1,K_1*
G04 #@! TO.N,/Col 7 (g)*
X223112500Y-205492500D03*
D12*
G04 #@! TO.P,D56,2,A_2*
G04 #@! TO.N,Net-(D56-A)*
X230732500Y-205492500D03*
G04 #@! TD*
D11*
G04 #@! TO.P,D57,1,K_1*
G04 #@! TO.N,/Col 8 (h)*
X240257500Y-85477500D03*
D12*
G04 #@! TO.P,D57,2,A_2*
G04 #@! TO.N,Net-(D57-A)*
X247877500Y-85477500D03*
G04 #@! TD*
D13*
G04 #@! TO.P,SW15,1,1_1*
G04 #@! TO.N,/Row 2*
X137946996Y-199778004D03*
G04 #@! TO.P,SW15,2,2_2*
G04 #@! TO.N,Net-(D15-A)*
X151778004Y-185946996D03*
G04 #@! TD*
D11*
G04 #@! TO.P,D43,1,K_1*
G04 #@! TO.N,/Col 6 (f)*
X205967500Y-119767500D03*
D12*
G04 #@! TO.P,D43,2,A_2*
G04 #@! TO.N,Net-(D43-A)*
X213587500Y-119767500D03*
G04 #@! TD*
D11*
G04 #@! TO.P,D42,1,K_1*
G04 #@! TO.N,/Col 6 (f)*
X205967500Y-102622500D03*
D12*
G04 #@! TO.P,D42,2,A_2*
G04 #@! TO.N,Net-(D42-A)*
X213587500Y-102622500D03*
G04 #@! TD*
D11*
G04 #@! TO.P,D54,1,K_1*
G04 #@! TO.N,/Col 7 (g)*
X223112500Y-171202500D03*
D12*
G04 #@! TO.P,D54,2,A_2*
G04 #@! TO.N,Net-(D54-A)*
X230732500Y-171202500D03*
G04 #@! TD*
D11*
G04 #@! TO.P,D34,1,K_1*
G04 #@! TO.N,/Col 5 (e)*
X188822500Y-102622500D03*
D12*
G04 #@! TO.P,D34,2,A_2*
G04 #@! TO.N,Net-(D34-A)*
X196442500Y-102622500D03*
G04 #@! TD*
D13*
G04 #@! TO.P,SW43,1,1_1*
G04 #@! TO.N,/Row 6*
X206526996Y-131198004D03*
G04 #@! TO.P,SW43,2,2_2*
G04 #@! TO.N,Net-(D43-A)*
X220358004Y-117366996D03*
G04 #@! TD*
D14*
G04 #@! TO.P,J1,1,GND_1*
G04 #@! TO.N,GND*
X280822500Y-130412500D03*
D15*
G04 #@! TO.P,J1,2,VCC_2*
G04 #@! TO.N,+3.3V*
X283362500Y-130412500D03*
G04 #@! TO.P,J1,3,SCL_3*
G04 #@! TO.N,/I2C -  SCL*
X285902500Y-130412500D03*
G04 #@! TO.P,J1,4,SDA_4*
G04 #@! TO.N,/I2C -  SDA*
X288442500Y-130412500D03*
G04 #@! TD*
D11*
G04 #@! TO.P,D53,1,K_1*
G04 #@! TO.N,/Col 7 (g)*
X223112500Y-154057500D03*
D12*
G04 #@! TO.P,D53,2,A_2*
G04 #@! TO.N,Net-(D53-A)*
X230732500Y-154057500D03*
G04 #@! TD*
D11*
G04 #@! TO.P,D49,1,K_1*
G04 #@! TO.N,/Col 7 (g)*
X223112500Y-85477500D03*
D12*
G04 #@! TO.P,D49,2,A_2*
G04 #@! TO.N,Net-(D49-A)*
X230732500Y-85477500D03*
G04 #@! TD*
D11*
G04 #@! TO.P,D63,1,K_1*
G04 #@! TO.N,/Col 8 (h)*
X240257500Y-188347500D03*
D12*
G04 #@! TO.P,D63,2,A_2*
G04 #@! TO.N,Net-(D63-A)*
X247877500Y-188347500D03*
G04 #@! TD*
D11*
G04 #@! TO.P,D38,1,K_1*
G04 #@! TO.N,/Col 5 (e)*
X188822500Y-171202500D03*
D12*
G04 #@! TO.P,D38,2,A_2*
G04 #@! TO.N,Net-(D38-A)*
X196442500Y-171202500D03*
G04 #@! TD*
D13*
G04 #@! TO.P,SW49,1,1_1*
G04 #@! TO.N,/Row 8*
X223671996Y-96908004D03*
G04 #@! TO.P,SW49,2,2_2*
G04 #@! TO.N,Net-(D49-A)*
X237503004Y-83076996D03*
G04 #@! TD*
D11*
G04 #@! TO.P,D16,1,K_1*
G04 #@! TO.N,/Col 2 (b)*
X137387500Y-205492500D03*
D12*
G04 #@! TO.P,D16,2,A_2*
G04 #@! TO.N,Net-(D16-A)*
X145007500Y-205492500D03*
G04 #@! TD*
D11*
G04 #@! TO.P,D62,1,K_1*
G04 #@! TO.N,/Col 8 (h)*
X240257500Y-171202500D03*
D12*
G04 #@! TO.P,D62,2,A_2*
G04 #@! TO.N,Net-(D62-A)*
X247877500Y-171202500D03*
G04 #@! TD*
D13*
G04 #@! TO.P,SW39,1,1_1*
G04 #@! TO.N,/Row 2*
X189381996Y-199778004D03*
G04 #@! TO.P,SW39,2,2_2*
G04 #@! TO.N,Net-(D39-A)*
X203213004Y-185946996D03*
G04 #@! TD*
G04 #@! TO.P,SW38,1,1_1*
G04 #@! TO.N,/Row 3*
X189381996Y-182633004D03*
G04 #@! TO.P,SW38,2,2_2*
G04 #@! TO.N,Net-(D38-A)*
X203213004Y-168801996D03*
G04 #@! TD*
G04 #@! TO.P,SW53,1,1_1*
G04 #@! TO.N,/Row 4*
X223671996Y-165488004D03*
G04 #@! TO.P,SW53,2,2_2*
G04 #@! TO.N,Net-(D53-A)*
X237503004Y-151656996D03*
G04 #@! TD*
G04 #@! TO.P,SW57,1,1_1*
G04 #@! TO.N,/Row 8*
X240816996Y-96908004D03*
G04 #@! TO.P,SW57,2,2_2*
G04 #@! TO.N,Net-(D57-A)*
X254648004Y-83076996D03*
G04 #@! TD*
G04 #@! TO.P,SW5,1,1_1*
G04 #@! TO.N,/Row 4*
X120801996Y-165488004D03*
G04 #@! TO.P,SW5,2,2_2*
G04 #@! TO.N,Net-(D5-A)*
X134633004Y-151656996D03*
G04 #@! TD*
G04 #@! TO.P,SW54,1,1_1*
G04 #@! TO.N,/Row 3*
X223671996Y-182633004D03*
G04 #@! TO.P,SW54,2,2_2*
G04 #@! TO.N,Net-(D54-A)*
X237503004Y-168801996D03*
G04 #@! TD*
D11*
G04 #@! TO.P,D64,1,K_1*
G04 #@! TO.N,/Col 8 (h)*
X240257500Y-205492500D03*
D12*
G04 #@! TO.P,D64,2,A_2*
G04 #@! TO.N,Net-(D64-A)*
X247877500Y-205492500D03*
G04 #@! TD*
D13*
G04 #@! TO.P,SW16,1,1_1*
G04 #@! TO.N,/Row 1*
X137946996Y-216923004D03*
G04 #@! TO.P,SW16,2,2_2*
G04 #@! TO.N,Net-(D16-A)*
X151778004Y-203091996D03*
G04 #@! TD*
G04 #@! TO.P,SW23,1,1_1*
G04 #@! TO.N,/Row 2*
X155091996Y-199778004D03*
G04 #@! TO.P,SW23,2,2_2*
G04 #@! TO.N,Net-(D23-A)*
X168923004Y-185946996D03*
G04 #@! TD*
D11*
G04 #@! TO.P,D10,1,K_1*
G04 #@! TO.N,/Col 2 (b)*
X137387500Y-102622500D03*
D12*
G04 #@! TO.P,D10,2,A_2*
G04 #@! TO.N,Net-(D10-A)*
X145007500Y-102622500D03*
G04 #@! TD*
D11*
G04 #@! TO.P,D60,1,K_1*
G04 #@! TO.N,/Col 8 (h)*
X240257500Y-136912500D03*
D12*
G04 #@! TO.P,D60,2,A_2*
G04 #@! TO.N,Net-(D60-A)*
X247877500Y-136912500D03*
G04 #@! TD*
D13*
G04 #@! TO.P,SW11,1,1_1*
G04 #@! TO.N,/Row 6*
X138028314Y-131279321D03*
G04 #@! TO.P,SW11,2,2_2*
G04 #@! TO.N,Net-(D11-A)*
X151859322Y-117448313D03*
G04 #@! TD*
G04 #@! TO.P,SW18,1,1_1*
G04 #@! TO.N,/Row 7*
X155091996Y-114053004D03*
G04 #@! TO.P,SW18,2,2_2*
G04 #@! TO.N,Net-(D18-A)*
X168923004Y-100221996D03*
G04 #@! TD*
D11*
G04 #@! TO.P,D9,1,K_1*
G04 #@! TO.N,/Col 2 (b)*
X137387500Y-85477500D03*
D12*
G04 #@! TO.P,D9,2,A_2*
G04 #@! TO.N,Net-(D9-A)*
X145007500Y-85477500D03*
G04 #@! TD*
D11*
G04 #@! TO.P,D35,1,K_1*
G04 #@! TO.N,/Col 5 (e)*
X188822500Y-119767500D03*
D12*
G04 #@! TO.P,D35,2,A_2*
G04 #@! TO.N,Net-(D35-A)*
X196442500Y-119767500D03*
G04 #@! TD*
D13*
G04 #@! TO.P,SW63,1,1_1*
G04 #@! TO.N,/Row 2*
X240816996Y-199778004D03*
G04 #@! TO.P,SW63,2,2_2*
G04 #@! TO.N,Net-(D63-A)*
X254648004Y-185946996D03*
G04 #@! TD*
G04 #@! TO.P,SW6,1,1_1*
G04 #@! TO.N,/Row 3*
X120801996Y-182633004D03*
G04 #@! TO.P,SW6,2,2_2*
G04 #@! TO.N,Net-(D6-A)*
X134633004Y-168801996D03*
G04 #@! TD*
D11*
G04 #@! TO.P,D27,1,K_1*
G04 #@! TO.N,/Col 4 (d)*
X171677500Y-119767500D03*
D12*
G04 #@! TO.P,D27,2,A_2*
G04 #@! TO.N,Net-(D27-A)*
X179297500Y-119767500D03*
G04 #@! TD*
D11*
G04 #@! TO.P,D39,1,K_1*
G04 #@! TO.N,/Col 5 (e)*
X188822500Y-188347500D03*
D12*
G04 #@! TO.P,D39,2,A_2*
G04 #@! TO.N,Net-(D39-A)*
X196442500Y-188347500D03*
G04 #@! TD*
D13*
G04 #@! TO.P,SW32,1,1_1*
G04 #@! TO.N,/Row 1*
X172236996Y-216923004D03*
G04 #@! TO.P,SW32,2,2_2*
G04 #@! TO.N,Net-(D32-A)*
X186068004Y-203091996D03*
G04 #@! TD*
G04 #@! TO.P,SW48,1,1_1*
G04 #@! TO.N,/Row 1*
X206526996Y-216923004D03*
G04 #@! TO.P,SW48,2,2_2*
G04 #@! TO.N,Net-(D48-A)*
X220358004Y-203091996D03*
G04 #@! TD*
G04 #@! TO.P,SW37,1,1_1*
G04 #@! TO.N,/Row 4*
X189381996Y-165488004D03*
G04 #@! TO.P,SW37,2,2_2*
G04 #@! TO.N,Net-(D37-A)*
X203213004Y-151656996D03*
G04 #@! TD*
G04 #@! TO.P,SW12,1,1_1*
G04 #@! TO.N,/Row 5*
X137946996Y-148343004D03*
G04 #@! TO.P,SW12,2,2_2*
G04 #@! TO.N,Net-(D12-A)*
X151778004Y-134511996D03*
G04 #@! TD*
G04 #@! TO.P,SW55,1,1_1*
G04 #@! TO.N,/Row 2*
X223671996Y-199778004D03*
G04 #@! TO.P,SW55,2,2_2*
G04 #@! TO.N,Net-(D55-A)*
X237503004Y-185946996D03*
G04 #@! TD*
G04 #@! TO.P,SW24,1,1_1*
G04 #@! TO.N,/Row 1*
X155091996Y-216923004D03*
G04 #@! TO.P,SW24,2,2_2*
G04 #@! TO.N,Net-(D24-A)*
X168923004Y-203091996D03*
G04 #@! TD*
G04 #@! TO.P,SW50,1,1_1*
G04 #@! TO.N,/Row 7*
X223671996Y-114053004D03*
G04 #@! TO.P,SW50,2,2_2*
G04 #@! TO.N,Net-(D50-A)*
X237503004Y-100221996D03*
G04 #@! TD*
G04 #@! TO.P,SW33,1,1_1*
G04 #@! TO.N,/Row 8*
X189381996Y-96908004D03*
G04 #@! TO.P,SW33,2,2_2*
G04 #@! TO.N,Net-(D33-A)*
X203213004Y-83076996D03*
G04 #@! TD*
G04 #@! TO.P,SW4,1,1_1*
G04 #@! TO.N,/Row 5*
X120801996Y-148343004D03*
G04 #@! TO.P,SW4,2,2_2*
G04 #@! TO.N,Net-(D4-A)*
X134633004Y-134511996D03*
G04 #@! TD*
G04 #@! TO.P,SW7,1,1_1*
G04 #@! TO.N,/Row 2*
X120801996Y-199778004D03*
G04 #@! TO.P,SW7,2,2_2*
G04 #@! TO.N,Net-(D7-A)*
X134633004Y-185946996D03*
G04 #@! TD*
D11*
G04 #@! TO.P,D26,1,K_1*
G04 #@! TO.N,/Col 4 (d)*
X171677500Y-102622500D03*
D12*
G04 #@! TO.P,D26,2,A_2*
G04 #@! TO.N,Net-(D26-A)*
X179297500Y-102622500D03*
G04 #@! TD*
D11*
G04 #@! TO.P,D44,1,K_1*
G04 #@! TO.N,/Col 6 (f)*
X205967500Y-136912500D03*
D12*
G04 #@! TO.P,D44,2,A_2*
G04 #@! TO.N,Net-(D44-A)*
X213587500Y-136912500D03*
G04 #@! TD*
D11*
G04 #@! TO.P,D15,1,K_1*
G04 #@! TO.N,/Col 2 (b)*
X137387500Y-188347500D03*
D12*
G04 #@! TO.P,D15,2,A_2*
G04 #@! TO.N,Net-(D15-A)*
X145007500Y-188347500D03*
G04 #@! TD*
D13*
G04 #@! TO.P,SW41,1,1_1*
G04 #@! TO.N,/Row 8*
X206526996Y-96908004D03*
G04 #@! TO.P,SW41,2,2_2*
G04 #@! TO.N,Net-(D41-A)*
X220358004Y-83076996D03*
G04 #@! TD*
D11*
G04 #@! TO.P,D25,1,K_1*
G04 #@! TO.N,/Col 4 (d)*
X171677500Y-85477500D03*
D12*
G04 #@! TO.P,D25,2,A_2*
G04 #@! TO.N,Net-(D25-A)*
X179297500Y-85477500D03*
G04 #@! TD*
D13*
G04 #@! TO.P,SW42,1,1_1*
G04 #@! TO.N,/Row 7*
X206526996Y-114053004D03*
G04 #@! TO.P,SW42,2,2_2*
G04 #@! TO.N,Net-(D42-A)*
X220358004Y-100221996D03*
G04 #@! TD*
G04 #@! TO.P,SW3,1,1_1*
G04 #@! TO.N,/Row 6*
X120801996Y-131198004D03*
G04 #@! TO.P,SW3,2,2_2*
G04 #@! TO.N,Net-(D3-A)*
X134633004Y-117366996D03*
G04 #@! TD*
D11*
G04 #@! TO.P,D59,1,K_1*
G04 #@! TO.N,/Col 8 (h)*
X240257500Y-119767500D03*
D12*
G04 #@! TO.P,D59,2,A_2*
G04 #@! TO.N,Net-(D59-A)*
X247877500Y-119767500D03*
G04 #@! TD*
D13*
G04 #@! TO.P,SW9,1,1_1*
G04 #@! TO.N,/Row 8*
X137946996Y-96908004D03*
G04 #@! TO.P,SW9,2,2_2*
G04 #@! TO.N,Net-(D9-A)*
X151778004Y-83076996D03*
G04 #@! TD*
D11*
G04 #@! TO.P,D22,1,K_1*
G04 #@! TO.N,/Col 3 (c)*
X154532500Y-171202500D03*
D12*
G04 #@! TO.P,D22,2,A_2*
G04 #@! TO.N,Net-(D22-A)*
X162152500Y-171202500D03*
G04 #@! TD*
D11*
G04 #@! TO.P,D21,1,K_1*
G04 #@! TO.N,/Col 3 (c)*
X154532500Y-154057500D03*
D12*
G04 #@! TO.P,D21,2,A_2*
G04 #@! TO.N,Net-(D21-A)*
X162152500Y-154057500D03*
G04 #@! TD*
D13*
G04 #@! TO.P,SW26,1,1_1*
G04 #@! TO.N,/Row 7*
X172236996Y-114053004D03*
G04 #@! TO.P,SW26,2,2_2*
G04 #@! TO.N,Net-(D26-A)*
X186068004Y-100221996D03*
G04 #@! TD*
G04 #@! TO.P,SW27,1,1_1*
G04 #@! TO.N,/Row 6*
X172236996Y-131198004D03*
G04 #@! TO.P,SW27,2,2_2*
G04 #@! TO.N,Net-(D27-A)*
X186068004Y-117366996D03*
G04 #@! TD*
D11*
G04 #@! TO.P,D14,1,K_1*
G04 #@! TO.N,/Col 2 (b)*
X137317500Y-171177500D03*
D12*
G04 #@! TO.P,D14,2,A_2*
G04 #@! TO.N,Net-(D14-A)*
X144937500Y-171177500D03*
G04 #@! TD*
D11*
G04 #@! TO.P,D13,1,K_1*
G04 #@! TO.N,/Col 2 (b)*
X137387500Y-154057500D03*
D12*
G04 #@! TO.P,D13,2,A_2*
G04 #@! TO.N,Net-(D13-A)*
X145007500Y-154057500D03*
G04 #@! TD*
D11*
G04 #@! TO.P,D36,1,K_1*
G04 #@! TO.N,/Col 5 (e)*
X188822500Y-136912500D03*
D12*
G04 #@! TO.P,D36,2,A_2*
G04 #@! TO.N,Net-(D36-A)*
X196442500Y-136912500D03*
G04 #@! TD*
D13*
G04 #@! TO.P,SW64,1,1_1*
G04 #@! TO.N,/Row 1*
X240816996Y-216923004D03*
G04 #@! TO.P,SW64,2,2_2*
G04 #@! TO.N,Net-(D64-A)*
X254648004Y-203091996D03*
G04 #@! TD*
D11*
G04 #@! TO.P,D61,1,K_1*
G04 #@! TO.N,/Col 8 (h)*
X240257500Y-154057500D03*
D12*
G04 #@! TO.P,D61,2,A_2*
G04 #@! TO.N,Net-(D61-A)*
X247877500Y-154057500D03*
G04 #@! TD*
D13*
G04 #@! TO.P,SW47,1,1_1*
G04 #@! TO.N,/Row 2*
X206526996Y-199778004D03*
G04 #@! TO.P,SW47,2,2_2*
G04 #@! TO.N,Net-(D47-A)*
X220358004Y-185946996D03*
G04 #@! TD*
G04 #@! TO.P,SW58,1,1_1*
G04 #@! TO.N,/Row 7*
X240816996Y-114053004D03*
G04 #@! TO.P,SW58,2,2_2*
G04 #@! TO.N,Net-(D58-A)*
X254648004Y-100221996D03*
G04 #@! TD*
D11*
G04 #@! TO.P,D24,1,K_1*
G04 #@! TO.N,/Col 3 (c)*
X154532500Y-205492500D03*
D12*
G04 #@! TO.P,D24,2,A_2*
G04 #@! TO.N,Net-(D24-A)*
X162152500Y-205492500D03*
G04 #@! TD*
D11*
G04 #@! TO.P,D3,1,K_1*
G04 #@! TO.N,/Col 1 (a)*
X120202500Y-119802500D03*
D12*
G04 #@! TO.P,D3,2,A_2*
G04 #@! TO.N,Net-(D3-A)*
X127822500Y-119802500D03*
G04 #@! TD*
D11*
G04 #@! TO.P,D19,1,K_1*
G04 #@! TO.N,/Col 3 (c)*
X154532500Y-119767500D03*
D12*
G04 #@! TO.P,D19,2,A_2*
G04 #@! TO.N,Net-(D19-A)*
X162152500Y-119767500D03*
G04 #@! TD*
D13*
G04 #@! TO.P,SW44,1,1_1*
G04 #@! TO.N,/Row 5*
X206526996Y-148343004D03*
G04 #@! TO.P,SW44,2,2_2*
G04 #@! TO.N,Net-(D44-A)*
X220358004Y-134511996D03*
G04 #@! TD*
G04 #@! TO.P,SW21,1,1_1*
G04 #@! TO.N,/Row 4*
X155091996Y-165488004D03*
G04 #@! TO.P,SW21,2,2_2*
G04 #@! TO.N,Net-(D21-A)*
X168923004Y-151656996D03*
G04 #@! TD*
G04 #@! TO.P,SW59,1,1_1*
G04 #@! TO.N,/Row 6*
X240816996Y-131198004D03*
G04 #@! TO.P,SW59,2,2_2*
G04 #@! TO.N,Net-(D59-A)*
X254648004Y-117366996D03*
G04 #@! TD*
G04 #@! TO.P,SW13,1,1_1*
G04 #@! TO.N,/Row 4*
X137946996Y-165488004D03*
G04 #@! TO.P,SW13,2,2_2*
G04 #@! TO.N,Net-(D13-A)*
X151778004Y-151656996D03*
G04 #@! TD*
D11*
G04 #@! TO.P,D20,1,K_1*
G04 #@! TO.N,/Col 3 (c)*
X154532500Y-136912500D03*
D12*
G04 #@! TO.P,D20,2,A_2*
G04 #@! TO.N,Net-(D20-A)*
X162152500Y-136912500D03*
G04 #@! TD*
D13*
G04 #@! TO.P,SW46,1,1_1*
G04 #@! TO.N,/Row 3*
X206526996Y-182633004D03*
G04 #@! TO.P,SW46,2,2_2*
G04 #@! TO.N,Net-(D46-A)*
X220358004Y-168801996D03*
G04 #@! TD*
D11*
G04 #@! TO.P,D51,1,K_1*
G04 #@! TO.N,/Col 7 (g)*
X223112500Y-119767500D03*
D12*
G04 #@! TO.P,D51,2,A_2*
G04 #@! TO.N,Net-(D51-A)*
X230732500Y-119767500D03*
G04 #@! TD*
D11*
G04 #@! TO.P,D7,1,K_1*
G04 #@! TO.N,/Col 1 (a)*
X120242500Y-188347500D03*
D12*
G04 #@! TO.P,D7,2,A_2*
G04 #@! TO.N,Net-(D7-A)*
X127862500Y-188347500D03*
G04 #@! TD*
D13*
G04 #@! TO.P,SW19,1,1_1*
G04 #@! TO.N,/Row 6*
X155091996Y-131198004D03*
G04 #@! TO.P,SW19,2,2_2*
G04 #@! TO.N,Net-(D19-A)*
X168923004Y-117366996D03*
G04 #@! TD*
D11*
G04 #@! TO.P,D5,1,K_1*
G04 #@! TO.N,/Col 1 (a)*
X120192500Y-154072500D03*
D12*
G04 #@! TO.P,D5,2,A_2*
G04 #@! TO.N,Net-(D5-A)*
X127812500Y-154072500D03*
G04 #@! TD*
D11*
G04 #@! TO.P,D45,1,K_1*
G04 #@! TO.N,/Col 6 (f)*
X205967500Y-154057500D03*
D12*
G04 #@! TO.P,D45,2,A_2*
G04 #@! TO.N,Net-(D45-A)*
X213587500Y-154057500D03*
G04 #@! TD*
D13*
G04 #@! TO.P,SW22,1,1_1*
G04 #@! TO.N,/Row 3*
X155091996Y-182633004D03*
G04 #@! TO.P,SW22,2,2_2*
G04 #@! TO.N,Net-(D22-A)*
X168923004Y-168801996D03*
G04 #@! TD*
D16*
G04 #@! TO.P,A1,*
G04 #@! TO.N,*
X281962500Y-58972500D03*
D17*
X282262500Y-62002500D03*
X287112500Y-62002500D03*
D16*
X287412500Y-58972500D03*
D18*
G04 #@! TO.P,A1,1,GPIO0_1*
G04 #@! TO.N,unconnected-(A1-GPIO0-Pad1)*
X274997500Y-58842500D03*
D19*
G04 #@! TO.P,A1,2,GPIO1_2*
G04 #@! TO.N,unconnected-(A1-GPIO1-Pad2)*
X274997500Y-61382500D03*
D20*
G04 #@! TO.P,A1,3,GND_3*
G04 #@! TO.N,GND*
X274997500Y-63922500D03*
D19*
G04 #@! TO.P,A1,4,GPIO2_4*
G04 #@! TO.N,/Key Switch 1*
X274997500Y-66462500D03*
G04 #@! TO.P,A1,5,GPIO3_5*
G04 #@! TO.N,/Key Switch 2*
X274997500Y-69002500D03*
G04 #@! TO.P,A1,6,GPIO4_6*
G04 #@! TO.N,/I2C -  SDA*
X274997500Y-71542500D03*
G04 #@! TO.P,A1,7,GPIO5_7*
G04 #@! TO.N,/I2C -  SCL*
X274997500Y-74082500D03*
D20*
G04 #@! TO.P,A1,8,GND_8*
G04 #@! TO.N,GND*
X274997500Y-76622500D03*
D19*
G04 #@! TO.P,A1,9,GPIO6_9*
G04 #@! TO.N,/Row 8*
X274997500Y-79162500D03*
G04 #@! TO.P,A1,10,GPIO7_10*
G04 #@! TO.N,/Row 7*
X274997500Y-81702500D03*
G04 #@! TO.P,A1,11,GPIO8_11*
G04 #@! TO.N,/Row 6*
X274997500Y-84242500D03*
G04 #@! TO.P,A1,12,GPIO9_12*
G04 #@! TO.N,/Row 5*
X274997500Y-86782500D03*
D20*
G04 #@! TO.P,A1,13,GND_13*
G04 #@! TO.N,GND*
X274997500Y-89322500D03*
D19*
G04 #@! TO.P,A1,14,GPIO10_14*
G04 #@! TO.N,/Row 4*
X274997500Y-91862500D03*
G04 #@! TO.P,A1,15,GPIO11_15*
G04 #@! TO.N,/Row 3*
X274997500Y-94402500D03*
G04 #@! TO.P,A1,16,GPIO12_16*
G04 #@! TO.N,/Row 2*
X274997500Y-96942500D03*
G04 #@! TO.P,A1,17,GPIO13_17*
G04 #@! TO.N,/Row 1*
X274997500Y-99482500D03*
D20*
G04 #@! TO.P,A1,18,GND_18*
G04 #@! TO.N,GND*
X274997500Y-102022500D03*
D19*
G04 #@! TO.P,A1,19,GPIO14_19*
G04 #@! TO.N,/Col 8 (h)*
X274997500Y-104562500D03*
G04 #@! TO.P,A1,20,GPIO15_20*
G04 #@! TO.N,unconnected-(A1-GPIO15-Pad20)*
X274997500Y-107102500D03*
G04 #@! TO.P,A1,21,GPIO16_21*
G04 #@! TO.N,/Col 1 (a)*
X294377500Y-107102500D03*
G04 #@! TO.P,A1,22,GPIO17_22*
G04 #@! TO.N,/Col 2 (b)*
X294377500Y-104562500D03*
D18*
G04 #@! TO.P,A1,23,GND_23*
G04 #@! TO.N,GND*
X294377500Y-102022500D03*
D19*
G04 #@! TO.P,A1,24,GPIO18_24*
G04 #@! TO.N,/Col 3 (c)*
X294377500Y-99482500D03*
G04 #@! TO.P,A1,25,GPIO19_25*
G04 #@! TO.N,/Col 4 (d)*
X294377500Y-96942500D03*
G04 #@! TO.P,A1,26,GPIO20_26*
G04 #@! TO.N,/Col 5 (e)*
X294377500Y-94402500D03*
G04 #@! TO.P,A1,27,GPIO21_27*
G04 #@! TO.N,/Col 6 (f)*
X294377500Y-91862500D03*
D18*
G04 #@! TO.P,A1,28,GND_28*
G04 #@! TO.N,GND*
X294377500Y-89322500D03*
D19*
G04 #@! TO.P,A1,29,GPIO22_29*
G04 #@! TO.N,/Col 7 (g)*
X294377500Y-86782500D03*
G04 #@! TO.P,A1,30,RUN_30*
G04 #@! TO.N,unconnected-(A1-RUN-Pad30)*
X294377500Y-84242500D03*
G04 #@! TO.P,A1,31,GPIO26_ADC0_31*
G04 #@! TO.N,unconnected-(A1-GPIO26_ADC0-Pad31)*
X294377500Y-81702500D03*
G04 #@! TO.P,A1,32,GPIO27_ADC1_32*
G04 #@! TO.N,unconnected-(A1-GPIO27_ADC1-Pad32)*
X294377500Y-79162500D03*
D18*
G04 #@! TO.P,A1,33,AGND_33*
G04 #@! TO.N,unconnected-(A1-AGND-Pad33)*
X294377500Y-76622500D03*
D19*
G04 #@! TO.P,A1,34,GPIO28_ADC2_34*
G04 #@! TO.N,unconnected-(A1-GPIO28_ADC2-Pad34)*
X294377500Y-74082500D03*
G04 #@! TO.P,A1,35,ADC_VREF_35*
G04 #@! TO.N,unconnected-(A1-ADC_VREF-Pad35)*
X294377500Y-71542500D03*
G04 #@! TO.P,A1,36,3V3_36*
G04 #@! TO.N,+3.3V*
X294377500Y-69002500D03*
G04 #@! TO.P,A1,37,3V3_EN_37*
G04 #@! TO.N,unconnected-(A1-3V3_EN-Pad37)*
X294377500Y-66462500D03*
D18*
G04 #@! TO.P,A1,38,GND_38*
G04 #@! TO.N,GND*
X294377500Y-63922500D03*
D19*
G04 #@! TO.P,A1,39,VSYS_39*
G04 #@! TO.N,unconnected-(A1-VSYS-Pad39)*
X294377500Y-61382500D03*
G04 #@! TO.P,A1,40,VBUS_40*
G04 #@! TO.N,unconnected-(A1-VBUS-Pad40)*
X294377500Y-58842500D03*
D21*
G04 #@! TO.P,A1,D1*
G04 #@! TO.N,N/C*
X285271600Y-88672500D03*
D22*
G04 #@! TO.P,A1,D2*
X287811600Y-88672500D03*
G04 #@! TO.P,A1,D3*
X290351600Y-88672500D03*
D23*
G04 #@! TO.P,A1,TP1*
X284687500Y-61972500D03*
G04 #@! TO.P,A1,TP2*
X285687500Y-58672500D03*
G04 #@! TO.P,A1,TP3*
X283687500Y-58672500D03*
G04 #@! TO.P,A1,TP4*
X282187500Y-66972500D03*
G04 #@! TO.P,A1,TP5*
X282187500Y-69472500D03*
G04 #@! TO.P,A1,TP6*
X282187500Y-71972500D03*
G04 #@! TD*
D11*
G04 #@! TO.P,D47,1,K_1*
G04 #@! TO.N,/Col 6 (f)*
X205967500Y-188347500D03*
D12*
G04 #@! TO.P,D47,2,A_2*
G04 #@! TO.N,Net-(D47-A)*
X213587500Y-188347500D03*
G04 #@! TD*
D13*
G04 #@! TO.P,SW28,1,1_1*
G04 #@! TO.N,/Row 5*
X172236996Y-148343004D03*
G04 #@! TO.P,SW28,2,2_2*
G04 #@! TO.N,Net-(D28-A)*
X186068004Y-134511996D03*
G04 #@! TD*
G04 #@! TO.P,SW40,1,1_1*
G04 #@! TO.N,/Row 1*
X189381996Y-216923004D03*
G04 #@! TO.P,SW40,2,2_2*
G04 #@! TO.N,Net-(D40-A)*
X203213004Y-203091996D03*
G04 #@! TD*
D11*
G04 #@! TO.P,D30,1,K_1*
G04 #@! TO.N,/Col 4 (d)*
X171677500Y-171202500D03*
D12*
G04 #@! TO.P,D30,2,A_2*
G04 #@! TO.N,Net-(D30-A)*
X179297500Y-171202500D03*
G04 #@! TD*
D11*
G04 #@! TO.P,D6,1,K_1*
G04 #@! TO.N,/Col 1 (a)*
X120242500Y-171202500D03*
D12*
G04 #@! TO.P,D6,2,A_2*
G04 #@! TO.N,Net-(D6-A)*
X127862500Y-171202500D03*
G04 #@! TD*
D11*
G04 #@! TO.P,D17,1,K_1*
G04 #@! TO.N,/Col 3 (c)*
X154532500Y-85477500D03*
D12*
G04 #@! TO.P,D17,2,A_2*
G04 #@! TO.N,Net-(D17-A)*
X162152500Y-85477500D03*
G04 #@! TD*
D13*
G04 #@! TO.P,SW62,1,1_1*
G04 #@! TO.N,/Row 3*
X240816996Y-182633004D03*
G04 #@! TO.P,SW62,2,2_2*
G04 #@! TO.N,Net-(D62-A)*
X254648004Y-168801996D03*
G04 #@! TD*
G04 #@! TO.P,SW36,1,1_1*
G04 #@! TO.N,/Row 5*
X189381996Y-148343004D03*
G04 #@! TO.P,SW36,2,2_2*
G04 #@! TO.N,Net-(D36-A)*
X203213004Y-134511996D03*
G04 #@! TD*
G04 #@! TO.P,SW2,1,1_1*
G04 #@! TO.N,/Row 7*
X120801996Y-114053004D03*
G04 #@! TO.P,SW2,2,2_2*
G04 #@! TO.N,Net-(D2-A)*
X134633004Y-100221996D03*
G04 #@! TD*
D11*
G04 #@! TO.P,D33,1,K_1*
G04 #@! TO.N,/Col 5 (e)*
X188822500Y-85477500D03*
D12*
G04 #@! TO.P,D33,2,A_2*
G04 #@! TO.N,Net-(D33-A)*
X196442500Y-85477500D03*
G04 #@! TD*
D13*
G04 #@! TO.P,SW31,1,1_1*
G04 #@! TO.N,/Row 2*
X172236996Y-199778004D03*
G04 #@! TO.P,SW31,2,2_2*
G04 #@! TO.N,Net-(D31-A)*
X186068004Y-185946996D03*
G04 #@! TD*
G04 #@! TO.P,SW30,1,1_1*
G04 #@! TO.N,/Row 3*
X172236996Y-182633004D03*
G04 #@! TO.P,SW30,2,2_2*
G04 #@! TO.N,Net-(D30-A)*
X186068004Y-168801996D03*
G04 #@! TD*
D11*
G04 #@! TO.P,D4,1,K_1*
G04 #@! TO.N,/Col 1 (a)*
X120202500Y-136932500D03*
D12*
G04 #@! TO.P,D4,2,A_2*
G04 #@! TO.N,Net-(D4-A)*
X127822500Y-136932500D03*
G04 #@! TD*
D13*
G04 #@! TO.P,SW10,1,1_1*
G04 #@! TO.N,/Row 7*
X137946996Y-114053004D03*
G04 #@! TO.P,SW10,2,2_2*
G04 #@! TO.N,Net-(D10-A)*
X151778004Y-100221996D03*
G04 #@! TD*
D11*
G04 #@! TO.P,D37,1,K_1*
G04 #@! TO.N,/Col 5 (e)*
X188822500Y-154057500D03*
D12*
G04 #@! TO.P,D37,2,A_2*
G04 #@! TO.N,Net-(D37-A)*
X196442500Y-154057500D03*
G04 #@! TD*
D11*
G04 #@! TO.P,D1,1,K_1*
G04 #@! TO.N,/Col 1 (a)*
X120172500Y-85562500D03*
D12*
G04 #@! TO.P,D1,2,A_2*
G04 #@! TO.N,Net-(D1-A)*
X127792500Y-85562500D03*
G04 #@! TD*
D13*
G04 #@! TO.P,SW35,1,1_1*
G04 #@! TO.N,/Row 6*
X189381996Y-131198004D03*
G04 #@! TO.P,SW35,2,2_2*
G04 #@! TO.N,Net-(D35-A)*
X203213004Y-117366996D03*
G04 #@! TD*
D11*
G04 #@! TO.P,D11,1,K_1*
G04 #@! TO.N,/Col 2 (b)*
X137387500Y-119767500D03*
D12*
G04 #@! TO.P,D11,2,A_2*
G04 #@! TO.N,Net-(D11-A)*
X145007500Y-119767500D03*
G04 #@! TD*
D13*
G04 #@! TO.P,SW60,1,1_1*
G04 #@! TO.N,/Row 5*
X240816996Y-148343004D03*
G04 #@! TO.P,SW60,2,2_2*
G04 #@! TO.N,Net-(D60-A)*
X254648004Y-134511996D03*
G04 #@! TD*
G04 #@! TO.P,SW20,1,1_1*
G04 #@! TO.N,/Row 5*
X155091996Y-148343004D03*
G04 #@! TO.P,SW20,2,2_2*
G04 #@! TO.N,Net-(D20-A)*
X168923004Y-134511996D03*
G04 #@! TD*
D11*
G04 #@! TO.P,D12,1,K_1*
G04 #@! TO.N,/Col 2 (b)*
X137387500Y-136912500D03*
D12*
G04 #@! TO.P,D12,2,A_2*
G04 #@! TO.N,Net-(D12-A)*
X145007500Y-136912500D03*
G04 #@! TD*
D13*
G04 #@! TO.P,SW56,1,1_1*
G04 #@! TO.N,/Row 1*
X223671996Y-216923004D03*
G04 #@! TO.P,SW56,2,2_2*
G04 #@! TO.N,Net-(D56-A)*
X237503004Y-203091996D03*
G04 #@! TD*
D11*
G04 #@! TO.P,D40,1,K_1*
G04 #@! TO.N,/Col 5 (e)*
X188822500Y-205492500D03*
D12*
G04 #@! TO.P,D40,2,A_2*
G04 #@! TO.N,Net-(D40-A)*
X196442500Y-205492500D03*
G04 #@! TD*
D11*
G04 #@! TO.P,D28,1,K_1*
G04 #@! TO.N,/Col 4 (d)*
X171677500Y-136912500D03*
D12*
G04 #@! TO.P,D28,2,A_2*
G04 #@! TO.N,Net-(D28-A)*
X179297500Y-136912500D03*
G04 #@! TD*
D11*
G04 #@! TO.P,D29,1,K_1*
G04 #@! TO.N,/Col 4 (d)*
X171677500Y-154057500D03*
D12*
G04 #@! TO.P,D29,2,A_2*
G04 #@! TO.N,Net-(D29-A)*
X179297500Y-154057500D03*
G04 #@! TD*
D13*
G04 #@! TO.P,SW52,1,1_1*
G04 #@! TO.N,/Row 5*
X223671996Y-148343004D03*
G04 #@! TO.P,SW52,2,2_2*
G04 #@! TO.N,Net-(D52-A)*
X237503004Y-134511996D03*
G04 #@! TD*
D11*
G04 #@! TO.P,D2,1,K_1*
G04 #@! TO.N,/Col 1 (a)*
X120172500Y-102692500D03*
D12*
G04 #@! TO.P,D2,2,A_2*
G04 #@! TO.N,Net-(D2-A)*
X127792500Y-102692500D03*
G04 #@! TD*
D13*
G04 #@! TO.P,SW14,1,1_1*
G04 #@! TO.N,/Row 3*
X137946996Y-182633004D03*
G04 #@! TO.P,SW14,2,2_2*
G04 #@! TO.N,Net-(D14-A)*
X151778004Y-168801996D03*
G04 #@! TD*
G04 #@! TO.P,SW25,1,1_1*
G04 #@! TO.N,/Row 8*
X172236996Y-96908004D03*
G04 #@! TO.P,SW25,2,2_2*
G04 #@! TO.N,Net-(D25-A)*
X186068004Y-83076996D03*
G04 #@! TD*
G04 #@! TO.P,SW8,1,1_1*
G04 #@! TO.N,/Row 1*
X120801996Y-216923004D03*
G04 #@! TO.P,SW8,2,2_2*
G04 #@! TO.N,Net-(D8-A)*
X134633004Y-203091996D03*
G04 #@! TD*
D11*
G04 #@! TO.P,D46,1,K_1*
G04 #@! TO.N,/Col 6 (f)*
X205967500Y-171202500D03*
D12*
G04 #@! TO.P,D46,2,A_2*
G04 #@! TO.N,Net-(D46-A)*
X213587500Y-171202500D03*
G04 #@! TD*
D24*
G04 #@! TO.N,/Col 6 (f)*
X308482500Y-114482500D03*
G04 #@! TO.N,/Col 4 (d)*
X309282500Y-117002500D03*
G04 #@! TO.N,/Col 3 (c)*
X310142500Y-117602500D03*
G04 #@! TO.N,/Col 7 (g)*
X306252500Y-207392500D03*
G04 #@! TO.N,/Col 8 (h)*
X256786323Y-104156323D03*
G04 #@! TO.N,/Col 1 (a)*
X312142500Y-160312500D03*
G04 #@! TO.N,/Col 5 (e)*
X308552500Y-116402500D03*
G04 #@! TO.N,+3.3V*
X283362500Y-127222500D03*
X304252500Y-120152500D03*
G04 #@! TO.N,/I2C -  SDA*
X261272500Y-87312500D03*
G04 #@! TO.N,/Col 2 (b)*
X311042500Y-118102500D03*
G04 #@! TO.N,/Key Switch 2*
X261122500Y-153452500D03*
G04 #@! TD*
G04 #@! TO.N,/Col 6 (f)*
D25*
X299542500Y-94692500D02*
X296712500Y-91862500D01*
X299765245Y-105672500D02*
X299542500Y-105449755D01*
X308112500Y-114112500D02*
X308112500Y-107398186D01*
X306386814Y-105672500D02*
X299765245Y-105672500D01*
X308112500Y-107398186D02*
X306386814Y-105672500D01*
X299542500Y-105449755D02*
X299542500Y-94692500D01*
X296712500Y-91862500D02*
X294377500Y-91862500D01*
X308482500Y-114482500D02*
X308112500Y-114112500D01*
G04 #@! TO.N,Net-(D41-A)*
X215988004Y-83076996D02*
X213587500Y-85477500D01*
X220358004Y-83076996D02*
X215988004Y-83076996D01*
G04 #@! TO.N,/Col 4 (d)*
X294377500Y-96942500D02*
X296342500Y-96942500D01*
X307288235Y-116308235D02*
X307982500Y-117002500D01*
X306055442Y-106472500D02*
X307288235Y-107705293D01*
X307982500Y-117002500D02*
X309282500Y-117002500D01*
X298742500Y-105781127D02*
X299433874Y-106472500D01*
X298742500Y-99342500D02*
X298742500Y-105781127D01*
X307288235Y-107705293D02*
X307288235Y-116308235D01*
X299433874Y-106472500D02*
X306055442Y-106472500D01*
X296342500Y-96942500D02*
X298742500Y-99342500D01*
G04 #@! TO.N,Net-(D32-A)*
X181698004Y-203091996D02*
X179297500Y-205492500D01*
X186068004Y-203091996D02*
X181698004Y-203091996D01*
G04 #@! TO.N,/Row 7*
X172236996Y-114053004D02*
X189381996Y-114053004D01*
X189381996Y-114053004D02*
X206526996Y-114053004D01*
X137946996Y-114053004D02*
X155091996Y-114053004D01*
X240816996Y-114053004D02*
X242646996Y-114053004D01*
X242646996Y-114053004D02*
X274997500Y-81702500D01*
X223671996Y-114053004D02*
X240816996Y-114053004D01*
X206526996Y-114053004D02*
X223671996Y-114053004D01*
X120801996Y-114053004D02*
X137946996Y-114053004D01*
X155091996Y-114053004D02*
X172236996Y-114053004D01*
G04 #@! TO.N,Net-(D34-A)*
X198843004Y-100221996D02*
X196442500Y-102622500D01*
X203213004Y-100221996D02*
X198843004Y-100221996D01*
G04 #@! TO.N,/Row 4*
X120801996Y-165488004D02*
X137946996Y-165488004D01*
X244662500Y-161642500D02*
X244662500Y-113734558D01*
X266534558Y-91862500D02*
X274997500Y-91862500D01*
X155091996Y-165488004D02*
X172236996Y-165488004D01*
X223671996Y-165488004D02*
X240816996Y-165488004D01*
X189381996Y-165488004D02*
X206526996Y-165488004D01*
X244662500Y-113734558D02*
X266534558Y-91862500D01*
X172236996Y-165488004D02*
X189381996Y-165488004D01*
X137946996Y-165488004D02*
X155091996Y-165488004D01*
X240816996Y-165488004D02*
X244662500Y-161642500D01*
X206526996Y-165488004D02*
X223671996Y-165488004D01*
G04 #@! TO.N,Net-(D29-A)*
X181698004Y-151656996D02*
X179297500Y-154057500D01*
X186068004Y-151656996D02*
X181698004Y-151656996D01*
G04 #@! TO.N,/Col 3 (c)*
X305889756Y-106872500D02*
X306888235Y-107870979D01*
X308012500Y-117602500D02*
X310142500Y-117602500D01*
X298342500Y-101462500D02*
X298342500Y-105946814D01*
X294377500Y-99482500D02*
X296362500Y-99482500D01*
X306888235Y-107870979D02*
X306888235Y-116478235D01*
X299268188Y-106872500D02*
X305889756Y-106872500D01*
X298342500Y-105946814D02*
X299268188Y-106872500D01*
X296362500Y-99482500D02*
X298342500Y-101462500D01*
X306888235Y-116478235D02*
X308012500Y-117602500D01*
G04 #@! TO.N,Net-(D18-A)*
X168923004Y-100221996D02*
X164553004Y-100221996D01*
X164553004Y-100221996D02*
X162152500Y-102622500D01*
G04 #@! TO.N,Net-(D31-A)*
X181698004Y-185946996D02*
X179297500Y-188347500D01*
X186068004Y-185946996D02*
X181698004Y-185946996D01*
G04 #@! TO.N,Net-(D48-A)*
X215988004Y-203091996D02*
X213587500Y-205492500D01*
X220358004Y-203091996D02*
X215988004Y-203091996D01*
G04 #@! TO.N,/Row 8*
X271052500Y-85081814D02*
X271052500Y-83107500D01*
X120801996Y-96940000D02*
X137915000Y-96940000D01*
X259226310Y-96908004D02*
X271052500Y-85081814D01*
X240816996Y-96908004D02*
X259226310Y-96908004D01*
X172236996Y-96908004D02*
X189381996Y-96908004D01*
X236948004Y-96908004D02*
X240816996Y-96908004D01*
X271052500Y-83107500D02*
X274997500Y-79162500D01*
X137946996Y-96908004D02*
X155091996Y-96908004D01*
X206526996Y-96908004D02*
X223671996Y-96908004D01*
X137915000Y-96940000D02*
X137946996Y-96908004D01*
X189381996Y-96908004D02*
X206526996Y-96908004D01*
X223671996Y-96908004D02*
X236936996Y-96908004D01*
X155091996Y-96908004D02*
X172236996Y-96908004D01*
G04 #@! TO.N,Net-(D1-A)*
X134633004Y-83108992D02*
X130246008Y-83108992D01*
X130246008Y-83108992D02*
X127792500Y-85562500D01*
G04 #@! TO.N,Net-(D45-A)*
X220358004Y-151656996D02*
X215988004Y-151656996D01*
X215988004Y-151656996D02*
X213587500Y-154057500D01*
G04 #@! TO.N,/Col 7 (g)*
X312742500Y-200902500D02*
X312742500Y-111462500D01*
X299942500Y-90202500D02*
X296522500Y-86782500D01*
X299942500Y-105272500D02*
X299942500Y-90202500D01*
X296522500Y-86782500D02*
X294377500Y-86782500D01*
X306252500Y-207392500D02*
X312742500Y-200902500D01*
X312742500Y-111462500D02*
X306552500Y-105272500D01*
X306552500Y-105272500D02*
X299942500Y-105272500D01*
G04 #@! TO.N,Net-(D50-A)*
X233133004Y-100221996D02*
X230732500Y-102622500D01*
X237503004Y-100221996D02*
X233133004Y-100221996D01*
G04 #@! TO.N,/Col 8 (h)*
X257642500Y-104562500D02*
X274997500Y-104562500D01*
X257192500Y-104562500D02*
X257642500Y-104562500D01*
X256786323Y-104156323D02*
X257192500Y-104562500D01*
G04 #@! TO.N,Net-(D58-A)*
X250278004Y-100221996D02*
X247877500Y-102622500D01*
X254648004Y-100221996D02*
X250278004Y-100221996D01*
G04 #@! TO.N,Net-(D17-A)*
X168923004Y-83076996D02*
X164553004Y-83076996D01*
X164553004Y-83076996D02*
X162152500Y-85477500D01*
G04 #@! TO.N,/Row 6*
X172236996Y-131198004D02*
X189381996Y-131198004D01*
X206526996Y-131198004D02*
X223671996Y-131198004D01*
X120801996Y-131198004D02*
X137946997Y-131198004D01*
X240816996Y-131198004D02*
X240816996Y-121092748D01*
X223671996Y-131198004D02*
X240816996Y-131198004D01*
X243862500Y-113403186D02*
X273023186Y-84242500D01*
X155010679Y-131279321D02*
X155091996Y-131198004D01*
X137946997Y-131198004D02*
X138028314Y-131279321D01*
X273023186Y-84242500D02*
X274997500Y-84242500D01*
X155091996Y-131198004D02*
X172236996Y-131198004D01*
X240816996Y-121092748D02*
X243862500Y-118047244D01*
X243862500Y-118047244D02*
X243862500Y-113403186D01*
X189381996Y-131198004D02*
X206526996Y-131198004D01*
X138028314Y-131279321D02*
X155010679Y-131279321D01*
G04 #@! TO.N,Net-(D51-A)*
X231612500Y-119452500D02*
X231047500Y-119452500D01*
X237503004Y-117366996D02*
X233698004Y-117366996D01*
X233698004Y-117366996D02*
X231612500Y-119452500D01*
X231047500Y-119452500D02*
X230732500Y-119767500D01*
G04 #@! TO.N,/Col 1 (a)*
X309072500Y-119792500D02*
X307882500Y-118602500D01*
X306088235Y-116809607D02*
X306088235Y-108202351D01*
X307881129Y-118602500D02*
X306088235Y-116809607D01*
X307882500Y-118602500D02*
X307881129Y-118602500D01*
X294377500Y-107102500D02*
X297982500Y-107102500D01*
X305568384Y-107682500D02*
X298562500Y-107682500D01*
X312142500Y-160312500D02*
X312142500Y-156092500D01*
X306088235Y-108202351D02*
X305568384Y-107682500D01*
X312142500Y-156092500D02*
X309072500Y-153022500D01*
X309072500Y-153022500D02*
X309072500Y-119792500D01*
X298562500Y-107682500D02*
X297982500Y-107102500D01*
G04 #@! TO.N,Net-(D8-A)*
X134633004Y-203091996D02*
X130263004Y-203091996D01*
X130263004Y-203091996D02*
X127862500Y-205492500D01*
G04 #@! TO.N,Net-(D23-A)*
X164553004Y-185946996D02*
X162152500Y-188347500D01*
X168923004Y-185946996D02*
X164553004Y-185946996D01*
G04 #@! TO.N,Net-(D52-A)*
X237503004Y-134511996D02*
X233133004Y-134511996D01*
X233133004Y-134511996D02*
X230732500Y-136912500D01*
G04 #@! TO.N,Net-(D61-A)*
X250278004Y-151656996D02*
X247877500Y-154057500D01*
X254648004Y-151656996D02*
X250278004Y-151656996D01*
G04 #@! TO.N,Net-(D55-A)*
X237503004Y-185946996D02*
X233133004Y-185946996D01*
X233133004Y-185946996D02*
X230732500Y-188347500D01*
G04 #@! TO.N,Net-(D56-A)*
X233133004Y-203091996D02*
X230732500Y-205492500D01*
X237503004Y-203091996D02*
X233133004Y-203091996D01*
G04 #@! TO.N,Net-(D57-A)*
X250278004Y-83076996D02*
X247877500Y-85477500D01*
X254648004Y-83076996D02*
X250278004Y-83076996D01*
G04 #@! TO.N,/Row 2*
X206526996Y-199778004D02*
X223671996Y-199778004D01*
X120801996Y-199778004D02*
X137946996Y-199778004D01*
X245472500Y-114055930D02*
X262585930Y-96942500D01*
X172236996Y-199778004D02*
X189381996Y-199778004D01*
X189381996Y-199778004D02*
X206526996Y-199778004D01*
X155091996Y-199778004D02*
X172236996Y-199778004D01*
X223671996Y-199778004D02*
X240816996Y-199778004D01*
X245472500Y-195122500D02*
X245472500Y-114055930D01*
X240816996Y-199778004D02*
X245472500Y-195122500D01*
X262585930Y-96942500D02*
X274997500Y-96942500D01*
X137946996Y-199778004D02*
X155091996Y-199778004D01*
G04 #@! TO.N,Net-(D15-A)*
X147408004Y-185946996D02*
X145007500Y-188347500D01*
X151778004Y-185946996D02*
X147408004Y-185946996D01*
G04 #@! TO.N,Net-(D43-A)*
X215988004Y-117366996D02*
X213587500Y-119767500D01*
X220358004Y-117366996D02*
X215988004Y-117366996D01*
G04 #@! TO.N,Net-(D42-A)*
X215988004Y-100221996D02*
X213587500Y-102622500D01*
X220358004Y-100221996D02*
X215988004Y-100221996D01*
G04 #@! TO.N,Net-(D54-A)*
X237503004Y-168801996D02*
X233133004Y-168801996D01*
X233133004Y-168801996D02*
X230732500Y-171202500D01*
G04 #@! TO.N,/Col 5 (e)*
X294377500Y-94402500D02*
X296432500Y-94402500D01*
X307688235Y-116138235D02*
X307952500Y-116402500D01*
X296432500Y-94402500D02*
X296427500Y-94407500D01*
X306221128Y-106072500D02*
X307688235Y-107539607D01*
X307952500Y-116402500D02*
X308552500Y-116402500D01*
X307688235Y-107539607D02*
X307688235Y-116138235D01*
X299142500Y-105615441D02*
X299599559Y-106072500D01*
X299142500Y-97122500D02*
X299142500Y-105615441D01*
X299599559Y-106072500D02*
X306221128Y-106072500D01*
X296427500Y-94407500D02*
X299142500Y-97122500D01*
G04 #@! TO.N,+3.3V*
X287262500Y-120152500D02*
X304252500Y-120152500D01*
X283362500Y-127222500D02*
X283362500Y-124052500D01*
X283362500Y-124052500D02*
X287262500Y-120152500D01*
G04 #@! TO.N,/I2C -  SDA*
X262242500Y-86342500D02*
X262242500Y-82072500D01*
X261272500Y-87312500D02*
X262242500Y-86342500D01*
X262242500Y-82072500D02*
X272772500Y-71542500D01*
X272772500Y-71542500D02*
X274997500Y-71542500D01*
G04 #@! TO.N,Net-(D53-A)*
X237503004Y-151656996D02*
X233133004Y-151656996D01*
X233133004Y-151656996D02*
X230732500Y-154057500D01*
G04 #@! TO.N,Net-(D49-A)*
X237503004Y-83076996D02*
X233133004Y-83076996D01*
X233133004Y-83076996D02*
X230732500Y-85477500D01*
G04 #@! TO.N,Net-(D63-A)*
X250278004Y-185946996D02*
X247877500Y-188347500D01*
X254648004Y-185946996D02*
X250278004Y-185946996D01*
G04 #@! TO.N,Net-(D38-A)*
X198843004Y-168801996D02*
X196442500Y-171202500D01*
X203213004Y-168801996D02*
X198843004Y-168801996D01*
G04 #@! TO.N,/Col 2 (b)*
X296392500Y-104562500D02*
X299032500Y-107202500D01*
X308046814Y-118202500D02*
X310942500Y-118202500D01*
X299102503Y-107272500D02*
X305724070Y-107272500D01*
X299032500Y-107202500D02*
X299032503Y-107202500D01*
X306488235Y-108036665D02*
X306488235Y-116643921D01*
X306488235Y-116643921D02*
X308046814Y-118202500D01*
X294377500Y-104562500D02*
X296392500Y-104562500D01*
X299032503Y-107202500D02*
X299102503Y-107272500D01*
X310942500Y-118202500D02*
X311042500Y-118102500D01*
X305724070Y-107272500D02*
X306488235Y-108036665D01*
G04 #@! TO.N,Net-(D16-A)*
X147408004Y-203091996D02*
X145007500Y-205492500D01*
X151778004Y-203091996D02*
X147408004Y-203091996D01*
G04 #@! TO.N,Net-(D62-A)*
X250278004Y-168801996D02*
X247877500Y-171202500D01*
X254648004Y-168801996D02*
X250278004Y-168801996D01*
G04 #@! TO.N,Net-(D39-A)*
X198843004Y-185946996D02*
X196442500Y-188347500D01*
X203213004Y-185946996D02*
X198843004Y-185946996D01*
G04 #@! TO.N,/Row 3*
X120801996Y-182633004D02*
X137946996Y-182633004D01*
X264560244Y-94402500D02*
X274997500Y-94402500D01*
X137946996Y-182633004D02*
X155091996Y-182633004D01*
X245072500Y-113890244D02*
X264560244Y-94402500D01*
X245072500Y-178377500D02*
X245072500Y-113890244D01*
X172236996Y-182633004D02*
X189381996Y-182633004D01*
X223671996Y-182633004D02*
X240816996Y-182633004D01*
X206526996Y-182633004D02*
X223671996Y-182633004D01*
X189381996Y-182633004D02*
X206526996Y-182633004D01*
X240816996Y-182633004D02*
X245072500Y-178377500D01*
X155091996Y-182633004D02*
X172236996Y-182633004D01*
G04 #@! TO.N,/Key Switch 2*
X289322500Y-157282500D02*
X295172500Y-157282500D01*
X289322500Y-157282500D02*
X264952500Y-157282500D01*
X295172500Y-157282500D02*
X300212500Y-162322500D01*
X264952500Y-157282500D02*
X261122500Y-153452500D01*
G04 #@! TO.N,Net-(D5-A)*
X130228004Y-151656996D02*
X127812500Y-154072500D01*
X134633004Y-151656996D02*
X130228004Y-151656996D01*
G04 #@! TO.N,Net-(D64-A)*
X250278004Y-203091996D02*
X247877500Y-205492500D01*
X254648004Y-203091996D02*
X250278004Y-203091996D01*
G04 #@! TO.N,/Row 1*
X137946996Y-216923004D02*
X155091996Y-216923004D01*
X240816996Y-216923004D02*
X241920343Y-215819657D01*
X120801996Y-216923004D02*
X137946996Y-216923004D01*
X241920343Y-215819657D02*
X241920343Y-199240343D01*
X245872500Y-195288186D02*
X245872500Y-114221616D01*
X155091996Y-216923004D02*
X172236996Y-216923004D01*
X241920343Y-199240343D02*
X245872500Y-195288186D01*
X189381996Y-216923004D02*
X206526996Y-216923004D01*
X206526996Y-216923004D02*
X223671996Y-216923004D01*
X245872500Y-114221616D02*
X260611616Y-99482500D01*
X260611616Y-99482500D02*
X274997500Y-99482500D01*
X223671996Y-216923004D02*
X240816996Y-216923004D01*
X172236996Y-216923004D02*
X189381996Y-216923004D01*
G04 #@! TO.N,Net-(D10-A)*
X151778004Y-100221996D02*
X147408004Y-100221996D01*
X147408004Y-100221996D02*
X145007500Y-102622500D01*
G04 #@! TO.N,Net-(D60-A)*
X250278004Y-134511996D02*
X247877500Y-136912500D01*
X254648004Y-134511996D02*
X250278004Y-134511996D01*
G04 #@! TO.N,Net-(D11-A)*
X151859322Y-117448313D02*
X147326687Y-117448313D01*
X147326687Y-117448313D02*
X145007500Y-119767500D01*
G04 #@! TO.N,Net-(D9-A)*
X147408004Y-83076996D02*
X145007500Y-85477500D01*
X151778004Y-83076996D02*
X147408004Y-83076996D01*
G04 #@! TO.N,Net-(D35-A)*
X203213004Y-117366996D02*
X198843004Y-117366996D01*
X198843004Y-117366996D02*
X196442500Y-119767500D01*
G04 #@! TO.N,Net-(D6-A)*
X130253004Y-168801996D02*
X127812500Y-171242500D01*
X134633004Y-168801996D02*
X130253004Y-168801996D01*
G04 #@! TO.N,Net-(D27-A)*
X181698004Y-117366996D02*
X179297500Y-119767500D01*
X186068004Y-117366996D02*
X181698004Y-117366996D01*
G04 #@! TO.N,Net-(D37-A)*
X203213004Y-151656996D02*
X198843004Y-151656996D01*
X198843004Y-151656996D02*
X196442500Y-154057500D01*
G04 #@! TO.N,/Row 5*
X240816996Y-148343004D02*
X244262500Y-144897500D01*
X137946996Y-148343004D02*
X155091996Y-148343004D01*
X271048872Y-86782500D02*
X274997500Y-86782500D01*
X189381996Y-148343004D02*
X206526996Y-148343004D01*
X206526996Y-148343004D02*
X223671996Y-148343004D01*
X172236996Y-148343004D02*
X189381996Y-148343004D01*
X155091996Y-148343004D02*
X172236996Y-148343004D01*
X223671996Y-148343004D02*
X240816996Y-148343004D01*
X244262500Y-113568872D02*
X271048872Y-86782500D01*
X244262500Y-144897500D02*
X244262500Y-113568872D01*
X120801996Y-148343004D02*
X137946996Y-148343004D01*
G04 #@! TO.N,Net-(D12-A)*
X151778004Y-134511996D02*
X147408004Y-134511996D01*
X147408004Y-134511996D02*
X145007500Y-136912500D01*
G04 #@! TO.N,Net-(D24-A)*
X168923004Y-203091996D02*
X164553004Y-203091996D01*
X164553004Y-203091996D02*
X162152500Y-205492500D01*
G04 #@! TO.N,Net-(D33-A)*
X198843004Y-83076996D02*
X196442500Y-85477500D01*
X203213004Y-83076996D02*
X198843004Y-83076996D01*
G04 #@! TO.N,Net-(D4-A)*
X130243004Y-134511996D02*
X127822500Y-136932500D01*
X134633004Y-134511996D02*
X130243004Y-134511996D01*
G04 #@! TO.N,Net-(D7-A)*
X134633004Y-185946996D02*
X130263004Y-185946996D01*
X130263004Y-185946996D02*
X127862500Y-188347500D01*
G04 #@! TO.N,Net-(D26-A)*
X186068004Y-100221996D02*
X181698004Y-100221996D01*
X181698004Y-100221996D02*
X179297500Y-102622500D01*
G04 #@! TO.N,Net-(D44-A)*
X220358004Y-134511996D02*
X215988004Y-134511996D01*
X215988004Y-134511996D02*
X213587500Y-136912500D01*
G04 #@! TO.N,Net-(D25-A)*
X181698004Y-83076996D02*
X179297500Y-85477500D01*
X186068004Y-83076996D02*
X181698004Y-83076996D01*
G04 #@! TO.N,Net-(D3-A)*
X134498004Y-117366996D02*
X134372500Y-117492500D01*
X134633004Y-117366996D02*
X134498004Y-117366996D01*
X130258004Y-117366996D02*
X127822500Y-119802500D01*
X134633004Y-117366996D02*
X130258004Y-117366996D01*
G04 #@! TO.N,Net-(D59-A)*
X254648004Y-117366996D02*
X250278004Y-117366996D01*
X250278004Y-117366996D02*
X247877500Y-119767500D01*
G04 #@! TO.N,Net-(D22-A)*
X168923004Y-168801996D02*
X164553004Y-168801996D01*
X164553004Y-168801996D02*
X162152500Y-171202500D01*
G04 #@! TO.N,Net-(D21-A)*
X164553004Y-151656996D02*
X162152500Y-154057500D01*
X168923004Y-151656996D02*
X164553004Y-151656996D01*
G04 #@! TO.N,Net-(D14-A)*
X151778004Y-168801996D02*
X147408004Y-168801996D01*
X147408004Y-168801996D02*
X145007500Y-171202500D01*
G04 #@! TO.N,Net-(D13-A)*
X147408004Y-151656996D02*
X145007500Y-154057500D01*
X151778004Y-151656996D02*
X147408004Y-151656996D01*
G04 #@! TO.N,Net-(D36-A)*
X203213004Y-134511996D02*
X198843004Y-134511996D01*
X198843004Y-134511996D02*
X196442500Y-136912500D01*
G04 #@! TO.N,Net-(D47-A)*
X215988004Y-185946996D02*
X213587500Y-188347500D01*
X220358004Y-185946996D02*
X215988004Y-185946996D01*
G04 #@! TO.N,Net-(D19-A)*
X164553004Y-117366996D02*
X162152500Y-119767500D01*
X168923004Y-117366996D02*
X164553004Y-117366996D01*
G04 #@! TO.N,Net-(D20-A)*
X168923004Y-134511996D02*
X164553004Y-134511996D01*
X164553004Y-134511996D02*
X162152500Y-136912500D01*
G04 #@! TO.N,Net-(D46-A)*
X215988004Y-168801996D02*
X213587500Y-171202500D01*
X220358004Y-168801996D02*
X215988004Y-168801996D01*
G04 #@! TO.N,Net-(D28-A)*
X186068004Y-134511996D02*
X181698004Y-134511996D01*
X181698004Y-134511996D02*
X179297500Y-136912500D01*
G04 #@! TO.N,Net-(D40-A)*
X203213004Y-203091996D02*
X198843004Y-203091996D01*
X198843004Y-203091996D02*
X196442500Y-205492500D01*
G04 #@! TO.N,Net-(D30-A)*
X181698004Y-168801996D02*
X179297500Y-171202500D01*
X186068004Y-168801996D02*
X181698004Y-168801996D01*
G04 #@! TO.N,Net-(D2-A)*
X134633004Y-100221996D02*
X130263004Y-100221996D01*
X130263004Y-100221996D02*
X127792500Y-102692500D01*
G04 #@! TD*
M02*
