%TF.GenerationSoftware,KiCad,Pcbnew,10.0.3*%
%TF.CreationDate,2026-06-11T15:09:37-04:00*%
%TF.ProjectId,magnetic-chess-board,6d61676e-6574-4696-932d-63686573732d,rev?*%
%TF.SameCoordinates,Original*%
%TF.FileFunction,Drillmap*%
%TF.FilePolarity,Positive*%
%FSLAX45Y45*%
G04 Gerber Fmt 4.5, Leading zero omitted, Abs format (unit mm)*
G04 Created by KiCad (PCBNEW 10.0.3) date 2026-06-11 15:09:37*
%MOMM*%
%LPD*%
G01*
G04 APERTURE LIST*
%ADD10C,0.100000*%
%ADD11C,0.200000*%
%ADD12C,0.105000*%
%ADD13C,0.110000*%
G04 APERTURE END LIST*
D10*
X10645000Y-6102000D02*
X10645000Y-6102000D01*
G75*
G02*
X11145000Y-5602000I500000J0D01*
G01*
X30855000Y-5602000D01*
G75*
G02*
X31355000Y-6102000I0J-500000D01*
G01*
X31355000Y-23898000D01*
G75*
G02*
X30855000Y-24398000I-500000J0D01*
G01*
X11145000Y-24398000D01*
G75*
G02*
X10645000Y-23898000I0J500000D01*
G01*
X10645000Y-6102000D01*
D11*
D10*
X25663632Y-10400632D02*
X25693632Y-10430632D01*
X25693632Y-10400632D02*
X25663632Y-10430632D01*
X26097250Y-15330250D02*
X26127250Y-15360250D01*
X26127250Y-15330250D02*
X26097250Y-15360250D01*
X26112250Y-8716250D02*
X26142250Y-8746250D01*
X26142250Y-8716250D02*
X26112250Y-8746250D01*
X28321250Y-12707250D02*
X28351250Y-12737250D01*
X28351250Y-12707250D02*
X28321250Y-12737250D01*
X30410250Y-12000250D02*
X30440250Y-12030250D01*
X30440250Y-12000250D02*
X30410250Y-12030250D01*
X30610250Y-20724250D02*
X30640250Y-20754250D01*
X30640250Y-20724250D02*
X30610250Y-20754250D01*
X30833250Y-11433250D02*
X30863250Y-11463250D01*
X30863250Y-11433250D02*
X30833250Y-11463250D01*
X30840250Y-11625250D02*
X30870250Y-11655250D01*
X30870250Y-11625250D02*
X30840250Y-11655250D01*
X30913250Y-11685250D02*
X30943250Y-11715250D01*
X30943250Y-11685250D02*
X30913250Y-11715250D01*
X30999250Y-11745250D02*
X31029250Y-11775250D01*
X31029250Y-11745250D02*
X30999250Y-11775250D01*
X31089250Y-11795250D02*
X31119250Y-11825250D01*
X31119250Y-11795250D02*
X31089250Y-11825250D01*
X31199250Y-16016250D02*
X31229250Y-16046250D01*
X31229250Y-16016250D02*
X31199250Y-16046250D01*
X12057250Y-8556250D02*
G75*
G02*
X11977250Y-8556250I-40000J0D01*
G01*
X11977250Y-8556250D02*
G75*
G02*
X12057250Y-8556250I40000J0D01*
G01*
X12057250Y-10269250D02*
G75*
G02*
X11977250Y-10269250I-40000J0D01*
G01*
X11977250Y-10269250D02*
G75*
G02*
X12057250Y-10269250I40000J0D01*
G01*
X12059250Y-15407250D02*
G75*
G02*
X11979250Y-15407250I-40000J0D01*
G01*
X11979250Y-15407250D02*
G75*
G02*
X12059250Y-15407250I40000J0D01*
G01*
X12060250Y-11980250D02*
G75*
G02*
X11980250Y-11980250I-40000J0D01*
G01*
X11980250Y-11980250D02*
G75*
G02*
X12060250Y-11980250I40000J0D01*
G01*
X12060250Y-13693250D02*
G75*
G02*
X11980250Y-13693250I-40000J0D01*
G01*
X11980250Y-13693250D02*
G75*
G02*
X12060250Y-13693250I40000J0D01*
G01*
X12064250Y-17120250D02*
G75*
G02*
X11984250Y-17120250I-40000J0D01*
G01*
X11984250Y-17120250D02*
G75*
G02*
X12064250Y-17120250I40000J0D01*
G01*
X12064250Y-18834750D02*
G75*
G02*
X11984250Y-18834750I-40000J0D01*
G01*
X11984250Y-18834750D02*
G75*
G02*
X12064250Y-18834750I40000J0D01*
G01*
X12064250Y-20549250D02*
G75*
G02*
X11984250Y-20549250I-40000J0D01*
G01*
X11984250Y-20549250D02*
G75*
G02*
X12064250Y-20549250I40000J0D01*
G01*
X12819250Y-8556250D02*
G75*
G02*
X12739250Y-8556250I-40000J0D01*
G01*
X12739250Y-8556250D02*
G75*
G02*
X12819250Y-8556250I40000J0D01*
G01*
X12819250Y-10269250D02*
G75*
G02*
X12739250Y-10269250I-40000J0D01*
G01*
X12739250Y-10269250D02*
G75*
G02*
X12819250Y-10269250I40000J0D01*
G01*
X12821250Y-15407250D02*
G75*
G02*
X12741250Y-15407250I-40000J0D01*
G01*
X12741250Y-15407250D02*
G75*
G02*
X12821250Y-15407250I40000J0D01*
G01*
X12822250Y-11980250D02*
G75*
G02*
X12742250Y-11980250I-40000J0D01*
G01*
X12742250Y-11980250D02*
G75*
G02*
X12822250Y-11980250I40000J0D01*
G01*
X12822250Y-13693250D02*
G75*
G02*
X12742250Y-13693250I-40000J0D01*
G01*
X12742250Y-13693250D02*
G75*
G02*
X12822250Y-13693250I40000J0D01*
G01*
X12826250Y-17120250D02*
G75*
G02*
X12746250Y-17120250I-40000J0D01*
G01*
X12746250Y-17120250D02*
G75*
G02*
X12826250Y-17120250I40000J0D01*
G01*
X12826250Y-18834750D02*
G75*
G02*
X12746250Y-18834750I-40000J0D01*
G01*
X12746250Y-18834750D02*
G75*
G02*
X12826250Y-18834750I40000J0D01*
G01*
X12826250Y-20549250D02*
G75*
G02*
X12746250Y-20549250I-40000J0D01*
G01*
X12746250Y-20549250D02*
G75*
G02*
X12826250Y-20549250I40000J0D01*
G01*
X13771750Y-17117750D02*
G75*
G02*
X13691750Y-17117750I-40000J0D01*
G01*
X13691750Y-17117750D02*
G75*
G02*
X13771750Y-17117750I40000J0D01*
G01*
X13778750Y-8547750D02*
G75*
G02*
X13698750Y-8547750I-40000J0D01*
G01*
X13698750Y-8547750D02*
G75*
G02*
X13778750Y-8547750I40000J0D01*
G01*
X13778750Y-10262250D02*
G75*
G02*
X13698750Y-10262250I-40000J0D01*
G01*
X13698750Y-10262250D02*
G75*
G02*
X13778750Y-10262250I40000J0D01*
G01*
X13778750Y-11976750D02*
G75*
G02*
X13698750Y-11976750I-40000J0D01*
G01*
X13698750Y-11976750D02*
G75*
G02*
X13778750Y-11976750I40000J0D01*
G01*
X13778750Y-13691250D02*
G75*
G02*
X13698750Y-13691250I-40000J0D01*
G01*
X13698750Y-13691250D02*
G75*
G02*
X13778750Y-13691250I40000J0D01*
G01*
X13778750Y-15405750D02*
G75*
G02*
X13698750Y-15405750I-40000J0D01*
G01*
X13698750Y-15405750D02*
G75*
G02*
X13778750Y-15405750I40000J0D01*
G01*
X13778750Y-18834750D02*
G75*
G02*
X13698750Y-18834750I-40000J0D01*
G01*
X13698750Y-18834750D02*
G75*
G02*
X13778750Y-18834750I40000J0D01*
G01*
X13778750Y-20549250D02*
G75*
G02*
X13698750Y-20549250I-40000J0D01*
G01*
X13698750Y-20549250D02*
G75*
G02*
X13778750Y-20549250I40000J0D01*
G01*
X14533750Y-17117750D02*
G75*
G02*
X14453750Y-17117750I-40000J0D01*
G01*
X14453750Y-17117750D02*
G75*
G02*
X14533750Y-17117750I40000J0D01*
G01*
X14540750Y-8547750D02*
G75*
G02*
X14460750Y-8547750I-40000J0D01*
G01*
X14460750Y-8547750D02*
G75*
G02*
X14540750Y-8547750I40000J0D01*
G01*
X14540750Y-10262250D02*
G75*
G02*
X14460750Y-10262250I-40000J0D01*
G01*
X14460750Y-10262250D02*
G75*
G02*
X14540750Y-10262250I40000J0D01*
G01*
X14540750Y-11976750D02*
G75*
G02*
X14460750Y-11976750I-40000J0D01*
G01*
X14460750Y-11976750D02*
G75*
G02*
X14540750Y-11976750I40000J0D01*
G01*
X14540750Y-13691250D02*
G75*
G02*
X14460750Y-13691250I-40000J0D01*
G01*
X14460750Y-13691250D02*
G75*
G02*
X14540750Y-13691250I40000J0D01*
G01*
X14540750Y-15405750D02*
G75*
G02*
X14460750Y-15405750I-40000J0D01*
G01*
X14460750Y-15405750D02*
G75*
G02*
X14540750Y-15405750I40000J0D01*
G01*
X14540750Y-18834750D02*
G75*
G02*
X14460750Y-18834750I-40000J0D01*
G01*
X14460750Y-18834750D02*
G75*
G02*
X14540750Y-18834750I40000J0D01*
G01*
X14540750Y-20549250D02*
G75*
G02*
X14460750Y-20549250I-40000J0D01*
G01*
X14460750Y-20549250D02*
G75*
G02*
X14540750Y-20549250I40000J0D01*
G01*
X15493250Y-8547750D02*
G75*
G02*
X15413250Y-8547750I-40000J0D01*
G01*
X15413250Y-8547750D02*
G75*
G02*
X15493250Y-8547750I40000J0D01*
G01*
X15493250Y-10262250D02*
G75*
G02*
X15413250Y-10262250I-40000J0D01*
G01*
X15413250Y-10262250D02*
G75*
G02*
X15493250Y-10262250I40000J0D01*
G01*
X15493250Y-11976750D02*
G75*
G02*
X15413250Y-11976750I-40000J0D01*
G01*
X15413250Y-11976750D02*
G75*
G02*
X15493250Y-11976750I40000J0D01*
G01*
X15493250Y-13691250D02*
G75*
G02*
X15413250Y-13691250I-40000J0D01*
G01*
X15413250Y-13691250D02*
G75*
G02*
X15493250Y-13691250I40000J0D01*
G01*
X15493250Y-15405750D02*
G75*
G02*
X15413250Y-15405750I-40000J0D01*
G01*
X15413250Y-15405750D02*
G75*
G02*
X15493250Y-15405750I40000J0D01*
G01*
X15493250Y-17120250D02*
G75*
G02*
X15413250Y-17120250I-40000J0D01*
G01*
X15413250Y-17120250D02*
G75*
G02*
X15493250Y-17120250I40000J0D01*
G01*
X15493250Y-18834750D02*
G75*
G02*
X15413250Y-18834750I-40000J0D01*
G01*
X15413250Y-18834750D02*
G75*
G02*
X15493250Y-18834750I40000J0D01*
G01*
X15493250Y-20549250D02*
G75*
G02*
X15413250Y-20549250I-40000J0D01*
G01*
X15413250Y-20549250D02*
G75*
G02*
X15493250Y-20549250I40000J0D01*
G01*
X16255250Y-8547750D02*
G75*
G02*
X16175250Y-8547750I-40000J0D01*
G01*
X16175250Y-8547750D02*
G75*
G02*
X16255250Y-8547750I40000J0D01*
G01*
X16255250Y-10262250D02*
G75*
G02*
X16175250Y-10262250I-40000J0D01*
G01*
X16175250Y-10262250D02*
G75*
G02*
X16255250Y-10262250I40000J0D01*
G01*
X16255250Y-11976750D02*
G75*
G02*
X16175250Y-11976750I-40000J0D01*
G01*
X16175250Y-11976750D02*
G75*
G02*
X16255250Y-11976750I40000J0D01*
G01*
X16255250Y-13691250D02*
G75*
G02*
X16175250Y-13691250I-40000J0D01*
G01*
X16175250Y-13691250D02*
G75*
G02*
X16255250Y-13691250I40000J0D01*
G01*
X16255250Y-15405750D02*
G75*
G02*
X16175250Y-15405750I-40000J0D01*
G01*
X16175250Y-15405750D02*
G75*
G02*
X16255250Y-15405750I40000J0D01*
G01*
X16255250Y-17120250D02*
G75*
G02*
X16175250Y-17120250I-40000J0D01*
G01*
X16175250Y-17120250D02*
G75*
G02*
X16255250Y-17120250I40000J0D01*
G01*
X16255250Y-18834750D02*
G75*
G02*
X16175250Y-18834750I-40000J0D01*
G01*
X16175250Y-18834750D02*
G75*
G02*
X16255250Y-18834750I40000J0D01*
G01*
X16255250Y-20549250D02*
G75*
G02*
X16175250Y-20549250I-40000J0D01*
G01*
X16175250Y-20549250D02*
G75*
G02*
X16255250Y-20549250I40000J0D01*
G01*
X17207750Y-8547750D02*
G75*
G02*
X17127750Y-8547750I-40000J0D01*
G01*
X17127750Y-8547750D02*
G75*
G02*
X17207750Y-8547750I40000J0D01*
G01*
X17207750Y-10262250D02*
G75*
G02*
X17127750Y-10262250I-40000J0D01*
G01*
X17127750Y-10262250D02*
G75*
G02*
X17207750Y-10262250I40000J0D01*
G01*
X17207750Y-11976750D02*
G75*
G02*
X17127750Y-11976750I-40000J0D01*
G01*
X17127750Y-11976750D02*
G75*
G02*
X17207750Y-11976750I40000J0D01*
G01*
X17207750Y-13691250D02*
G75*
G02*
X17127750Y-13691250I-40000J0D01*
G01*
X17127750Y-13691250D02*
G75*
G02*
X17207750Y-13691250I40000J0D01*
G01*
X17207750Y-15405750D02*
G75*
G02*
X17127750Y-15405750I-40000J0D01*
G01*
X17127750Y-15405750D02*
G75*
G02*
X17207750Y-15405750I40000J0D01*
G01*
X17207750Y-17120250D02*
G75*
G02*
X17127750Y-17120250I-40000J0D01*
G01*
X17127750Y-17120250D02*
G75*
G02*
X17207750Y-17120250I40000J0D01*
G01*
X17207750Y-18834750D02*
G75*
G02*
X17127750Y-18834750I-40000J0D01*
G01*
X17127750Y-18834750D02*
G75*
G02*
X17207750Y-18834750I40000J0D01*
G01*
X17207750Y-20549250D02*
G75*
G02*
X17127750Y-20549250I-40000J0D01*
G01*
X17127750Y-20549250D02*
G75*
G02*
X17207750Y-20549250I40000J0D01*
G01*
X17969750Y-8547750D02*
G75*
G02*
X17889750Y-8547750I-40000J0D01*
G01*
X17889750Y-8547750D02*
G75*
G02*
X17969750Y-8547750I40000J0D01*
G01*
X17969750Y-10262250D02*
G75*
G02*
X17889750Y-10262250I-40000J0D01*
G01*
X17889750Y-10262250D02*
G75*
G02*
X17969750Y-10262250I40000J0D01*
G01*
X17969750Y-11976750D02*
G75*
G02*
X17889750Y-11976750I-40000J0D01*
G01*
X17889750Y-11976750D02*
G75*
G02*
X17969750Y-11976750I40000J0D01*
G01*
X17969750Y-13691250D02*
G75*
G02*
X17889750Y-13691250I-40000J0D01*
G01*
X17889750Y-13691250D02*
G75*
G02*
X17969750Y-13691250I40000J0D01*
G01*
X17969750Y-15405750D02*
G75*
G02*
X17889750Y-15405750I-40000J0D01*
G01*
X17889750Y-15405750D02*
G75*
G02*
X17969750Y-15405750I40000J0D01*
G01*
X17969750Y-17120250D02*
G75*
G02*
X17889750Y-17120250I-40000J0D01*
G01*
X17889750Y-17120250D02*
G75*
G02*
X17969750Y-17120250I40000J0D01*
G01*
X17969750Y-18834750D02*
G75*
G02*
X17889750Y-18834750I-40000J0D01*
G01*
X17889750Y-18834750D02*
G75*
G02*
X17969750Y-18834750I40000J0D01*
G01*
X17969750Y-20549250D02*
G75*
G02*
X17889750Y-20549250I-40000J0D01*
G01*
X17889750Y-20549250D02*
G75*
G02*
X17969750Y-20549250I40000J0D01*
G01*
X18922250Y-8547750D02*
G75*
G02*
X18842250Y-8547750I-40000J0D01*
G01*
X18842250Y-8547750D02*
G75*
G02*
X18922250Y-8547750I40000J0D01*
G01*
X18922250Y-10262250D02*
G75*
G02*
X18842250Y-10262250I-40000J0D01*
G01*
X18842250Y-10262250D02*
G75*
G02*
X18922250Y-10262250I40000J0D01*
G01*
X18922250Y-11976750D02*
G75*
G02*
X18842250Y-11976750I-40000J0D01*
G01*
X18842250Y-11976750D02*
G75*
G02*
X18922250Y-11976750I40000J0D01*
G01*
X18922250Y-13691250D02*
G75*
G02*
X18842250Y-13691250I-40000J0D01*
G01*
X18842250Y-13691250D02*
G75*
G02*
X18922250Y-13691250I40000J0D01*
G01*
X18922250Y-15405750D02*
G75*
G02*
X18842250Y-15405750I-40000J0D01*
G01*
X18842250Y-15405750D02*
G75*
G02*
X18922250Y-15405750I40000J0D01*
G01*
X18922250Y-17120250D02*
G75*
G02*
X18842250Y-17120250I-40000J0D01*
G01*
X18842250Y-17120250D02*
G75*
G02*
X18922250Y-17120250I40000J0D01*
G01*
X18922250Y-18834750D02*
G75*
G02*
X18842250Y-18834750I-40000J0D01*
G01*
X18842250Y-18834750D02*
G75*
G02*
X18922250Y-18834750I40000J0D01*
G01*
X18922250Y-20549250D02*
G75*
G02*
X18842250Y-20549250I-40000J0D01*
G01*
X18842250Y-20549250D02*
G75*
G02*
X18922250Y-20549250I40000J0D01*
G01*
X19684250Y-8547750D02*
G75*
G02*
X19604250Y-8547750I-40000J0D01*
G01*
X19604250Y-8547750D02*
G75*
G02*
X19684250Y-8547750I40000J0D01*
G01*
X19684250Y-10262250D02*
G75*
G02*
X19604250Y-10262250I-40000J0D01*
G01*
X19604250Y-10262250D02*
G75*
G02*
X19684250Y-10262250I40000J0D01*
G01*
X19684250Y-11976750D02*
G75*
G02*
X19604250Y-11976750I-40000J0D01*
G01*
X19604250Y-11976750D02*
G75*
G02*
X19684250Y-11976750I40000J0D01*
G01*
X19684250Y-13691250D02*
G75*
G02*
X19604250Y-13691250I-40000J0D01*
G01*
X19604250Y-13691250D02*
G75*
G02*
X19684250Y-13691250I40000J0D01*
G01*
X19684250Y-15405750D02*
G75*
G02*
X19604250Y-15405750I-40000J0D01*
G01*
X19604250Y-15405750D02*
G75*
G02*
X19684250Y-15405750I40000J0D01*
G01*
X19684250Y-17120250D02*
G75*
G02*
X19604250Y-17120250I-40000J0D01*
G01*
X19604250Y-17120250D02*
G75*
G02*
X19684250Y-17120250I40000J0D01*
G01*
X19684250Y-18834750D02*
G75*
G02*
X19604250Y-18834750I-40000J0D01*
G01*
X19604250Y-18834750D02*
G75*
G02*
X19684250Y-18834750I40000J0D01*
G01*
X19684250Y-20549250D02*
G75*
G02*
X19604250Y-20549250I-40000J0D01*
G01*
X19604250Y-20549250D02*
G75*
G02*
X19684250Y-20549250I40000J0D01*
G01*
X20636750Y-8547750D02*
G75*
G02*
X20556750Y-8547750I-40000J0D01*
G01*
X20556750Y-8547750D02*
G75*
G02*
X20636750Y-8547750I40000J0D01*
G01*
X20636750Y-10262250D02*
G75*
G02*
X20556750Y-10262250I-40000J0D01*
G01*
X20556750Y-10262250D02*
G75*
G02*
X20636750Y-10262250I40000J0D01*
G01*
X20636750Y-11976750D02*
G75*
G02*
X20556750Y-11976750I-40000J0D01*
G01*
X20556750Y-11976750D02*
G75*
G02*
X20636750Y-11976750I40000J0D01*
G01*
X20636750Y-13691250D02*
G75*
G02*
X20556750Y-13691250I-40000J0D01*
G01*
X20556750Y-13691250D02*
G75*
G02*
X20636750Y-13691250I40000J0D01*
G01*
X20636750Y-15405750D02*
G75*
G02*
X20556750Y-15405750I-40000J0D01*
G01*
X20556750Y-15405750D02*
G75*
G02*
X20636750Y-15405750I40000J0D01*
G01*
X20636750Y-17120250D02*
G75*
G02*
X20556750Y-17120250I-40000J0D01*
G01*
X20556750Y-17120250D02*
G75*
G02*
X20636750Y-17120250I40000J0D01*
G01*
X20636750Y-18834750D02*
G75*
G02*
X20556750Y-18834750I-40000J0D01*
G01*
X20556750Y-18834750D02*
G75*
G02*
X20636750Y-18834750I40000J0D01*
G01*
X20636750Y-20549250D02*
G75*
G02*
X20556750Y-20549250I-40000J0D01*
G01*
X20556750Y-20549250D02*
G75*
G02*
X20636750Y-20549250I40000J0D01*
G01*
X21398750Y-8547750D02*
G75*
G02*
X21318750Y-8547750I-40000J0D01*
G01*
X21318750Y-8547750D02*
G75*
G02*
X21398750Y-8547750I40000J0D01*
G01*
X21398750Y-10262250D02*
G75*
G02*
X21318750Y-10262250I-40000J0D01*
G01*
X21318750Y-10262250D02*
G75*
G02*
X21398750Y-10262250I40000J0D01*
G01*
X21398750Y-11976750D02*
G75*
G02*
X21318750Y-11976750I-40000J0D01*
G01*
X21318750Y-11976750D02*
G75*
G02*
X21398750Y-11976750I40000J0D01*
G01*
X21398750Y-13691250D02*
G75*
G02*
X21318750Y-13691250I-40000J0D01*
G01*
X21318750Y-13691250D02*
G75*
G02*
X21398750Y-13691250I40000J0D01*
G01*
X21398750Y-15405750D02*
G75*
G02*
X21318750Y-15405750I-40000J0D01*
G01*
X21318750Y-15405750D02*
G75*
G02*
X21398750Y-15405750I40000J0D01*
G01*
X21398750Y-17120250D02*
G75*
G02*
X21318750Y-17120250I-40000J0D01*
G01*
X21318750Y-17120250D02*
G75*
G02*
X21398750Y-17120250I40000J0D01*
G01*
X21398750Y-18834750D02*
G75*
G02*
X21318750Y-18834750I-40000J0D01*
G01*
X21318750Y-18834750D02*
G75*
G02*
X21398750Y-18834750I40000J0D01*
G01*
X21398750Y-20549250D02*
G75*
G02*
X21318750Y-20549250I-40000J0D01*
G01*
X21318750Y-20549250D02*
G75*
G02*
X21398750Y-20549250I40000J0D01*
G01*
X22351250Y-8547750D02*
G75*
G02*
X22271250Y-8547750I-40000J0D01*
G01*
X22271250Y-8547750D02*
G75*
G02*
X22351250Y-8547750I40000J0D01*
G01*
X22351250Y-10262250D02*
G75*
G02*
X22271250Y-10262250I-40000J0D01*
G01*
X22271250Y-10262250D02*
G75*
G02*
X22351250Y-10262250I40000J0D01*
G01*
X22351250Y-11976750D02*
G75*
G02*
X22271250Y-11976750I-40000J0D01*
G01*
X22271250Y-11976750D02*
G75*
G02*
X22351250Y-11976750I40000J0D01*
G01*
X22351250Y-13691250D02*
G75*
G02*
X22271250Y-13691250I-40000J0D01*
G01*
X22271250Y-13691250D02*
G75*
G02*
X22351250Y-13691250I40000J0D01*
G01*
X22351250Y-15405750D02*
G75*
G02*
X22271250Y-15405750I-40000J0D01*
G01*
X22271250Y-15405750D02*
G75*
G02*
X22351250Y-15405750I40000J0D01*
G01*
X22351250Y-17120250D02*
G75*
G02*
X22271250Y-17120250I-40000J0D01*
G01*
X22271250Y-17120250D02*
G75*
G02*
X22351250Y-17120250I40000J0D01*
G01*
X22351250Y-18834750D02*
G75*
G02*
X22271250Y-18834750I-40000J0D01*
G01*
X22271250Y-18834750D02*
G75*
G02*
X22351250Y-18834750I40000J0D01*
G01*
X22351250Y-20549250D02*
G75*
G02*
X22271250Y-20549250I-40000J0D01*
G01*
X22271250Y-20549250D02*
G75*
G02*
X22351250Y-20549250I40000J0D01*
G01*
X23113250Y-8547750D02*
G75*
G02*
X23033250Y-8547750I-40000J0D01*
G01*
X23033250Y-8547750D02*
G75*
G02*
X23113250Y-8547750I40000J0D01*
G01*
X23113250Y-10262250D02*
G75*
G02*
X23033250Y-10262250I-40000J0D01*
G01*
X23033250Y-10262250D02*
G75*
G02*
X23113250Y-10262250I40000J0D01*
G01*
X23113250Y-11976750D02*
G75*
G02*
X23033250Y-11976750I-40000J0D01*
G01*
X23033250Y-11976750D02*
G75*
G02*
X23113250Y-11976750I40000J0D01*
G01*
X23113250Y-13691250D02*
G75*
G02*
X23033250Y-13691250I-40000J0D01*
G01*
X23033250Y-13691250D02*
G75*
G02*
X23113250Y-13691250I40000J0D01*
G01*
X23113250Y-15405750D02*
G75*
G02*
X23033250Y-15405750I-40000J0D01*
G01*
X23033250Y-15405750D02*
G75*
G02*
X23113250Y-15405750I40000J0D01*
G01*
X23113250Y-17120250D02*
G75*
G02*
X23033250Y-17120250I-40000J0D01*
G01*
X23033250Y-17120250D02*
G75*
G02*
X23113250Y-17120250I40000J0D01*
G01*
X23113250Y-18834750D02*
G75*
G02*
X23033250Y-18834750I-40000J0D01*
G01*
X23033250Y-18834750D02*
G75*
G02*
X23113250Y-18834750I40000J0D01*
G01*
X23113250Y-20549250D02*
G75*
G02*
X23033250Y-20549250I-40000J0D01*
G01*
X23033250Y-20549250D02*
G75*
G02*
X23113250Y-20549250I40000J0D01*
G01*
X24065750Y-8547750D02*
G75*
G02*
X23985750Y-8547750I-40000J0D01*
G01*
X23985750Y-8547750D02*
G75*
G02*
X24065750Y-8547750I40000J0D01*
G01*
X24065750Y-10262250D02*
G75*
G02*
X23985750Y-10262250I-40000J0D01*
G01*
X23985750Y-10262250D02*
G75*
G02*
X24065750Y-10262250I40000J0D01*
G01*
X24065750Y-11976750D02*
G75*
G02*
X23985750Y-11976750I-40000J0D01*
G01*
X23985750Y-11976750D02*
G75*
G02*
X24065750Y-11976750I40000J0D01*
G01*
X24065750Y-13691250D02*
G75*
G02*
X23985750Y-13691250I-40000J0D01*
G01*
X23985750Y-13691250D02*
G75*
G02*
X24065750Y-13691250I40000J0D01*
G01*
X24065750Y-15405750D02*
G75*
G02*
X23985750Y-15405750I-40000J0D01*
G01*
X23985750Y-15405750D02*
G75*
G02*
X24065750Y-15405750I40000J0D01*
G01*
X24065750Y-17120250D02*
G75*
G02*
X23985750Y-17120250I-40000J0D01*
G01*
X23985750Y-17120250D02*
G75*
G02*
X24065750Y-17120250I40000J0D01*
G01*
X24065750Y-18834750D02*
G75*
G02*
X23985750Y-18834750I-40000J0D01*
G01*
X23985750Y-18834750D02*
G75*
G02*
X24065750Y-18834750I40000J0D01*
G01*
X24065750Y-20549250D02*
G75*
G02*
X23985750Y-20549250I-40000J0D01*
G01*
X23985750Y-20549250D02*
G75*
G02*
X24065750Y-20549250I40000J0D01*
G01*
X24827750Y-8547750D02*
G75*
G02*
X24747750Y-8547750I-40000J0D01*
G01*
X24747750Y-8547750D02*
G75*
G02*
X24827750Y-8547750I40000J0D01*
G01*
X24827750Y-10262250D02*
G75*
G02*
X24747750Y-10262250I-40000J0D01*
G01*
X24747750Y-10262250D02*
G75*
G02*
X24827750Y-10262250I40000J0D01*
G01*
X24827750Y-11976750D02*
G75*
G02*
X24747750Y-11976750I-40000J0D01*
G01*
X24747750Y-11976750D02*
G75*
G02*
X24827750Y-11976750I40000J0D01*
G01*
X24827750Y-13691250D02*
G75*
G02*
X24747750Y-13691250I-40000J0D01*
G01*
X24747750Y-13691250D02*
G75*
G02*
X24827750Y-13691250I40000J0D01*
G01*
X24827750Y-15405750D02*
G75*
G02*
X24747750Y-15405750I-40000J0D01*
G01*
X24747750Y-15405750D02*
G75*
G02*
X24827750Y-15405750I40000J0D01*
G01*
X24827750Y-17120250D02*
G75*
G02*
X24747750Y-17120250I-40000J0D01*
G01*
X24747750Y-17120250D02*
G75*
G02*
X24827750Y-17120250I40000J0D01*
G01*
X24827750Y-18834750D02*
G75*
G02*
X24747750Y-18834750I-40000J0D01*
G01*
X24747750Y-18834750D02*
G75*
G02*
X24827750Y-18834750I40000J0D01*
G01*
X24827750Y-20549250D02*
G75*
G02*
X24747750Y-20549250I-40000J0D01*
G01*
X24747750Y-20549250D02*
G75*
G02*
X24827750Y-20549250I40000J0D01*
G01*
X12080200Y-9648280D02*
X12080200Y-9739720D01*
X12034480Y-9694000D02*
X12125920Y-9694000D01*
X12080200Y-11359580D02*
X12080200Y-11451020D01*
X12034480Y-11405300D02*
X12125920Y-11405300D01*
X12080200Y-13074080D02*
X12080200Y-13165520D01*
X12034480Y-13119800D02*
X12125920Y-13119800D01*
X12080200Y-14788580D02*
X12080200Y-14880020D01*
X12034480Y-14834300D02*
X12125920Y-14834300D01*
X12080200Y-16503080D02*
X12080200Y-16594520D01*
X12034480Y-16548800D02*
X12125920Y-16548800D01*
X12080200Y-18217580D02*
X12080200Y-18309020D01*
X12034480Y-18263300D02*
X12125920Y-18263300D01*
X12080200Y-19932080D02*
X12080200Y-20023520D01*
X12034480Y-19977800D02*
X12125920Y-19977800D01*
X12080200Y-21646580D02*
X12080200Y-21738020D01*
X12034480Y-21692300D02*
X12125920Y-21692300D01*
X13463300Y-8265179D02*
X13463300Y-8356619D01*
X13417580Y-8310899D02*
X13509020Y-8310899D01*
X13463300Y-9976480D02*
X13463300Y-10067920D01*
X13417580Y-10022200D02*
X13509020Y-10022200D01*
X13463300Y-11690980D02*
X13463300Y-11782420D01*
X13417580Y-11736700D02*
X13509020Y-11736700D01*
X13463300Y-13405480D02*
X13463300Y-13496920D01*
X13417580Y-13451200D02*
X13509020Y-13451200D01*
X13463300Y-15119980D02*
X13463300Y-15211420D01*
X13417580Y-15165700D02*
X13509020Y-15165700D01*
X13463300Y-16834480D02*
X13463300Y-16925920D01*
X13417580Y-16880200D02*
X13509020Y-16880200D01*
X13463300Y-18548980D02*
X13463300Y-18640420D01*
X13417580Y-18594700D02*
X13509020Y-18594700D01*
X13463300Y-20263480D02*
X13463300Y-20354920D01*
X13417580Y-20309200D02*
X13509020Y-20309200D01*
X13794700Y-9645080D02*
X13794700Y-9736520D01*
X13748980Y-9690800D02*
X13840420Y-9690800D01*
X13794700Y-11359580D02*
X13794700Y-11451020D01*
X13748980Y-11405300D02*
X13840420Y-11405300D01*
X13794700Y-14788580D02*
X13794700Y-14880020D01*
X13748980Y-14834300D02*
X13840420Y-14834300D01*
X13794700Y-16503080D02*
X13794700Y-16594520D01*
X13748980Y-16548800D02*
X13840420Y-16548800D01*
X13794700Y-18217580D02*
X13794700Y-18309020D01*
X13748980Y-18263300D02*
X13840420Y-18263300D01*
X13794700Y-19932080D02*
X13794700Y-20023520D01*
X13748980Y-19977800D02*
X13840420Y-19977800D01*
X13794700Y-21646580D02*
X13794700Y-21738020D01*
X13748980Y-21692300D02*
X13840420Y-21692300D01*
X13802831Y-13082212D02*
X13802831Y-13173652D01*
X13757111Y-13127932D02*
X13848551Y-13127932D01*
X15177800Y-8261980D02*
X15177800Y-8353420D01*
X15132080Y-8307700D02*
X15223520Y-8307700D01*
X15177800Y-9976480D02*
X15177800Y-10067920D01*
X15132080Y-10022200D02*
X15223520Y-10022200D01*
X15177800Y-13405480D02*
X15177800Y-13496920D01*
X15132080Y-13451200D02*
X15223520Y-13451200D01*
X15177800Y-15119980D02*
X15177800Y-15211420D01*
X15132080Y-15165700D02*
X15223520Y-15165700D01*
X15177800Y-16834480D02*
X15177800Y-16925920D01*
X15132080Y-16880200D02*
X15223520Y-16880200D01*
X15177800Y-18548980D02*
X15177800Y-18640420D01*
X15132080Y-18594700D02*
X15223520Y-18594700D01*
X15177800Y-20263480D02*
X15177800Y-20354920D01*
X15132080Y-20309200D02*
X15223520Y-20309200D01*
X15185932Y-11699111D02*
X15185932Y-11790551D01*
X15140212Y-11744831D02*
X15231652Y-11744831D01*
X15509200Y-9645080D02*
X15509200Y-9736520D01*
X15463480Y-9690800D02*
X15554920Y-9690800D01*
X15509200Y-11359580D02*
X15509200Y-11451020D01*
X15463480Y-11405300D02*
X15554920Y-11405300D01*
X15509200Y-13074080D02*
X15509200Y-13165520D01*
X15463480Y-13119800D02*
X15554920Y-13119800D01*
X15509200Y-14788580D02*
X15509200Y-14880020D01*
X15463480Y-14834300D02*
X15554920Y-14834300D01*
X15509200Y-16503080D02*
X15509200Y-16594520D01*
X15463480Y-16548800D02*
X15554920Y-16548800D01*
X15509200Y-18217580D02*
X15509200Y-18309020D01*
X15463480Y-18263300D02*
X15554920Y-18263300D01*
X15509200Y-19932080D02*
X15509200Y-20023520D01*
X15463480Y-19977800D02*
X15554920Y-19977800D01*
X15509200Y-21646580D02*
X15509200Y-21738020D01*
X15463480Y-21692300D02*
X15554920Y-21692300D01*
X16892300Y-8261980D02*
X16892300Y-8353420D01*
X16846580Y-8307700D02*
X16938020Y-8307700D01*
X16892300Y-9976480D02*
X16892300Y-10067920D01*
X16846580Y-10022200D02*
X16938020Y-10022200D01*
X16892300Y-11690980D02*
X16892300Y-11782420D01*
X16846580Y-11736700D02*
X16938020Y-11736700D01*
X16892300Y-13405480D02*
X16892300Y-13496920D01*
X16846580Y-13451200D02*
X16938020Y-13451200D01*
X16892300Y-15119980D02*
X16892300Y-15211420D01*
X16846580Y-15165700D02*
X16938020Y-15165700D01*
X16892300Y-16834480D02*
X16892300Y-16925920D01*
X16846580Y-16880200D02*
X16938020Y-16880200D01*
X16892300Y-18548980D02*
X16892300Y-18640420D01*
X16846580Y-18594700D02*
X16938020Y-18594700D01*
X16892300Y-20263480D02*
X16892300Y-20354920D01*
X16846580Y-20309200D02*
X16938020Y-20309200D01*
X17223700Y-9645080D02*
X17223700Y-9736520D01*
X17177980Y-9690800D02*
X17269420Y-9690800D01*
X17223700Y-11359580D02*
X17223700Y-11451020D01*
X17177980Y-11405300D02*
X17269420Y-11405300D01*
X17223700Y-13074080D02*
X17223700Y-13165520D01*
X17177980Y-13119800D02*
X17269420Y-13119800D01*
X17223700Y-14788580D02*
X17223700Y-14880020D01*
X17177980Y-14834300D02*
X17269420Y-14834300D01*
X17223700Y-16503080D02*
X17223700Y-16594520D01*
X17177980Y-16548800D02*
X17269420Y-16548800D01*
X17223700Y-18217580D02*
X17223700Y-18309020D01*
X17177980Y-18263300D02*
X17269420Y-18263300D01*
X17223700Y-19932080D02*
X17223700Y-20023520D01*
X17177980Y-19977800D02*
X17269420Y-19977800D01*
X17223700Y-21646580D02*
X17223700Y-21738020D01*
X17177980Y-21692300D02*
X17269420Y-21692300D01*
X18606800Y-8261980D02*
X18606800Y-8353420D01*
X18561080Y-8307700D02*
X18652520Y-8307700D01*
X18606800Y-9976480D02*
X18606800Y-10067920D01*
X18561080Y-10022200D02*
X18652520Y-10022200D01*
X18606800Y-11690980D02*
X18606800Y-11782420D01*
X18561080Y-11736700D02*
X18652520Y-11736700D01*
X18606800Y-13405480D02*
X18606800Y-13496920D01*
X18561080Y-13451200D02*
X18652520Y-13451200D01*
X18606800Y-15119980D02*
X18606800Y-15211420D01*
X18561080Y-15165700D02*
X18652520Y-15165700D01*
X18606800Y-16834480D02*
X18606800Y-16925920D01*
X18561080Y-16880200D02*
X18652520Y-16880200D01*
X18606800Y-18548980D02*
X18606800Y-18640420D01*
X18561080Y-18594700D02*
X18652520Y-18594700D01*
X18606800Y-20263480D02*
X18606800Y-20354920D01*
X18561080Y-20309200D02*
X18652520Y-20309200D01*
X18938200Y-9645080D02*
X18938200Y-9736520D01*
X18892480Y-9690800D02*
X18983920Y-9690800D01*
X18938200Y-11359580D02*
X18938200Y-11451020D01*
X18892480Y-11405300D02*
X18983920Y-11405300D01*
X18938200Y-13074080D02*
X18938200Y-13165520D01*
X18892480Y-13119800D02*
X18983920Y-13119800D01*
X18938200Y-14788580D02*
X18938200Y-14880020D01*
X18892480Y-14834300D02*
X18983920Y-14834300D01*
X18938200Y-16503080D02*
X18938200Y-16594520D01*
X18892480Y-16548800D02*
X18983920Y-16548800D01*
X18938200Y-18217580D02*
X18938200Y-18309020D01*
X18892480Y-18263300D02*
X18983920Y-18263300D01*
X18938200Y-19932080D02*
X18938200Y-20023520D01*
X18892480Y-19977800D02*
X18983920Y-19977800D01*
X18938200Y-21646580D02*
X18938200Y-21738020D01*
X18892480Y-21692300D02*
X18983920Y-21692300D01*
X20321300Y-8261980D02*
X20321300Y-8353420D01*
X20275580Y-8307700D02*
X20367020Y-8307700D01*
X20321300Y-9976480D02*
X20321300Y-10067920D01*
X20275580Y-10022200D02*
X20367020Y-10022200D01*
X20321300Y-11690980D02*
X20321300Y-11782420D01*
X20275580Y-11736700D02*
X20367020Y-11736700D01*
X20321300Y-13405480D02*
X20321300Y-13496920D01*
X20275580Y-13451200D02*
X20367020Y-13451200D01*
X20321300Y-15119980D02*
X20321300Y-15211420D01*
X20275580Y-15165700D02*
X20367020Y-15165700D01*
X20321300Y-16834480D02*
X20321300Y-16925920D01*
X20275580Y-16880200D02*
X20367020Y-16880200D01*
X20321300Y-18548980D02*
X20321300Y-18640420D01*
X20275580Y-18594700D02*
X20367020Y-18594700D01*
X20321300Y-20263480D02*
X20321300Y-20354920D01*
X20275580Y-20309200D02*
X20367020Y-20309200D01*
X20652700Y-9645080D02*
X20652700Y-9736520D01*
X20606980Y-9690800D02*
X20698420Y-9690800D01*
X20652700Y-11359580D02*
X20652700Y-11451020D01*
X20606980Y-11405300D02*
X20698420Y-11405300D01*
X20652700Y-13074080D02*
X20652700Y-13165520D01*
X20606980Y-13119800D02*
X20698420Y-13119800D01*
X20652700Y-14788580D02*
X20652700Y-14880020D01*
X20606980Y-14834300D02*
X20698420Y-14834300D01*
X20652700Y-16503080D02*
X20652700Y-16594520D01*
X20606980Y-16548800D02*
X20698420Y-16548800D01*
X20652700Y-18217580D02*
X20652700Y-18309020D01*
X20606980Y-18263300D02*
X20698420Y-18263300D01*
X20652700Y-19932080D02*
X20652700Y-20023520D01*
X20606980Y-19977800D02*
X20698420Y-19977800D01*
X20652700Y-21646580D02*
X20652700Y-21738020D01*
X20606980Y-21692300D02*
X20698420Y-21692300D01*
X22035800Y-8261980D02*
X22035800Y-8353420D01*
X21990080Y-8307700D02*
X22081520Y-8307700D01*
X22035800Y-9976480D02*
X22035800Y-10067920D01*
X21990080Y-10022200D02*
X22081520Y-10022200D01*
X22035800Y-11690980D02*
X22035800Y-11782420D01*
X21990080Y-11736700D02*
X22081520Y-11736700D01*
X22035800Y-13405480D02*
X22035800Y-13496920D01*
X21990080Y-13451200D02*
X22081520Y-13451200D01*
X22035800Y-15119980D02*
X22035800Y-15211420D01*
X21990080Y-15165700D02*
X22081520Y-15165700D01*
X22035800Y-16834480D02*
X22035800Y-16925920D01*
X21990080Y-16880200D02*
X22081520Y-16880200D01*
X22035800Y-18548980D02*
X22035800Y-18640420D01*
X21990080Y-18594700D02*
X22081520Y-18594700D01*
X22035800Y-20263480D02*
X22035800Y-20354920D01*
X21990080Y-20309200D02*
X22081520Y-20309200D01*
X22367200Y-9645080D02*
X22367200Y-9736520D01*
X22321480Y-9690800D02*
X22412920Y-9690800D01*
X22367200Y-11359580D02*
X22367200Y-11451020D01*
X22321480Y-11405300D02*
X22412920Y-11405300D01*
X22367200Y-13074080D02*
X22367200Y-13165520D01*
X22321480Y-13119800D02*
X22412920Y-13119800D01*
X22367200Y-14788580D02*
X22367200Y-14880020D01*
X22321480Y-14834300D02*
X22412920Y-14834300D01*
X22367200Y-16503080D02*
X22367200Y-16594520D01*
X22321480Y-16548800D02*
X22412920Y-16548800D01*
X22367200Y-18217580D02*
X22367200Y-18309020D01*
X22321480Y-18263300D02*
X22412920Y-18263300D01*
X22367200Y-19932080D02*
X22367200Y-20023520D01*
X22321480Y-19977800D02*
X22412920Y-19977800D01*
X22367200Y-21646580D02*
X22367200Y-21738020D01*
X22321480Y-21692300D02*
X22412920Y-21692300D01*
X23750300Y-8261980D02*
X23750300Y-8353420D01*
X23704580Y-8307700D02*
X23796020Y-8307700D01*
X23750300Y-9976480D02*
X23750300Y-10067920D01*
X23704580Y-10022200D02*
X23796020Y-10022200D01*
X23750300Y-11690980D02*
X23750300Y-11782420D01*
X23704580Y-11736700D02*
X23796020Y-11736700D01*
X23750300Y-13405480D02*
X23750300Y-13496920D01*
X23704580Y-13451200D02*
X23796020Y-13451200D01*
X23750300Y-15119980D02*
X23750300Y-15211420D01*
X23704580Y-15165700D02*
X23796020Y-15165700D01*
X23750300Y-16834480D02*
X23750300Y-16925920D01*
X23704580Y-16880200D02*
X23796020Y-16880200D01*
X23750300Y-18548980D02*
X23750300Y-18640420D01*
X23704580Y-18594700D02*
X23796020Y-18594700D01*
X23750300Y-20263480D02*
X23750300Y-20354920D01*
X23704580Y-20309200D02*
X23796020Y-20309200D01*
X24081700Y-9645080D02*
X24081700Y-9736520D01*
X24035980Y-9690800D02*
X24127420Y-9690800D01*
X24081700Y-11359580D02*
X24081700Y-11451020D01*
X24035980Y-11405300D02*
X24127420Y-11405300D01*
X24081700Y-13074080D02*
X24081700Y-13165520D01*
X24035980Y-13119800D02*
X24127420Y-13119800D01*
X24081700Y-14788580D02*
X24081700Y-14880020D01*
X24035980Y-14834300D02*
X24127420Y-14834300D01*
X24081700Y-16503080D02*
X24081700Y-16594520D01*
X24035980Y-16548800D02*
X24127420Y-16548800D01*
X24081700Y-18217580D02*
X24081700Y-18309020D01*
X24035980Y-18263300D02*
X24127420Y-18263300D01*
X24081700Y-19932080D02*
X24081700Y-20023520D01*
X24035980Y-19977800D02*
X24127420Y-19977800D01*
X24081700Y-21646580D02*
X24081700Y-21738020D01*
X24035980Y-21692300D02*
X24127420Y-21692300D01*
X25464800Y-8261980D02*
X25464800Y-8353420D01*
X25419080Y-8307700D02*
X25510520Y-8307700D01*
X25464800Y-9976480D02*
X25464800Y-10067920D01*
X25419080Y-10022200D02*
X25510520Y-10022200D01*
X25464800Y-11690980D02*
X25464800Y-11782420D01*
X25419080Y-11736700D02*
X25510520Y-11736700D01*
X25464800Y-13405480D02*
X25464800Y-13496920D01*
X25419080Y-13451200D02*
X25510520Y-13451200D01*
X25464800Y-15119980D02*
X25464800Y-15211420D01*
X25419080Y-15165700D02*
X25510520Y-15165700D01*
X25464800Y-16834480D02*
X25464800Y-16925920D01*
X25419080Y-16880200D02*
X25510520Y-16880200D01*
X25464800Y-18548980D02*
X25464800Y-18640420D01*
X25419080Y-18594700D02*
X25510520Y-18594700D01*
X25464800Y-20263480D02*
X25464800Y-20354920D01*
X25419080Y-20309200D02*
X25510520Y-20309200D01*
X28117606Y-13076606D02*
X28117606Y-13005894D01*
X28046894Y-13005894D01*
X28046894Y-13076606D01*
X28117606Y-13076606D01*
X28371606Y-13076606D02*
X28371606Y-13005894D01*
X28300894Y-13005894D01*
X28300894Y-13076606D01*
X28371606Y-13076606D01*
X28625606Y-13076606D02*
X28625606Y-13005894D01*
X28554894Y-13005894D01*
X28554894Y-13076606D01*
X28625606Y-13076606D01*
X28879606Y-13076606D02*
X28879606Y-13005894D01*
X28808894Y-13005894D01*
X28808894Y-13076606D01*
X28879606Y-13076606D01*
D12*
X27499750Y-5936750D02*
X27552250Y-5884250D01*
X27499750Y-5831750D01*
X27447250Y-5884250D01*
X27499750Y-5936750D01*
D10*
X27447250Y-5881750D02*
X27447250Y-5886750D01*
X27552250Y-5886750D02*
G75*
G02*
X27447250Y-5886750I-52500J0D01*
G01*
X27552250Y-5886750D02*
X27552250Y-5881750D01*
X27552250Y-5881750D02*
G75*
G03*
X27447250Y-5881750I-52500J0D01*
G01*
D12*
X27499750Y-6190750D02*
X27552250Y-6138250D01*
X27499750Y-6085750D01*
X27447250Y-6138250D01*
X27499750Y-6190750D01*
D10*
X27447250Y-6135750D02*
X27447250Y-6140750D01*
X27552250Y-6140750D02*
G75*
G02*
X27447250Y-6140750I-52500J0D01*
G01*
X27552250Y-6140750D02*
X27552250Y-6135750D01*
X27552250Y-6135750D02*
G75*
G03*
X27447250Y-6135750I-52500J0D01*
G01*
D13*
X27444750Y-6337250D02*
X27554750Y-6447250D01*
X27554750Y-6337250D02*
X27444750Y-6447250D01*
X27554750Y-6392250D02*
G75*
G02*
X27444750Y-6392250I-55000J0D01*
G01*
X27444750Y-6392250D02*
G75*
G02*
X27554750Y-6392250I55000J0D01*
G01*
X27444750Y-6591250D02*
X27554750Y-6701250D01*
X27554750Y-6591250D02*
X27444750Y-6701250D01*
X27554750Y-6646250D02*
G75*
G02*
X27444750Y-6646250I-55000J0D01*
G01*
X27444750Y-6646250D02*
G75*
G02*
X27554750Y-6646250I55000J0D01*
G01*
X27444750Y-6845250D02*
X27554750Y-6955250D01*
X27554750Y-6845250D02*
X27444750Y-6955250D01*
X27554750Y-6900250D02*
G75*
G02*
X27444750Y-6900250I-55000J0D01*
G01*
X27444750Y-6900250D02*
G75*
G02*
X27554750Y-6900250I55000J0D01*
G01*
X27444750Y-7099250D02*
X27554750Y-7209250D01*
X27554750Y-7099250D02*
X27444750Y-7209250D01*
X27554750Y-7154250D02*
G75*
G02*
X27444750Y-7154250I-55000J0D01*
G01*
X27444750Y-7154250D02*
G75*
G02*
X27554750Y-7154250I55000J0D01*
G01*
X27444750Y-7353250D02*
X27554750Y-7463250D01*
X27554750Y-7353250D02*
X27444750Y-7463250D01*
X27554750Y-7408250D02*
G75*
G02*
X27444750Y-7408250I-55000J0D01*
G01*
X27444750Y-7408250D02*
G75*
G02*
X27554750Y-7408250I55000J0D01*
G01*
X27444750Y-7607250D02*
X27554750Y-7717250D01*
X27554750Y-7607250D02*
X27444750Y-7717250D01*
X27554750Y-7662250D02*
G75*
G02*
X27444750Y-7662250I-55000J0D01*
G01*
X27444750Y-7662250D02*
G75*
G02*
X27554750Y-7662250I55000J0D01*
G01*
X27444750Y-7861250D02*
X27554750Y-7971250D01*
X27554750Y-7861250D02*
X27444750Y-7971250D01*
X27554750Y-7916250D02*
G75*
G02*
X27444750Y-7916250I-55000J0D01*
G01*
X27444750Y-7916250D02*
G75*
G02*
X27554750Y-7916250I55000J0D01*
G01*
X27444750Y-8115250D02*
X27554750Y-8225250D01*
X27554750Y-8115250D02*
X27444750Y-8225250D01*
X27554750Y-8170250D02*
G75*
G02*
X27444750Y-8170250I-55000J0D01*
G01*
X27444750Y-8170250D02*
G75*
G02*
X27554750Y-8170250I55000J0D01*
G01*
X27444750Y-8369250D02*
X27554750Y-8479250D01*
X27554750Y-8369250D02*
X27444750Y-8479250D01*
X27554750Y-8424250D02*
G75*
G02*
X27444750Y-8424250I-55000J0D01*
G01*
X27444750Y-8424250D02*
G75*
G02*
X27554750Y-8424250I55000J0D01*
G01*
X27444750Y-8623250D02*
X27554750Y-8733250D01*
X27554750Y-8623250D02*
X27444750Y-8733250D01*
X27554750Y-8678250D02*
G75*
G02*
X27444750Y-8678250I-55000J0D01*
G01*
X27444750Y-8678250D02*
G75*
G02*
X27554750Y-8678250I55000J0D01*
G01*
X27444750Y-8877250D02*
X27554750Y-8987250D01*
X27554750Y-8877250D02*
X27444750Y-8987250D01*
X27554750Y-8932250D02*
G75*
G02*
X27444750Y-8932250I-55000J0D01*
G01*
X27444750Y-8932250D02*
G75*
G02*
X27554750Y-8932250I55000J0D01*
G01*
X27444750Y-9131250D02*
X27554750Y-9241250D01*
X27554750Y-9131250D02*
X27444750Y-9241250D01*
X27554750Y-9186250D02*
G75*
G02*
X27444750Y-9186250I-55000J0D01*
G01*
X27444750Y-9186250D02*
G75*
G02*
X27554750Y-9186250I55000J0D01*
G01*
X27444750Y-9385250D02*
X27554750Y-9495250D01*
X27554750Y-9385250D02*
X27444750Y-9495250D01*
X27554750Y-9440250D02*
G75*
G02*
X27444750Y-9440250I-55000J0D01*
G01*
X27444750Y-9440250D02*
G75*
G02*
X27554750Y-9440250I55000J0D01*
G01*
X27444750Y-9639250D02*
X27554750Y-9749250D01*
X27554750Y-9639250D02*
X27444750Y-9749250D01*
X27554750Y-9694250D02*
G75*
G02*
X27444750Y-9694250I-55000J0D01*
G01*
X27444750Y-9694250D02*
G75*
G02*
X27554750Y-9694250I55000J0D01*
G01*
X27444750Y-9893250D02*
X27554750Y-10003250D01*
X27554750Y-9893250D02*
X27444750Y-10003250D01*
X27554750Y-9948250D02*
G75*
G02*
X27444750Y-9948250I-55000J0D01*
G01*
X27444750Y-9948250D02*
G75*
G02*
X27554750Y-9948250I55000J0D01*
G01*
X27444750Y-10147250D02*
X27554750Y-10257250D01*
X27554750Y-10147250D02*
X27444750Y-10257250D01*
X27554750Y-10202250D02*
G75*
G02*
X27444750Y-10202250I-55000J0D01*
G01*
X27444750Y-10202250D02*
G75*
G02*
X27554750Y-10202250I55000J0D01*
G01*
X27444750Y-10401250D02*
X27554750Y-10511250D01*
X27554750Y-10401250D02*
X27444750Y-10511250D01*
X27554750Y-10456250D02*
G75*
G02*
X27444750Y-10456250I-55000J0D01*
G01*
X27444750Y-10456250D02*
G75*
G02*
X27554750Y-10456250I55000J0D01*
G01*
X27444750Y-10655250D02*
X27554750Y-10765250D01*
X27554750Y-10655250D02*
X27444750Y-10765250D01*
X27554750Y-10710250D02*
G75*
G02*
X27444750Y-10710250I-55000J0D01*
G01*
X27444750Y-10710250D02*
G75*
G02*
X27554750Y-10710250I55000J0D01*
G01*
X29382750Y-5829250D02*
X29492750Y-5939250D01*
X29492750Y-5829250D02*
X29382750Y-5939250D01*
X29492750Y-5884250D02*
G75*
G02*
X29382750Y-5884250I-55000J0D01*
G01*
X29382750Y-5884250D02*
G75*
G02*
X29492750Y-5884250I55000J0D01*
G01*
X29382750Y-6083250D02*
X29492750Y-6193250D01*
X29492750Y-6083250D02*
X29382750Y-6193250D01*
X29492750Y-6138250D02*
G75*
G02*
X29382750Y-6138250I-55000J0D01*
G01*
X29382750Y-6138250D02*
G75*
G02*
X29492750Y-6138250I55000J0D01*
G01*
X29382750Y-6337250D02*
X29492750Y-6447250D01*
X29492750Y-6337250D02*
X29382750Y-6447250D01*
X29492750Y-6392250D02*
G75*
G02*
X29382750Y-6392250I-55000J0D01*
G01*
X29382750Y-6392250D02*
G75*
G02*
X29492750Y-6392250I55000J0D01*
G01*
X29382750Y-6591250D02*
X29492750Y-6701250D01*
X29492750Y-6591250D02*
X29382750Y-6701250D01*
X29492750Y-6646250D02*
G75*
G02*
X29382750Y-6646250I-55000J0D01*
G01*
X29382750Y-6646250D02*
G75*
G02*
X29492750Y-6646250I55000J0D01*
G01*
X29382750Y-6845250D02*
X29492750Y-6955250D01*
X29492750Y-6845250D02*
X29382750Y-6955250D01*
X29492750Y-6900250D02*
G75*
G02*
X29382750Y-6900250I-55000J0D01*
G01*
X29382750Y-6900250D02*
G75*
G02*
X29492750Y-6900250I55000J0D01*
G01*
X29382750Y-7099250D02*
X29492750Y-7209250D01*
X29492750Y-7099250D02*
X29382750Y-7209250D01*
X29492750Y-7154250D02*
G75*
G02*
X29382750Y-7154250I-55000J0D01*
G01*
X29382750Y-7154250D02*
G75*
G02*
X29492750Y-7154250I55000J0D01*
G01*
X29382750Y-7353250D02*
X29492750Y-7463250D01*
X29492750Y-7353250D02*
X29382750Y-7463250D01*
X29492750Y-7408250D02*
G75*
G02*
X29382750Y-7408250I-55000J0D01*
G01*
X29382750Y-7408250D02*
G75*
G02*
X29492750Y-7408250I55000J0D01*
G01*
X29382750Y-7607250D02*
X29492750Y-7717250D01*
X29492750Y-7607250D02*
X29382750Y-7717250D01*
X29492750Y-7662250D02*
G75*
G02*
X29382750Y-7662250I-55000J0D01*
G01*
X29382750Y-7662250D02*
G75*
G02*
X29492750Y-7662250I55000J0D01*
G01*
X29382750Y-7861250D02*
X29492750Y-7971250D01*
X29492750Y-7861250D02*
X29382750Y-7971250D01*
X29492750Y-7916250D02*
G75*
G02*
X29382750Y-7916250I-55000J0D01*
G01*
X29382750Y-7916250D02*
G75*
G02*
X29492750Y-7916250I55000J0D01*
G01*
X29382750Y-8115250D02*
X29492750Y-8225250D01*
X29492750Y-8115250D02*
X29382750Y-8225250D01*
X29492750Y-8170250D02*
G75*
G02*
X29382750Y-8170250I-55000J0D01*
G01*
X29382750Y-8170250D02*
G75*
G02*
X29492750Y-8170250I55000J0D01*
G01*
X29382750Y-8369250D02*
X29492750Y-8479250D01*
X29492750Y-8369250D02*
X29382750Y-8479250D01*
X29492750Y-8424250D02*
G75*
G02*
X29382750Y-8424250I-55000J0D01*
G01*
X29382750Y-8424250D02*
G75*
G02*
X29492750Y-8424250I55000J0D01*
G01*
X29382750Y-8623250D02*
X29492750Y-8733250D01*
X29492750Y-8623250D02*
X29382750Y-8733250D01*
X29492750Y-8678250D02*
G75*
G02*
X29382750Y-8678250I-55000J0D01*
G01*
X29382750Y-8678250D02*
G75*
G02*
X29492750Y-8678250I55000J0D01*
G01*
X29382750Y-8877250D02*
X29492750Y-8987250D01*
X29492750Y-8877250D02*
X29382750Y-8987250D01*
X29492750Y-8932250D02*
G75*
G02*
X29382750Y-8932250I-55000J0D01*
G01*
X29382750Y-8932250D02*
G75*
G02*
X29492750Y-8932250I55000J0D01*
G01*
X29382750Y-9131250D02*
X29492750Y-9241250D01*
X29492750Y-9131250D02*
X29382750Y-9241250D01*
X29492750Y-9186250D02*
G75*
G02*
X29382750Y-9186250I-55000J0D01*
G01*
X29382750Y-9186250D02*
G75*
G02*
X29492750Y-9186250I55000J0D01*
G01*
X29382750Y-9385250D02*
X29492750Y-9495250D01*
X29492750Y-9385250D02*
X29382750Y-9495250D01*
X29492750Y-9440250D02*
G75*
G02*
X29382750Y-9440250I-55000J0D01*
G01*
X29382750Y-9440250D02*
G75*
G02*
X29492750Y-9440250I55000J0D01*
G01*
X29382750Y-9639250D02*
X29492750Y-9749250D01*
X29492750Y-9639250D02*
X29382750Y-9749250D01*
X29492750Y-9694250D02*
G75*
G02*
X29382750Y-9694250I-55000J0D01*
G01*
X29382750Y-9694250D02*
G75*
G02*
X29492750Y-9694250I55000J0D01*
G01*
X29382750Y-9893250D02*
X29492750Y-10003250D01*
X29492750Y-9893250D02*
X29382750Y-10003250D01*
X29492750Y-9948250D02*
G75*
G02*
X29382750Y-9948250I-55000J0D01*
G01*
X29382750Y-9948250D02*
G75*
G02*
X29492750Y-9948250I55000J0D01*
G01*
X29382750Y-10147250D02*
X29492750Y-10257250D01*
X29492750Y-10147250D02*
X29382750Y-10257250D01*
X29492750Y-10202250D02*
G75*
G02*
X29382750Y-10202250I-55000J0D01*
G01*
X29382750Y-10202250D02*
G75*
G02*
X29492750Y-10202250I55000J0D01*
G01*
X29382750Y-10401250D02*
X29492750Y-10511250D01*
X29492750Y-10401250D02*
X29382750Y-10511250D01*
X29492750Y-10456250D02*
G75*
G02*
X29382750Y-10456250I-55000J0D01*
G01*
X29382750Y-10456250D02*
G75*
G02*
X29492750Y-10456250I55000J0D01*
G01*
X29382750Y-10655250D02*
X29492750Y-10765250D01*
X29492750Y-10655250D02*
X29382750Y-10765250D01*
X29492750Y-10710250D02*
G75*
G02*
X29382750Y-10710250I-55000J0D01*
G01*
X29382750Y-10710250D02*
G75*
G02*
X29492750Y-10710250I55000J0D01*
G01*
D11*
X10900777Y-24714484D02*
X10900777Y-24514484D01*
X10900777Y-24514484D02*
X10948396Y-24514484D01*
X10948396Y-24514484D02*
X10976967Y-24524008D01*
X10976967Y-24524008D02*
X10996015Y-24543055D01*
X10996015Y-24543055D02*
X11005539Y-24562103D01*
X11005539Y-24562103D02*
X11015063Y-24600198D01*
X11015063Y-24600198D02*
X11015063Y-24628769D01*
X11015063Y-24628769D02*
X11005539Y-24666865D01*
X11005539Y-24666865D02*
X10996015Y-24685912D01*
X10996015Y-24685912D02*
X10976967Y-24704960D01*
X10976967Y-24704960D02*
X10948396Y-24714484D01*
X10948396Y-24714484D02*
X10900777Y-24714484D01*
X11100777Y-24714484D02*
X11100777Y-24581150D01*
X11100777Y-24619246D02*
X11110301Y-24600198D01*
X11110301Y-24600198D02*
X11119824Y-24590674D01*
X11119824Y-24590674D02*
X11138872Y-24581150D01*
X11138872Y-24581150D02*
X11157920Y-24581150D01*
X11224586Y-24714484D02*
X11224586Y-24581150D01*
X11224586Y-24514484D02*
X11215062Y-24524008D01*
X11215062Y-24524008D02*
X11224586Y-24533531D01*
X11224586Y-24533531D02*
X11234110Y-24524008D01*
X11234110Y-24524008D02*
X11224586Y-24514484D01*
X11224586Y-24514484D02*
X11224586Y-24533531D01*
X11348396Y-24714484D02*
X11329348Y-24704960D01*
X11329348Y-24704960D02*
X11319824Y-24685912D01*
X11319824Y-24685912D02*
X11319824Y-24514484D01*
X11453158Y-24714484D02*
X11434110Y-24704960D01*
X11434110Y-24704960D02*
X11424586Y-24685912D01*
X11424586Y-24685912D02*
X11424586Y-24514484D01*
X11681729Y-24714484D02*
X11681729Y-24514484D01*
X11681729Y-24514484D02*
X11748396Y-24657341D01*
X11748396Y-24657341D02*
X11815062Y-24514484D01*
X11815062Y-24514484D02*
X11815062Y-24714484D01*
X11996015Y-24714484D02*
X11996015Y-24609722D01*
X11996015Y-24609722D02*
X11986491Y-24590674D01*
X11986491Y-24590674D02*
X11967443Y-24581150D01*
X11967443Y-24581150D02*
X11929348Y-24581150D01*
X11929348Y-24581150D02*
X11910301Y-24590674D01*
X11996015Y-24704960D02*
X11976967Y-24714484D01*
X11976967Y-24714484D02*
X11929348Y-24714484D01*
X11929348Y-24714484D02*
X11910301Y-24704960D01*
X11910301Y-24704960D02*
X11900777Y-24685912D01*
X11900777Y-24685912D02*
X11900777Y-24666865D01*
X11900777Y-24666865D02*
X11910301Y-24647817D01*
X11910301Y-24647817D02*
X11929348Y-24638293D01*
X11929348Y-24638293D02*
X11976967Y-24638293D01*
X11976967Y-24638293D02*
X11996015Y-24628769D01*
X12091253Y-24581150D02*
X12091253Y-24781150D01*
X12091253Y-24590674D02*
X12110301Y-24581150D01*
X12110301Y-24581150D02*
X12148396Y-24581150D01*
X12148396Y-24581150D02*
X12167443Y-24590674D01*
X12167443Y-24590674D02*
X12176967Y-24600198D01*
X12176967Y-24600198D02*
X12186491Y-24619246D01*
X12186491Y-24619246D02*
X12186491Y-24676388D01*
X12186491Y-24676388D02*
X12176967Y-24695436D01*
X12176967Y-24695436D02*
X12167443Y-24704960D01*
X12167443Y-24704960D02*
X12148396Y-24714484D01*
X12148396Y-24714484D02*
X12110301Y-24714484D01*
X12110301Y-24714484D02*
X12091253Y-24704960D01*
X12272205Y-24695436D02*
X12281729Y-24704960D01*
X12281729Y-24704960D02*
X12272205Y-24714484D01*
X12272205Y-24714484D02*
X12262682Y-24704960D01*
X12262682Y-24704960D02*
X12272205Y-24695436D01*
X12272205Y-24695436D02*
X12272205Y-24714484D01*
X12272205Y-24590674D02*
X12281729Y-24600198D01*
X12281729Y-24600198D02*
X12272205Y-24609722D01*
X12272205Y-24609722D02*
X12262682Y-24600198D01*
X12262682Y-24600198D02*
X12272205Y-24590674D01*
X12272205Y-24590674D02*
X12272205Y-24609722D01*
D10*
X10610000Y-25028000D02*
X10640000Y-25058000D01*
X10640000Y-25028000D02*
X10610000Y-25058000D01*
D11*
X10938872Y-24934484D02*
X10957920Y-24934484D01*
X10957920Y-24934484D02*
X10976967Y-24944008D01*
X10976967Y-24944008D02*
X10986491Y-24953531D01*
X10986491Y-24953531D02*
X10996015Y-24972579D01*
X10996015Y-24972579D02*
X11005539Y-25010674D01*
X11005539Y-25010674D02*
X11005539Y-25058293D01*
X11005539Y-25058293D02*
X10996015Y-25096388D01*
X10996015Y-25096388D02*
X10986491Y-25115436D01*
X10986491Y-25115436D02*
X10976967Y-25124960D01*
X10976967Y-25124960D02*
X10957920Y-25134484D01*
X10957920Y-25134484D02*
X10938872Y-25134484D01*
X10938872Y-25134484D02*
X10919824Y-25124960D01*
X10919824Y-25124960D02*
X10910301Y-25115436D01*
X10910301Y-25115436D02*
X10900777Y-25096388D01*
X10900777Y-25096388D02*
X10891253Y-25058293D01*
X10891253Y-25058293D02*
X10891253Y-25010674D01*
X10891253Y-25010674D02*
X10900777Y-24972579D01*
X10900777Y-24972579D02*
X10910301Y-24953531D01*
X10910301Y-24953531D02*
X10919824Y-24944008D01*
X10919824Y-24944008D02*
X10938872Y-24934484D01*
X11091253Y-25115436D02*
X11100777Y-25124960D01*
X11100777Y-25124960D02*
X11091253Y-25134484D01*
X11091253Y-25134484D02*
X11081729Y-25124960D01*
X11081729Y-25124960D02*
X11091253Y-25115436D01*
X11091253Y-25115436D02*
X11091253Y-25134484D01*
X11167444Y-24934484D02*
X11291253Y-24934484D01*
X11291253Y-24934484D02*
X11224586Y-25010674D01*
X11224586Y-25010674D02*
X11253158Y-25010674D01*
X11253158Y-25010674D02*
X11272205Y-25020198D01*
X11272205Y-25020198D02*
X11281729Y-25029722D01*
X11281729Y-25029722D02*
X11291253Y-25048769D01*
X11291253Y-25048769D02*
X11291253Y-25096388D01*
X11291253Y-25096388D02*
X11281729Y-25115436D01*
X11281729Y-25115436D02*
X11272205Y-25124960D01*
X11272205Y-25124960D02*
X11253158Y-25134484D01*
X11253158Y-25134484D02*
X11196015Y-25134484D01*
X11196015Y-25134484D02*
X11176967Y-25124960D01*
X11176967Y-25124960D02*
X11167444Y-25115436D01*
X11415062Y-24934484D02*
X11434110Y-24934484D01*
X11434110Y-24934484D02*
X11453158Y-24944008D01*
X11453158Y-24944008D02*
X11462682Y-24953531D01*
X11462682Y-24953531D02*
X11472205Y-24972579D01*
X11472205Y-24972579D02*
X11481729Y-25010674D01*
X11481729Y-25010674D02*
X11481729Y-25058293D01*
X11481729Y-25058293D02*
X11472205Y-25096388D01*
X11472205Y-25096388D02*
X11462682Y-25115436D01*
X11462682Y-25115436D02*
X11453158Y-25124960D01*
X11453158Y-25124960D02*
X11434110Y-25134484D01*
X11434110Y-25134484D02*
X11415062Y-25134484D01*
X11415062Y-25134484D02*
X11396015Y-25124960D01*
X11396015Y-25124960D02*
X11386491Y-25115436D01*
X11386491Y-25115436D02*
X11376967Y-25096388D01*
X11376967Y-25096388D02*
X11367443Y-25058293D01*
X11367443Y-25058293D02*
X11367443Y-25010674D01*
X11367443Y-25010674D02*
X11376967Y-24972579D01*
X11376967Y-24972579D02*
X11386491Y-24953531D01*
X11386491Y-24953531D02*
X11396015Y-24944008D01*
X11396015Y-24944008D02*
X11415062Y-24934484D01*
X11605539Y-24934484D02*
X11624586Y-24934484D01*
X11624586Y-24934484D02*
X11643634Y-24944008D01*
X11643634Y-24944008D02*
X11653158Y-24953531D01*
X11653158Y-24953531D02*
X11662682Y-24972579D01*
X11662682Y-24972579D02*
X11672205Y-25010674D01*
X11672205Y-25010674D02*
X11672205Y-25058293D01*
X11672205Y-25058293D02*
X11662682Y-25096388D01*
X11662682Y-25096388D02*
X11653158Y-25115436D01*
X11653158Y-25115436D02*
X11643634Y-25124960D01*
X11643634Y-25124960D02*
X11624586Y-25134484D01*
X11624586Y-25134484D02*
X11605539Y-25134484D01*
X11605539Y-25134484D02*
X11586491Y-25124960D01*
X11586491Y-25124960D02*
X11576967Y-25115436D01*
X11576967Y-25115436D02*
X11567443Y-25096388D01*
X11567443Y-25096388D02*
X11557920Y-25058293D01*
X11557920Y-25058293D02*
X11557920Y-25010674D01*
X11557920Y-25010674D02*
X11567443Y-24972579D01*
X11567443Y-24972579D02*
X11576967Y-24953531D01*
X11576967Y-24953531D02*
X11586491Y-24944008D01*
X11586491Y-24944008D02*
X11605539Y-24934484D01*
X11757920Y-25134484D02*
X11757920Y-25001150D01*
X11757920Y-25020198D02*
X11767443Y-25010674D01*
X11767443Y-25010674D02*
X11786491Y-25001150D01*
X11786491Y-25001150D02*
X11815063Y-25001150D01*
X11815063Y-25001150D02*
X11834110Y-25010674D01*
X11834110Y-25010674D02*
X11843634Y-25029722D01*
X11843634Y-25029722D02*
X11843634Y-25134484D01*
X11843634Y-25029722D02*
X11853158Y-25010674D01*
X11853158Y-25010674D02*
X11872205Y-25001150D01*
X11872205Y-25001150D02*
X11900777Y-25001150D01*
X11900777Y-25001150D02*
X11919824Y-25010674D01*
X11919824Y-25010674D02*
X11929348Y-25029722D01*
X11929348Y-25029722D02*
X11929348Y-25134484D01*
X12024586Y-25134484D02*
X12024586Y-25001150D01*
X12024586Y-25020198D02*
X12034110Y-25010674D01*
X12034110Y-25010674D02*
X12053158Y-25001150D01*
X12053158Y-25001150D02*
X12081729Y-25001150D01*
X12081729Y-25001150D02*
X12100777Y-25010674D01*
X12100777Y-25010674D02*
X12110301Y-25029722D01*
X12110301Y-25029722D02*
X12110301Y-25134484D01*
X12110301Y-25029722D02*
X12119824Y-25010674D01*
X12119824Y-25010674D02*
X12138872Y-25001150D01*
X12138872Y-25001150D02*
X12167443Y-25001150D01*
X12167443Y-25001150D02*
X12186491Y-25010674D01*
X12186491Y-25010674D02*
X12196015Y-25029722D01*
X12196015Y-25029722D02*
X12196015Y-25134484D01*
X12586491Y-24924960D02*
X12415063Y-25182103D01*
X12843634Y-24934484D02*
X12862682Y-24934484D01*
X12862682Y-24934484D02*
X12881729Y-24944008D01*
X12881729Y-24944008D02*
X12891253Y-24953531D01*
X12891253Y-24953531D02*
X12900777Y-24972579D01*
X12900777Y-24972579D02*
X12910301Y-25010674D01*
X12910301Y-25010674D02*
X12910301Y-25058293D01*
X12910301Y-25058293D02*
X12900777Y-25096388D01*
X12900777Y-25096388D02*
X12891253Y-25115436D01*
X12891253Y-25115436D02*
X12881729Y-25124960D01*
X12881729Y-25124960D02*
X12862682Y-25134484D01*
X12862682Y-25134484D02*
X12843634Y-25134484D01*
X12843634Y-25134484D02*
X12824586Y-25124960D01*
X12824586Y-25124960D02*
X12815063Y-25115436D01*
X12815063Y-25115436D02*
X12805539Y-25096388D01*
X12805539Y-25096388D02*
X12796015Y-25058293D01*
X12796015Y-25058293D02*
X12796015Y-25010674D01*
X12796015Y-25010674D02*
X12805539Y-24972579D01*
X12805539Y-24972579D02*
X12815063Y-24953531D01*
X12815063Y-24953531D02*
X12824586Y-24944008D01*
X12824586Y-24944008D02*
X12843634Y-24934484D01*
X12996015Y-25115436D02*
X13005539Y-25124960D01*
X13005539Y-25124960D02*
X12996015Y-25134484D01*
X12996015Y-25134484D02*
X12986491Y-25124960D01*
X12986491Y-25124960D02*
X12996015Y-25115436D01*
X12996015Y-25115436D02*
X12996015Y-25134484D01*
X13129348Y-24934484D02*
X13148396Y-24934484D01*
X13148396Y-24934484D02*
X13167444Y-24944008D01*
X13167444Y-24944008D02*
X13176967Y-24953531D01*
X13176967Y-24953531D02*
X13186491Y-24972579D01*
X13186491Y-24972579D02*
X13196015Y-25010674D01*
X13196015Y-25010674D02*
X13196015Y-25058293D01*
X13196015Y-25058293D02*
X13186491Y-25096388D01*
X13186491Y-25096388D02*
X13176967Y-25115436D01*
X13176967Y-25115436D02*
X13167444Y-25124960D01*
X13167444Y-25124960D02*
X13148396Y-25134484D01*
X13148396Y-25134484D02*
X13129348Y-25134484D01*
X13129348Y-25134484D02*
X13110301Y-25124960D01*
X13110301Y-25124960D02*
X13100777Y-25115436D01*
X13100777Y-25115436D02*
X13091253Y-25096388D01*
X13091253Y-25096388D02*
X13081729Y-25058293D01*
X13081729Y-25058293D02*
X13081729Y-25010674D01*
X13081729Y-25010674D02*
X13091253Y-24972579D01*
X13091253Y-24972579D02*
X13100777Y-24953531D01*
X13100777Y-24953531D02*
X13110301Y-24944008D01*
X13110301Y-24944008D02*
X13129348Y-24934484D01*
X13386491Y-25134484D02*
X13272206Y-25134484D01*
X13329348Y-25134484D02*
X13329348Y-24934484D01*
X13329348Y-24934484D02*
X13310301Y-24963055D01*
X13310301Y-24963055D02*
X13291253Y-24982103D01*
X13291253Y-24982103D02*
X13272206Y-24991627D01*
X13576967Y-25134484D02*
X13462682Y-25134484D01*
X13519825Y-25134484D02*
X13519825Y-24934484D01*
X13519825Y-24934484D02*
X13500777Y-24963055D01*
X13500777Y-24963055D02*
X13481729Y-24982103D01*
X13481729Y-24982103D02*
X13462682Y-24991627D01*
X13691253Y-25020198D02*
X13672206Y-25010674D01*
X13672206Y-25010674D02*
X13662682Y-25001150D01*
X13662682Y-25001150D02*
X13653158Y-24982103D01*
X13653158Y-24982103D02*
X13653158Y-24972579D01*
X13653158Y-24972579D02*
X13662682Y-24953531D01*
X13662682Y-24953531D02*
X13672206Y-24944008D01*
X13672206Y-24944008D02*
X13691253Y-24934484D01*
X13691253Y-24934484D02*
X13729348Y-24934484D01*
X13729348Y-24934484D02*
X13748396Y-24944008D01*
X13748396Y-24944008D02*
X13757920Y-24953531D01*
X13757920Y-24953531D02*
X13767444Y-24972579D01*
X13767444Y-24972579D02*
X13767444Y-24982103D01*
X13767444Y-24982103D02*
X13757920Y-25001150D01*
X13757920Y-25001150D02*
X13748396Y-25010674D01*
X13748396Y-25010674D02*
X13729348Y-25020198D01*
X13729348Y-25020198D02*
X13691253Y-25020198D01*
X13691253Y-25020198D02*
X13672206Y-25029722D01*
X13672206Y-25029722D02*
X13662682Y-25039246D01*
X13662682Y-25039246D02*
X13653158Y-25058293D01*
X13653158Y-25058293D02*
X13653158Y-25096388D01*
X13653158Y-25096388D02*
X13662682Y-25115436D01*
X13662682Y-25115436D02*
X13672206Y-25124960D01*
X13672206Y-25124960D02*
X13691253Y-25134484D01*
X13691253Y-25134484D02*
X13729348Y-25134484D01*
X13729348Y-25134484D02*
X13748396Y-25124960D01*
X13748396Y-25124960D02*
X13757920Y-25115436D01*
X13757920Y-25115436D02*
X13767444Y-25096388D01*
X13767444Y-25096388D02*
X13767444Y-25058293D01*
X13767444Y-25058293D02*
X13757920Y-25039246D01*
X13757920Y-25039246D02*
X13748396Y-25029722D01*
X13748396Y-25029722D02*
X13729348Y-25020198D01*
X13843634Y-24934484D02*
X13843634Y-24972579D01*
X13919825Y-24934484D02*
X13919825Y-24972579D01*
X14215063Y-25210674D02*
X14205539Y-25201150D01*
X14205539Y-25201150D02*
X14186491Y-25172579D01*
X14186491Y-25172579D02*
X14176968Y-25153531D01*
X14176968Y-25153531D02*
X14167444Y-25124960D01*
X14167444Y-25124960D02*
X14157920Y-25077341D01*
X14157920Y-25077341D02*
X14157920Y-25039246D01*
X14157920Y-25039246D02*
X14167444Y-24991627D01*
X14167444Y-24991627D02*
X14176968Y-24963055D01*
X14176968Y-24963055D02*
X14186491Y-24944008D01*
X14186491Y-24944008D02*
X14205539Y-24915436D01*
X14205539Y-24915436D02*
X14215063Y-24905912D01*
X14396015Y-25134484D02*
X14281729Y-25134484D01*
X14338872Y-25134484D02*
X14338872Y-24934484D01*
X14338872Y-24934484D02*
X14319825Y-24963055D01*
X14319825Y-24963055D02*
X14300777Y-24982103D01*
X14300777Y-24982103D02*
X14281729Y-24991627D01*
X14472206Y-24953531D02*
X14481729Y-24944008D01*
X14481729Y-24944008D02*
X14500777Y-24934484D01*
X14500777Y-24934484D02*
X14548396Y-24934484D01*
X14548396Y-24934484D02*
X14567444Y-24944008D01*
X14567444Y-24944008D02*
X14576968Y-24953531D01*
X14576968Y-24953531D02*
X14586491Y-24972579D01*
X14586491Y-24972579D02*
X14586491Y-24991627D01*
X14586491Y-24991627D02*
X14576968Y-25020198D01*
X14576968Y-25020198D02*
X14462682Y-25134484D01*
X14462682Y-25134484D02*
X14586491Y-25134484D01*
X14824587Y-25134484D02*
X14824587Y-24934484D01*
X14910301Y-25134484D02*
X14910301Y-25029722D01*
X14910301Y-25029722D02*
X14900777Y-25010674D01*
X14900777Y-25010674D02*
X14881730Y-25001150D01*
X14881730Y-25001150D02*
X14853158Y-25001150D01*
X14853158Y-25001150D02*
X14834110Y-25010674D01*
X14834110Y-25010674D02*
X14824587Y-25020198D01*
X15034110Y-25134484D02*
X15015063Y-25124960D01*
X15015063Y-25124960D02*
X15005539Y-25115436D01*
X15005539Y-25115436D02*
X14996015Y-25096388D01*
X14996015Y-25096388D02*
X14996015Y-25039246D01*
X14996015Y-25039246D02*
X15005539Y-25020198D01*
X15005539Y-25020198D02*
X15015063Y-25010674D01*
X15015063Y-25010674D02*
X15034110Y-25001150D01*
X15034110Y-25001150D02*
X15062682Y-25001150D01*
X15062682Y-25001150D02*
X15081730Y-25010674D01*
X15081730Y-25010674D02*
X15091253Y-25020198D01*
X15091253Y-25020198D02*
X15100777Y-25039246D01*
X15100777Y-25039246D02*
X15100777Y-25096388D01*
X15100777Y-25096388D02*
X15091253Y-25115436D01*
X15091253Y-25115436D02*
X15081730Y-25124960D01*
X15081730Y-25124960D02*
X15062682Y-25134484D01*
X15062682Y-25134484D02*
X15034110Y-25134484D01*
X15215063Y-25134484D02*
X15196015Y-25124960D01*
X15196015Y-25124960D02*
X15186491Y-25105912D01*
X15186491Y-25105912D02*
X15186491Y-24934484D01*
X15367444Y-25124960D02*
X15348396Y-25134484D01*
X15348396Y-25134484D02*
X15310301Y-25134484D01*
X15310301Y-25134484D02*
X15291253Y-25124960D01*
X15291253Y-25124960D02*
X15281730Y-25105912D01*
X15281730Y-25105912D02*
X15281730Y-25029722D01*
X15281730Y-25029722D02*
X15291253Y-25010674D01*
X15291253Y-25010674D02*
X15310301Y-25001150D01*
X15310301Y-25001150D02*
X15348396Y-25001150D01*
X15348396Y-25001150D02*
X15367444Y-25010674D01*
X15367444Y-25010674D02*
X15376968Y-25029722D01*
X15376968Y-25029722D02*
X15376968Y-25048769D01*
X15376968Y-25048769D02*
X15281730Y-25067817D01*
X15453158Y-25124960D02*
X15472206Y-25134484D01*
X15472206Y-25134484D02*
X15510301Y-25134484D01*
X15510301Y-25134484D02*
X15529349Y-25124960D01*
X15529349Y-25124960D02*
X15538872Y-25105912D01*
X15538872Y-25105912D02*
X15538872Y-25096388D01*
X15538872Y-25096388D02*
X15529349Y-25077341D01*
X15529349Y-25077341D02*
X15510301Y-25067817D01*
X15510301Y-25067817D02*
X15481730Y-25067817D01*
X15481730Y-25067817D02*
X15462682Y-25058293D01*
X15462682Y-25058293D02*
X15453158Y-25039246D01*
X15453158Y-25039246D02*
X15453158Y-25029722D01*
X15453158Y-25029722D02*
X15462682Y-25010674D01*
X15462682Y-25010674D02*
X15481730Y-25001150D01*
X15481730Y-25001150D02*
X15510301Y-25001150D01*
X15510301Y-25001150D02*
X15529349Y-25010674D01*
X15605539Y-25210674D02*
X15615063Y-25201150D01*
X15615063Y-25201150D02*
X15634111Y-25172579D01*
X15634111Y-25172579D02*
X15643634Y-25153531D01*
X15643634Y-25153531D02*
X15653158Y-25124960D01*
X15653158Y-25124960D02*
X15662682Y-25077341D01*
X15662682Y-25077341D02*
X15662682Y-25039246D01*
X15662682Y-25039246D02*
X15653158Y-24991627D01*
X15653158Y-24991627D02*
X15643634Y-24963055D01*
X15643634Y-24963055D02*
X15634111Y-24944008D01*
X15634111Y-24944008D02*
X15615063Y-24915436D01*
X15615063Y-24915436D02*
X15605539Y-24905912D01*
D10*
X10640000Y-25307000D02*
G75*
G02*
X10560000Y-25307000I-40000J0D01*
G01*
X10560000Y-25307000D02*
G75*
G02*
X10640000Y-25307000I40000J0D01*
G01*
D11*
X10938872Y-25198484D02*
X10957920Y-25198484D01*
X10957920Y-25198484D02*
X10976967Y-25208008D01*
X10976967Y-25208008D02*
X10986491Y-25217531D01*
X10986491Y-25217531D02*
X10996015Y-25236579D01*
X10996015Y-25236579D02*
X11005539Y-25274674D01*
X11005539Y-25274674D02*
X11005539Y-25322293D01*
X11005539Y-25322293D02*
X10996015Y-25360388D01*
X10996015Y-25360388D02*
X10986491Y-25379436D01*
X10986491Y-25379436D02*
X10976967Y-25388960D01*
X10976967Y-25388960D02*
X10957920Y-25398484D01*
X10957920Y-25398484D02*
X10938872Y-25398484D01*
X10938872Y-25398484D02*
X10919824Y-25388960D01*
X10919824Y-25388960D02*
X10910301Y-25379436D01*
X10910301Y-25379436D02*
X10900777Y-25360388D01*
X10900777Y-25360388D02*
X10891253Y-25322293D01*
X10891253Y-25322293D02*
X10891253Y-25274674D01*
X10891253Y-25274674D02*
X10900777Y-25236579D01*
X10900777Y-25236579D02*
X10910301Y-25217531D01*
X10910301Y-25217531D02*
X10919824Y-25208008D01*
X10919824Y-25208008D02*
X10938872Y-25198484D01*
X11091253Y-25379436D02*
X11100777Y-25388960D01*
X11100777Y-25388960D02*
X11091253Y-25398484D01*
X11091253Y-25398484D02*
X11081729Y-25388960D01*
X11081729Y-25388960D02*
X11091253Y-25379436D01*
X11091253Y-25379436D02*
X11091253Y-25398484D01*
X11215062Y-25284198D02*
X11196015Y-25274674D01*
X11196015Y-25274674D02*
X11186491Y-25265150D01*
X11186491Y-25265150D02*
X11176967Y-25246103D01*
X11176967Y-25246103D02*
X11176967Y-25236579D01*
X11176967Y-25236579D02*
X11186491Y-25217531D01*
X11186491Y-25217531D02*
X11196015Y-25208008D01*
X11196015Y-25208008D02*
X11215062Y-25198484D01*
X11215062Y-25198484D02*
X11253158Y-25198484D01*
X11253158Y-25198484D02*
X11272205Y-25208008D01*
X11272205Y-25208008D02*
X11281729Y-25217531D01*
X11281729Y-25217531D02*
X11291253Y-25236579D01*
X11291253Y-25236579D02*
X11291253Y-25246103D01*
X11291253Y-25246103D02*
X11281729Y-25265150D01*
X11281729Y-25265150D02*
X11272205Y-25274674D01*
X11272205Y-25274674D02*
X11253158Y-25284198D01*
X11253158Y-25284198D02*
X11215062Y-25284198D01*
X11215062Y-25284198D02*
X11196015Y-25293722D01*
X11196015Y-25293722D02*
X11186491Y-25303246D01*
X11186491Y-25303246D02*
X11176967Y-25322293D01*
X11176967Y-25322293D02*
X11176967Y-25360388D01*
X11176967Y-25360388D02*
X11186491Y-25379436D01*
X11186491Y-25379436D02*
X11196015Y-25388960D01*
X11196015Y-25388960D02*
X11215062Y-25398484D01*
X11215062Y-25398484D02*
X11253158Y-25398484D01*
X11253158Y-25398484D02*
X11272205Y-25388960D01*
X11272205Y-25388960D02*
X11281729Y-25379436D01*
X11281729Y-25379436D02*
X11291253Y-25360388D01*
X11291253Y-25360388D02*
X11291253Y-25322293D01*
X11291253Y-25322293D02*
X11281729Y-25303246D01*
X11281729Y-25303246D02*
X11272205Y-25293722D01*
X11272205Y-25293722D02*
X11253158Y-25284198D01*
X11415062Y-25198484D02*
X11434110Y-25198484D01*
X11434110Y-25198484D02*
X11453158Y-25208008D01*
X11453158Y-25208008D02*
X11462682Y-25217531D01*
X11462682Y-25217531D02*
X11472205Y-25236579D01*
X11472205Y-25236579D02*
X11481729Y-25274674D01*
X11481729Y-25274674D02*
X11481729Y-25322293D01*
X11481729Y-25322293D02*
X11472205Y-25360388D01*
X11472205Y-25360388D02*
X11462682Y-25379436D01*
X11462682Y-25379436D02*
X11453158Y-25388960D01*
X11453158Y-25388960D02*
X11434110Y-25398484D01*
X11434110Y-25398484D02*
X11415062Y-25398484D01*
X11415062Y-25398484D02*
X11396015Y-25388960D01*
X11396015Y-25388960D02*
X11386491Y-25379436D01*
X11386491Y-25379436D02*
X11376967Y-25360388D01*
X11376967Y-25360388D02*
X11367443Y-25322293D01*
X11367443Y-25322293D02*
X11367443Y-25274674D01*
X11367443Y-25274674D02*
X11376967Y-25236579D01*
X11376967Y-25236579D02*
X11386491Y-25217531D01*
X11386491Y-25217531D02*
X11396015Y-25208008D01*
X11396015Y-25208008D02*
X11415062Y-25198484D01*
X11605539Y-25198484D02*
X11624586Y-25198484D01*
X11624586Y-25198484D02*
X11643634Y-25208008D01*
X11643634Y-25208008D02*
X11653158Y-25217531D01*
X11653158Y-25217531D02*
X11662682Y-25236579D01*
X11662682Y-25236579D02*
X11672205Y-25274674D01*
X11672205Y-25274674D02*
X11672205Y-25322293D01*
X11672205Y-25322293D02*
X11662682Y-25360388D01*
X11662682Y-25360388D02*
X11653158Y-25379436D01*
X11653158Y-25379436D02*
X11643634Y-25388960D01*
X11643634Y-25388960D02*
X11624586Y-25398484D01*
X11624586Y-25398484D02*
X11605539Y-25398484D01*
X11605539Y-25398484D02*
X11586491Y-25388960D01*
X11586491Y-25388960D02*
X11576967Y-25379436D01*
X11576967Y-25379436D02*
X11567443Y-25360388D01*
X11567443Y-25360388D02*
X11557920Y-25322293D01*
X11557920Y-25322293D02*
X11557920Y-25274674D01*
X11557920Y-25274674D02*
X11567443Y-25236579D01*
X11567443Y-25236579D02*
X11576967Y-25217531D01*
X11576967Y-25217531D02*
X11586491Y-25208008D01*
X11586491Y-25208008D02*
X11605539Y-25198484D01*
X11757920Y-25398484D02*
X11757920Y-25265150D01*
X11757920Y-25284198D02*
X11767443Y-25274674D01*
X11767443Y-25274674D02*
X11786491Y-25265150D01*
X11786491Y-25265150D02*
X11815063Y-25265150D01*
X11815063Y-25265150D02*
X11834110Y-25274674D01*
X11834110Y-25274674D02*
X11843634Y-25293722D01*
X11843634Y-25293722D02*
X11843634Y-25398484D01*
X11843634Y-25293722D02*
X11853158Y-25274674D01*
X11853158Y-25274674D02*
X11872205Y-25265150D01*
X11872205Y-25265150D02*
X11900777Y-25265150D01*
X11900777Y-25265150D02*
X11919824Y-25274674D01*
X11919824Y-25274674D02*
X11929348Y-25293722D01*
X11929348Y-25293722D02*
X11929348Y-25398484D01*
X12024586Y-25398484D02*
X12024586Y-25265150D01*
X12024586Y-25284198D02*
X12034110Y-25274674D01*
X12034110Y-25274674D02*
X12053158Y-25265150D01*
X12053158Y-25265150D02*
X12081729Y-25265150D01*
X12081729Y-25265150D02*
X12100777Y-25274674D01*
X12100777Y-25274674D02*
X12110301Y-25293722D01*
X12110301Y-25293722D02*
X12110301Y-25398484D01*
X12110301Y-25293722D02*
X12119824Y-25274674D01*
X12119824Y-25274674D02*
X12138872Y-25265150D01*
X12138872Y-25265150D02*
X12167443Y-25265150D01*
X12167443Y-25265150D02*
X12186491Y-25274674D01*
X12186491Y-25274674D02*
X12196015Y-25293722D01*
X12196015Y-25293722D02*
X12196015Y-25398484D01*
X12586491Y-25188960D02*
X12415063Y-25446103D01*
X12843634Y-25198484D02*
X12862682Y-25198484D01*
X12862682Y-25198484D02*
X12881729Y-25208008D01*
X12881729Y-25208008D02*
X12891253Y-25217531D01*
X12891253Y-25217531D02*
X12900777Y-25236579D01*
X12900777Y-25236579D02*
X12910301Y-25274674D01*
X12910301Y-25274674D02*
X12910301Y-25322293D01*
X12910301Y-25322293D02*
X12900777Y-25360388D01*
X12900777Y-25360388D02*
X12891253Y-25379436D01*
X12891253Y-25379436D02*
X12881729Y-25388960D01*
X12881729Y-25388960D02*
X12862682Y-25398484D01*
X12862682Y-25398484D02*
X12843634Y-25398484D01*
X12843634Y-25398484D02*
X12824586Y-25388960D01*
X12824586Y-25388960D02*
X12815063Y-25379436D01*
X12815063Y-25379436D02*
X12805539Y-25360388D01*
X12805539Y-25360388D02*
X12796015Y-25322293D01*
X12796015Y-25322293D02*
X12796015Y-25274674D01*
X12796015Y-25274674D02*
X12805539Y-25236579D01*
X12805539Y-25236579D02*
X12815063Y-25217531D01*
X12815063Y-25217531D02*
X12824586Y-25208008D01*
X12824586Y-25208008D02*
X12843634Y-25198484D01*
X12996015Y-25379436D02*
X13005539Y-25388960D01*
X13005539Y-25388960D02*
X12996015Y-25398484D01*
X12996015Y-25398484D02*
X12986491Y-25388960D01*
X12986491Y-25388960D02*
X12996015Y-25379436D01*
X12996015Y-25379436D02*
X12996015Y-25398484D01*
X13129348Y-25198484D02*
X13148396Y-25198484D01*
X13148396Y-25198484D02*
X13167444Y-25208008D01*
X13167444Y-25208008D02*
X13176967Y-25217531D01*
X13176967Y-25217531D02*
X13186491Y-25236579D01*
X13186491Y-25236579D02*
X13196015Y-25274674D01*
X13196015Y-25274674D02*
X13196015Y-25322293D01*
X13196015Y-25322293D02*
X13186491Y-25360388D01*
X13186491Y-25360388D02*
X13176967Y-25379436D01*
X13176967Y-25379436D02*
X13167444Y-25388960D01*
X13167444Y-25388960D02*
X13148396Y-25398484D01*
X13148396Y-25398484D02*
X13129348Y-25398484D01*
X13129348Y-25398484D02*
X13110301Y-25388960D01*
X13110301Y-25388960D02*
X13100777Y-25379436D01*
X13100777Y-25379436D02*
X13091253Y-25360388D01*
X13091253Y-25360388D02*
X13081729Y-25322293D01*
X13081729Y-25322293D02*
X13081729Y-25274674D01*
X13081729Y-25274674D02*
X13091253Y-25236579D01*
X13091253Y-25236579D02*
X13100777Y-25217531D01*
X13100777Y-25217531D02*
X13110301Y-25208008D01*
X13110301Y-25208008D02*
X13129348Y-25198484D01*
X13262682Y-25198484D02*
X13386491Y-25198484D01*
X13386491Y-25198484D02*
X13319825Y-25274674D01*
X13319825Y-25274674D02*
X13348396Y-25274674D01*
X13348396Y-25274674D02*
X13367444Y-25284198D01*
X13367444Y-25284198D02*
X13376967Y-25293722D01*
X13376967Y-25293722D02*
X13386491Y-25312769D01*
X13386491Y-25312769D02*
X13386491Y-25360388D01*
X13386491Y-25360388D02*
X13376967Y-25379436D01*
X13376967Y-25379436D02*
X13367444Y-25388960D01*
X13367444Y-25388960D02*
X13348396Y-25398484D01*
X13348396Y-25398484D02*
X13291253Y-25398484D01*
X13291253Y-25398484D02*
X13272206Y-25388960D01*
X13272206Y-25388960D02*
X13262682Y-25379436D01*
X13576967Y-25398484D02*
X13462682Y-25398484D01*
X13519825Y-25398484D02*
X13519825Y-25198484D01*
X13519825Y-25198484D02*
X13500777Y-25227055D01*
X13500777Y-25227055D02*
X13481729Y-25246103D01*
X13481729Y-25246103D02*
X13462682Y-25255627D01*
X13757920Y-25198484D02*
X13662682Y-25198484D01*
X13662682Y-25198484D02*
X13653158Y-25293722D01*
X13653158Y-25293722D02*
X13662682Y-25284198D01*
X13662682Y-25284198D02*
X13681729Y-25274674D01*
X13681729Y-25274674D02*
X13729348Y-25274674D01*
X13729348Y-25274674D02*
X13748396Y-25284198D01*
X13748396Y-25284198D02*
X13757920Y-25293722D01*
X13757920Y-25293722D02*
X13767444Y-25312769D01*
X13767444Y-25312769D02*
X13767444Y-25360388D01*
X13767444Y-25360388D02*
X13757920Y-25379436D01*
X13757920Y-25379436D02*
X13748396Y-25388960D01*
X13748396Y-25388960D02*
X13729348Y-25398484D01*
X13729348Y-25398484D02*
X13681729Y-25398484D01*
X13681729Y-25398484D02*
X13662682Y-25388960D01*
X13662682Y-25388960D02*
X13653158Y-25379436D01*
X13843634Y-25198484D02*
X13843634Y-25236579D01*
X13919825Y-25198484D02*
X13919825Y-25236579D01*
X14215063Y-25474674D02*
X14205539Y-25465150D01*
X14205539Y-25465150D02*
X14186491Y-25436579D01*
X14186491Y-25436579D02*
X14176968Y-25417531D01*
X14176968Y-25417531D02*
X14167444Y-25388960D01*
X14167444Y-25388960D02*
X14157920Y-25341341D01*
X14157920Y-25341341D02*
X14157920Y-25303246D01*
X14157920Y-25303246D02*
X14167444Y-25255627D01*
X14167444Y-25255627D02*
X14176968Y-25227055D01*
X14176968Y-25227055D02*
X14186491Y-25208008D01*
X14186491Y-25208008D02*
X14205539Y-25179436D01*
X14205539Y-25179436D02*
X14215063Y-25169912D01*
X14396015Y-25398484D02*
X14281729Y-25398484D01*
X14338872Y-25398484D02*
X14338872Y-25198484D01*
X14338872Y-25198484D02*
X14319825Y-25227055D01*
X14319825Y-25227055D02*
X14300777Y-25246103D01*
X14300777Y-25246103D02*
X14281729Y-25255627D01*
X14472206Y-25217531D02*
X14481729Y-25208008D01*
X14481729Y-25208008D02*
X14500777Y-25198484D01*
X14500777Y-25198484D02*
X14548396Y-25198484D01*
X14548396Y-25198484D02*
X14567444Y-25208008D01*
X14567444Y-25208008D02*
X14576968Y-25217531D01*
X14576968Y-25217531D02*
X14586491Y-25236579D01*
X14586491Y-25236579D02*
X14586491Y-25255627D01*
X14586491Y-25255627D02*
X14576968Y-25284198D01*
X14576968Y-25284198D02*
X14462682Y-25398484D01*
X14462682Y-25398484D02*
X14586491Y-25398484D01*
X14700777Y-25284198D02*
X14681729Y-25274674D01*
X14681729Y-25274674D02*
X14672206Y-25265150D01*
X14672206Y-25265150D02*
X14662682Y-25246103D01*
X14662682Y-25246103D02*
X14662682Y-25236579D01*
X14662682Y-25236579D02*
X14672206Y-25217531D01*
X14672206Y-25217531D02*
X14681729Y-25208008D01*
X14681729Y-25208008D02*
X14700777Y-25198484D01*
X14700777Y-25198484D02*
X14738872Y-25198484D01*
X14738872Y-25198484D02*
X14757920Y-25208008D01*
X14757920Y-25208008D02*
X14767444Y-25217531D01*
X14767444Y-25217531D02*
X14776968Y-25236579D01*
X14776968Y-25236579D02*
X14776968Y-25246103D01*
X14776968Y-25246103D02*
X14767444Y-25265150D01*
X14767444Y-25265150D02*
X14757920Y-25274674D01*
X14757920Y-25274674D02*
X14738872Y-25284198D01*
X14738872Y-25284198D02*
X14700777Y-25284198D01*
X14700777Y-25284198D02*
X14681729Y-25293722D01*
X14681729Y-25293722D02*
X14672206Y-25303246D01*
X14672206Y-25303246D02*
X14662682Y-25322293D01*
X14662682Y-25322293D02*
X14662682Y-25360388D01*
X14662682Y-25360388D02*
X14672206Y-25379436D01*
X14672206Y-25379436D02*
X14681729Y-25388960D01*
X14681729Y-25388960D02*
X14700777Y-25398484D01*
X14700777Y-25398484D02*
X14738872Y-25398484D01*
X14738872Y-25398484D02*
X14757920Y-25388960D01*
X14757920Y-25388960D02*
X14767444Y-25379436D01*
X14767444Y-25379436D02*
X14776968Y-25360388D01*
X14776968Y-25360388D02*
X14776968Y-25322293D01*
X14776968Y-25322293D02*
X14767444Y-25303246D01*
X14767444Y-25303246D02*
X14757920Y-25293722D01*
X14757920Y-25293722D02*
X14738872Y-25284198D01*
X15015063Y-25398484D02*
X15015063Y-25198484D01*
X15100777Y-25398484D02*
X15100777Y-25293722D01*
X15100777Y-25293722D02*
X15091253Y-25274674D01*
X15091253Y-25274674D02*
X15072206Y-25265150D01*
X15072206Y-25265150D02*
X15043634Y-25265150D01*
X15043634Y-25265150D02*
X15024587Y-25274674D01*
X15024587Y-25274674D02*
X15015063Y-25284198D01*
X15224587Y-25398484D02*
X15205539Y-25388960D01*
X15205539Y-25388960D02*
X15196015Y-25379436D01*
X15196015Y-25379436D02*
X15186491Y-25360388D01*
X15186491Y-25360388D02*
X15186491Y-25303246D01*
X15186491Y-25303246D02*
X15196015Y-25284198D01*
X15196015Y-25284198D02*
X15205539Y-25274674D01*
X15205539Y-25274674D02*
X15224587Y-25265150D01*
X15224587Y-25265150D02*
X15253158Y-25265150D01*
X15253158Y-25265150D02*
X15272206Y-25274674D01*
X15272206Y-25274674D02*
X15281730Y-25284198D01*
X15281730Y-25284198D02*
X15291253Y-25303246D01*
X15291253Y-25303246D02*
X15291253Y-25360388D01*
X15291253Y-25360388D02*
X15281730Y-25379436D01*
X15281730Y-25379436D02*
X15272206Y-25388960D01*
X15272206Y-25388960D02*
X15253158Y-25398484D01*
X15253158Y-25398484D02*
X15224587Y-25398484D01*
X15405539Y-25398484D02*
X15386491Y-25388960D01*
X15386491Y-25388960D02*
X15376968Y-25369912D01*
X15376968Y-25369912D02*
X15376968Y-25198484D01*
X15557920Y-25388960D02*
X15538872Y-25398484D01*
X15538872Y-25398484D02*
X15500777Y-25398484D01*
X15500777Y-25398484D02*
X15481730Y-25388960D01*
X15481730Y-25388960D02*
X15472206Y-25369912D01*
X15472206Y-25369912D02*
X15472206Y-25293722D01*
X15472206Y-25293722D02*
X15481730Y-25274674D01*
X15481730Y-25274674D02*
X15500777Y-25265150D01*
X15500777Y-25265150D02*
X15538872Y-25265150D01*
X15538872Y-25265150D02*
X15557920Y-25274674D01*
X15557920Y-25274674D02*
X15567444Y-25293722D01*
X15567444Y-25293722D02*
X15567444Y-25312769D01*
X15567444Y-25312769D02*
X15472206Y-25331817D01*
X15643634Y-25388960D02*
X15662682Y-25398484D01*
X15662682Y-25398484D02*
X15700777Y-25398484D01*
X15700777Y-25398484D02*
X15719825Y-25388960D01*
X15719825Y-25388960D02*
X15729349Y-25369912D01*
X15729349Y-25369912D02*
X15729349Y-25360388D01*
X15729349Y-25360388D02*
X15719825Y-25341341D01*
X15719825Y-25341341D02*
X15700777Y-25331817D01*
X15700777Y-25331817D02*
X15672206Y-25331817D01*
X15672206Y-25331817D02*
X15653158Y-25322293D01*
X15653158Y-25322293D02*
X15643634Y-25303246D01*
X15643634Y-25303246D02*
X15643634Y-25293722D01*
X15643634Y-25293722D02*
X15653158Y-25274674D01*
X15653158Y-25274674D02*
X15672206Y-25265150D01*
X15672206Y-25265150D02*
X15700777Y-25265150D01*
X15700777Y-25265150D02*
X15719825Y-25274674D01*
X15796015Y-25474674D02*
X15805539Y-25465150D01*
X15805539Y-25465150D02*
X15824587Y-25436579D01*
X15824587Y-25436579D02*
X15834111Y-25417531D01*
X15834111Y-25417531D02*
X15843634Y-25388960D01*
X15843634Y-25388960D02*
X15853158Y-25341341D01*
X15853158Y-25341341D02*
X15853158Y-25303246D01*
X15853158Y-25303246D02*
X15843634Y-25255627D01*
X15843634Y-25255627D02*
X15834111Y-25227055D01*
X15834111Y-25227055D02*
X15824587Y-25208008D01*
X15824587Y-25208008D02*
X15805539Y-25179436D01*
X15805539Y-25179436D02*
X15796015Y-25169912D01*
D10*
X10594280Y-25525280D02*
X10594280Y-25616720D01*
X10548560Y-25571000D02*
X10640000Y-25571000D01*
D11*
X10938872Y-25462484D02*
X10957920Y-25462484D01*
X10957920Y-25462484D02*
X10976967Y-25472008D01*
X10976967Y-25472008D02*
X10986491Y-25481531D01*
X10986491Y-25481531D02*
X10996015Y-25500579D01*
X10996015Y-25500579D02*
X11005539Y-25538674D01*
X11005539Y-25538674D02*
X11005539Y-25586293D01*
X11005539Y-25586293D02*
X10996015Y-25624388D01*
X10996015Y-25624388D02*
X10986491Y-25643436D01*
X10986491Y-25643436D02*
X10976967Y-25652960D01*
X10976967Y-25652960D02*
X10957920Y-25662484D01*
X10957920Y-25662484D02*
X10938872Y-25662484D01*
X10938872Y-25662484D02*
X10919824Y-25652960D01*
X10919824Y-25652960D02*
X10910301Y-25643436D01*
X10910301Y-25643436D02*
X10900777Y-25624388D01*
X10900777Y-25624388D02*
X10891253Y-25586293D01*
X10891253Y-25586293D02*
X10891253Y-25538674D01*
X10891253Y-25538674D02*
X10900777Y-25500579D01*
X10900777Y-25500579D02*
X10910301Y-25481531D01*
X10910301Y-25481531D02*
X10919824Y-25472008D01*
X10919824Y-25472008D02*
X10938872Y-25462484D01*
X11091253Y-25643436D02*
X11100777Y-25652960D01*
X11100777Y-25652960D02*
X11091253Y-25662484D01*
X11091253Y-25662484D02*
X11081729Y-25652960D01*
X11081729Y-25652960D02*
X11091253Y-25643436D01*
X11091253Y-25643436D02*
X11091253Y-25662484D01*
X11196015Y-25662484D02*
X11234110Y-25662484D01*
X11234110Y-25662484D02*
X11253158Y-25652960D01*
X11253158Y-25652960D02*
X11262682Y-25643436D01*
X11262682Y-25643436D02*
X11281729Y-25614865D01*
X11281729Y-25614865D02*
X11291253Y-25576769D01*
X11291253Y-25576769D02*
X11291253Y-25500579D01*
X11291253Y-25500579D02*
X11281729Y-25481531D01*
X11281729Y-25481531D02*
X11272205Y-25472008D01*
X11272205Y-25472008D02*
X11253158Y-25462484D01*
X11253158Y-25462484D02*
X11215062Y-25462484D01*
X11215062Y-25462484D02*
X11196015Y-25472008D01*
X11196015Y-25472008D02*
X11186491Y-25481531D01*
X11186491Y-25481531D02*
X11176967Y-25500579D01*
X11176967Y-25500579D02*
X11176967Y-25548198D01*
X11176967Y-25548198D02*
X11186491Y-25567246D01*
X11186491Y-25567246D02*
X11196015Y-25576769D01*
X11196015Y-25576769D02*
X11215062Y-25586293D01*
X11215062Y-25586293D02*
X11253158Y-25586293D01*
X11253158Y-25586293D02*
X11272205Y-25576769D01*
X11272205Y-25576769D02*
X11281729Y-25567246D01*
X11281729Y-25567246D02*
X11291253Y-25548198D01*
X11481729Y-25662484D02*
X11367443Y-25662484D01*
X11424586Y-25662484D02*
X11424586Y-25462484D01*
X11424586Y-25462484D02*
X11405539Y-25491055D01*
X11405539Y-25491055D02*
X11386491Y-25510103D01*
X11386491Y-25510103D02*
X11367443Y-25519627D01*
X11653158Y-25529150D02*
X11653158Y-25662484D01*
X11605539Y-25452960D02*
X11557920Y-25595817D01*
X11557920Y-25595817D02*
X11681729Y-25595817D01*
X11757920Y-25662484D02*
X11757920Y-25529150D01*
X11757920Y-25548198D02*
X11767443Y-25538674D01*
X11767443Y-25538674D02*
X11786491Y-25529150D01*
X11786491Y-25529150D02*
X11815063Y-25529150D01*
X11815063Y-25529150D02*
X11834110Y-25538674D01*
X11834110Y-25538674D02*
X11843634Y-25557722D01*
X11843634Y-25557722D02*
X11843634Y-25662484D01*
X11843634Y-25557722D02*
X11853158Y-25538674D01*
X11853158Y-25538674D02*
X11872205Y-25529150D01*
X11872205Y-25529150D02*
X11900777Y-25529150D01*
X11900777Y-25529150D02*
X11919824Y-25538674D01*
X11919824Y-25538674D02*
X11929348Y-25557722D01*
X11929348Y-25557722D02*
X11929348Y-25662484D01*
X12024586Y-25662484D02*
X12024586Y-25529150D01*
X12024586Y-25548198D02*
X12034110Y-25538674D01*
X12034110Y-25538674D02*
X12053158Y-25529150D01*
X12053158Y-25529150D02*
X12081729Y-25529150D01*
X12081729Y-25529150D02*
X12100777Y-25538674D01*
X12100777Y-25538674D02*
X12110301Y-25557722D01*
X12110301Y-25557722D02*
X12110301Y-25662484D01*
X12110301Y-25557722D02*
X12119824Y-25538674D01*
X12119824Y-25538674D02*
X12138872Y-25529150D01*
X12138872Y-25529150D02*
X12167443Y-25529150D01*
X12167443Y-25529150D02*
X12186491Y-25538674D01*
X12186491Y-25538674D02*
X12196015Y-25557722D01*
X12196015Y-25557722D02*
X12196015Y-25662484D01*
X12586491Y-25452960D02*
X12415063Y-25710103D01*
X12843634Y-25462484D02*
X12862682Y-25462484D01*
X12862682Y-25462484D02*
X12881729Y-25472008D01*
X12881729Y-25472008D02*
X12891253Y-25481531D01*
X12891253Y-25481531D02*
X12900777Y-25500579D01*
X12900777Y-25500579D02*
X12910301Y-25538674D01*
X12910301Y-25538674D02*
X12910301Y-25586293D01*
X12910301Y-25586293D02*
X12900777Y-25624388D01*
X12900777Y-25624388D02*
X12891253Y-25643436D01*
X12891253Y-25643436D02*
X12881729Y-25652960D01*
X12881729Y-25652960D02*
X12862682Y-25662484D01*
X12862682Y-25662484D02*
X12843634Y-25662484D01*
X12843634Y-25662484D02*
X12824586Y-25652960D01*
X12824586Y-25652960D02*
X12815063Y-25643436D01*
X12815063Y-25643436D02*
X12805539Y-25624388D01*
X12805539Y-25624388D02*
X12796015Y-25586293D01*
X12796015Y-25586293D02*
X12796015Y-25538674D01*
X12796015Y-25538674D02*
X12805539Y-25500579D01*
X12805539Y-25500579D02*
X12815063Y-25481531D01*
X12815063Y-25481531D02*
X12824586Y-25472008D01*
X12824586Y-25472008D02*
X12843634Y-25462484D01*
X12996015Y-25643436D02*
X13005539Y-25652960D01*
X13005539Y-25652960D02*
X12996015Y-25662484D01*
X12996015Y-25662484D02*
X12986491Y-25652960D01*
X12986491Y-25652960D02*
X12996015Y-25643436D01*
X12996015Y-25643436D02*
X12996015Y-25662484D01*
X13129348Y-25462484D02*
X13148396Y-25462484D01*
X13148396Y-25462484D02*
X13167444Y-25472008D01*
X13167444Y-25472008D02*
X13176967Y-25481531D01*
X13176967Y-25481531D02*
X13186491Y-25500579D01*
X13186491Y-25500579D02*
X13196015Y-25538674D01*
X13196015Y-25538674D02*
X13196015Y-25586293D01*
X13196015Y-25586293D02*
X13186491Y-25624388D01*
X13186491Y-25624388D02*
X13176967Y-25643436D01*
X13176967Y-25643436D02*
X13167444Y-25652960D01*
X13167444Y-25652960D02*
X13148396Y-25662484D01*
X13148396Y-25662484D02*
X13129348Y-25662484D01*
X13129348Y-25662484D02*
X13110301Y-25652960D01*
X13110301Y-25652960D02*
X13100777Y-25643436D01*
X13100777Y-25643436D02*
X13091253Y-25624388D01*
X13091253Y-25624388D02*
X13081729Y-25586293D01*
X13081729Y-25586293D02*
X13081729Y-25538674D01*
X13081729Y-25538674D02*
X13091253Y-25500579D01*
X13091253Y-25500579D02*
X13100777Y-25481531D01*
X13100777Y-25481531D02*
X13110301Y-25472008D01*
X13110301Y-25472008D02*
X13129348Y-25462484D01*
X13262682Y-25462484D02*
X13386491Y-25462484D01*
X13386491Y-25462484D02*
X13319825Y-25538674D01*
X13319825Y-25538674D02*
X13348396Y-25538674D01*
X13348396Y-25538674D02*
X13367444Y-25548198D01*
X13367444Y-25548198D02*
X13376967Y-25557722D01*
X13376967Y-25557722D02*
X13386491Y-25576769D01*
X13386491Y-25576769D02*
X13386491Y-25624388D01*
X13386491Y-25624388D02*
X13376967Y-25643436D01*
X13376967Y-25643436D02*
X13367444Y-25652960D01*
X13367444Y-25652960D02*
X13348396Y-25662484D01*
X13348396Y-25662484D02*
X13291253Y-25662484D01*
X13291253Y-25662484D02*
X13272206Y-25652960D01*
X13272206Y-25652960D02*
X13262682Y-25643436D01*
X13557920Y-25462484D02*
X13519825Y-25462484D01*
X13519825Y-25462484D02*
X13500777Y-25472008D01*
X13500777Y-25472008D02*
X13491253Y-25481531D01*
X13491253Y-25481531D02*
X13472206Y-25510103D01*
X13472206Y-25510103D02*
X13462682Y-25548198D01*
X13462682Y-25548198D02*
X13462682Y-25624388D01*
X13462682Y-25624388D02*
X13472206Y-25643436D01*
X13472206Y-25643436D02*
X13481729Y-25652960D01*
X13481729Y-25652960D02*
X13500777Y-25662484D01*
X13500777Y-25662484D02*
X13538872Y-25662484D01*
X13538872Y-25662484D02*
X13557920Y-25652960D01*
X13557920Y-25652960D02*
X13567444Y-25643436D01*
X13567444Y-25643436D02*
X13576967Y-25624388D01*
X13576967Y-25624388D02*
X13576967Y-25576769D01*
X13576967Y-25576769D02*
X13567444Y-25557722D01*
X13567444Y-25557722D02*
X13557920Y-25548198D01*
X13557920Y-25548198D02*
X13538872Y-25538674D01*
X13538872Y-25538674D02*
X13500777Y-25538674D01*
X13500777Y-25538674D02*
X13481729Y-25548198D01*
X13481729Y-25548198D02*
X13472206Y-25557722D01*
X13472206Y-25557722D02*
X13462682Y-25576769D01*
X13700777Y-25462484D02*
X13719825Y-25462484D01*
X13719825Y-25462484D02*
X13738872Y-25472008D01*
X13738872Y-25472008D02*
X13748396Y-25481531D01*
X13748396Y-25481531D02*
X13757920Y-25500579D01*
X13757920Y-25500579D02*
X13767444Y-25538674D01*
X13767444Y-25538674D02*
X13767444Y-25586293D01*
X13767444Y-25586293D02*
X13757920Y-25624388D01*
X13757920Y-25624388D02*
X13748396Y-25643436D01*
X13748396Y-25643436D02*
X13738872Y-25652960D01*
X13738872Y-25652960D02*
X13719825Y-25662484D01*
X13719825Y-25662484D02*
X13700777Y-25662484D01*
X13700777Y-25662484D02*
X13681729Y-25652960D01*
X13681729Y-25652960D02*
X13672206Y-25643436D01*
X13672206Y-25643436D02*
X13662682Y-25624388D01*
X13662682Y-25624388D02*
X13653158Y-25586293D01*
X13653158Y-25586293D02*
X13653158Y-25538674D01*
X13653158Y-25538674D02*
X13662682Y-25500579D01*
X13662682Y-25500579D02*
X13672206Y-25481531D01*
X13672206Y-25481531D02*
X13681729Y-25472008D01*
X13681729Y-25472008D02*
X13700777Y-25462484D01*
X13843634Y-25462484D02*
X13843634Y-25500579D01*
X13919825Y-25462484D02*
X13919825Y-25500579D01*
X14215063Y-25738674D02*
X14205539Y-25729150D01*
X14205539Y-25729150D02*
X14186491Y-25700579D01*
X14186491Y-25700579D02*
X14176968Y-25681531D01*
X14176968Y-25681531D02*
X14167444Y-25652960D01*
X14167444Y-25652960D02*
X14157920Y-25605341D01*
X14157920Y-25605341D02*
X14157920Y-25567246D01*
X14157920Y-25567246D02*
X14167444Y-25519627D01*
X14167444Y-25519627D02*
X14176968Y-25491055D01*
X14176968Y-25491055D02*
X14186491Y-25472008D01*
X14186491Y-25472008D02*
X14205539Y-25443436D01*
X14205539Y-25443436D02*
X14215063Y-25433912D01*
X14396015Y-25662484D02*
X14281729Y-25662484D01*
X14338872Y-25662484D02*
X14338872Y-25462484D01*
X14338872Y-25462484D02*
X14319825Y-25491055D01*
X14319825Y-25491055D02*
X14300777Y-25510103D01*
X14300777Y-25510103D02*
X14281729Y-25519627D01*
X14472206Y-25481531D02*
X14481729Y-25472008D01*
X14481729Y-25472008D02*
X14500777Y-25462484D01*
X14500777Y-25462484D02*
X14548396Y-25462484D01*
X14548396Y-25462484D02*
X14567444Y-25472008D01*
X14567444Y-25472008D02*
X14576968Y-25481531D01*
X14576968Y-25481531D02*
X14586491Y-25500579D01*
X14586491Y-25500579D02*
X14586491Y-25519627D01*
X14586491Y-25519627D02*
X14576968Y-25548198D01*
X14576968Y-25548198D02*
X14462682Y-25662484D01*
X14462682Y-25662484D02*
X14586491Y-25662484D01*
X14700777Y-25548198D02*
X14681729Y-25538674D01*
X14681729Y-25538674D02*
X14672206Y-25529150D01*
X14672206Y-25529150D02*
X14662682Y-25510103D01*
X14662682Y-25510103D02*
X14662682Y-25500579D01*
X14662682Y-25500579D02*
X14672206Y-25481531D01*
X14672206Y-25481531D02*
X14681729Y-25472008D01*
X14681729Y-25472008D02*
X14700777Y-25462484D01*
X14700777Y-25462484D02*
X14738872Y-25462484D01*
X14738872Y-25462484D02*
X14757920Y-25472008D01*
X14757920Y-25472008D02*
X14767444Y-25481531D01*
X14767444Y-25481531D02*
X14776968Y-25500579D01*
X14776968Y-25500579D02*
X14776968Y-25510103D01*
X14776968Y-25510103D02*
X14767444Y-25529150D01*
X14767444Y-25529150D02*
X14757920Y-25538674D01*
X14757920Y-25538674D02*
X14738872Y-25548198D01*
X14738872Y-25548198D02*
X14700777Y-25548198D01*
X14700777Y-25548198D02*
X14681729Y-25557722D01*
X14681729Y-25557722D02*
X14672206Y-25567246D01*
X14672206Y-25567246D02*
X14662682Y-25586293D01*
X14662682Y-25586293D02*
X14662682Y-25624388D01*
X14662682Y-25624388D02*
X14672206Y-25643436D01*
X14672206Y-25643436D02*
X14681729Y-25652960D01*
X14681729Y-25652960D02*
X14700777Y-25662484D01*
X14700777Y-25662484D02*
X14738872Y-25662484D01*
X14738872Y-25662484D02*
X14757920Y-25652960D01*
X14757920Y-25652960D02*
X14767444Y-25643436D01*
X14767444Y-25643436D02*
X14776968Y-25624388D01*
X14776968Y-25624388D02*
X14776968Y-25586293D01*
X14776968Y-25586293D02*
X14767444Y-25567246D01*
X14767444Y-25567246D02*
X14757920Y-25557722D01*
X14757920Y-25557722D02*
X14738872Y-25548198D01*
X15015063Y-25662484D02*
X15015063Y-25462484D01*
X15100777Y-25662484D02*
X15100777Y-25557722D01*
X15100777Y-25557722D02*
X15091253Y-25538674D01*
X15091253Y-25538674D02*
X15072206Y-25529150D01*
X15072206Y-25529150D02*
X15043634Y-25529150D01*
X15043634Y-25529150D02*
X15024587Y-25538674D01*
X15024587Y-25538674D02*
X15015063Y-25548198D01*
X15224587Y-25662484D02*
X15205539Y-25652960D01*
X15205539Y-25652960D02*
X15196015Y-25643436D01*
X15196015Y-25643436D02*
X15186491Y-25624388D01*
X15186491Y-25624388D02*
X15186491Y-25567246D01*
X15186491Y-25567246D02*
X15196015Y-25548198D01*
X15196015Y-25548198D02*
X15205539Y-25538674D01*
X15205539Y-25538674D02*
X15224587Y-25529150D01*
X15224587Y-25529150D02*
X15253158Y-25529150D01*
X15253158Y-25529150D02*
X15272206Y-25538674D01*
X15272206Y-25538674D02*
X15281730Y-25548198D01*
X15281730Y-25548198D02*
X15291253Y-25567246D01*
X15291253Y-25567246D02*
X15291253Y-25624388D01*
X15291253Y-25624388D02*
X15281730Y-25643436D01*
X15281730Y-25643436D02*
X15272206Y-25652960D01*
X15272206Y-25652960D02*
X15253158Y-25662484D01*
X15253158Y-25662484D02*
X15224587Y-25662484D01*
X15405539Y-25662484D02*
X15386491Y-25652960D01*
X15386491Y-25652960D02*
X15376968Y-25633912D01*
X15376968Y-25633912D02*
X15376968Y-25462484D01*
X15557920Y-25652960D02*
X15538872Y-25662484D01*
X15538872Y-25662484D02*
X15500777Y-25662484D01*
X15500777Y-25662484D02*
X15481730Y-25652960D01*
X15481730Y-25652960D02*
X15472206Y-25633912D01*
X15472206Y-25633912D02*
X15472206Y-25557722D01*
X15472206Y-25557722D02*
X15481730Y-25538674D01*
X15481730Y-25538674D02*
X15500777Y-25529150D01*
X15500777Y-25529150D02*
X15538872Y-25529150D01*
X15538872Y-25529150D02*
X15557920Y-25538674D01*
X15557920Y-25538674D02*
X15567444Y-25557722D01*
X15567444Y-25557722D02*
X15567444Y-25576769D01*
X15567444Y-25576769D02*
X15472206Y-25595817D01*
X15643634Y-25652960D02*
X15662682Y-25662484D01*
X15662682Y-25662484D02*
X15700777Y-25662484D01*
X15700777Y-25662484D02*
X15719825Y-25652960D01*
X15719825Y-25652960D02*
X15729349Y-25633912D01*
X15729349Y-25633912D02*
X15729349Y-25624388D01*
X15729349Y-25624388D02*
X15719825Y-25605341D01*
X15719825Y-25605341D02*
X15700777Y-25595817D01*
X15700777Y-25595817D02*
X15672206Y-25595817D01*
X15672206Y-25595817D02*
X15653158Y-25586293D01*
X15653158Y-25586293D02*
X15643634Y-25567246D01*
X15643634Y-25567246D02*
X15643634Y-25557722D01*
X15643634Y-25557722D02*
X15653158Y-25538674D01*
X15653158Y-25538674D02*
X15672206Y-25529150D01*
X15672206Y-25529150D02*
X15700777Y-25529150D01*
X15700777Y-25529150D02*
X15719825Y-25538674D01*
X15796015Y-25738674D02*
X15805539Y-25729150D01*
X15805539Y-25729150D02*
X15824587Y-25700579D01*
X15824587Y-25700579D02*
X15834111Y-25681531D01*
X15834111Y-25681531D02*
X15843634Y-25652960D01*
X15843634Y-25652960D02*
X15853158Y-25605341D01*
X15853158Y-25605341D02*
X15853158Y-25567246D01*
X15853158Y-25567246D02*
X15843634Y-25519627D01*
X15843634Y-25519627D02*
X15834111Y-25491055D01*
X15834111Y-25491055D02*
X15824587Y-25472008D01*
X15824587Y-25472008D02*
X15805539Y-25443436D01*
X15805539Y-25443436D02*
X15796015Y-25433912D01*
D10*
X10625356Y-25870356D02*
X10625356Y-25799644D01*
X10554644Y-25799644D01*
X10554644Y-25870356D01*
X10625356Y-25870356D01*
D11*
X11005539Y-25926484D02*
X10891253Y-25926484D01*
X10948396Y-25926484D02*
X10948396Y-25726484D01*
X10948396Y-25726484D02*
X10929348Y-25755055D01*
X10929348Y-25755055D02*
X10910301Y-25774103D01*
X10910301Y-25774103D02*
X10891253Y-25783627D01*
X11091253Y-25907436D02*
X11100777Y-25916960D01*
X11100777Y-25916960D02*
X11091253Y-25926484D01*
X11091253Y-25926484D02*
X11081729Y-25916960D01*
X11081729Y-25916960D02*
X11091253Y-25907436D01*
X11091253Y-25907436D02*
X11091253Y-25926484D01*
X11224586Y-25726484D02*
X11243634Y-25726484D01*
X11243634Y-25726484D02*
X11262682Y-25736008D01*
X11262682Y-25736008D02*
X11272205Y-25745531D01*
X11272205Y-25745531D02*
X11281729Y-25764579D01*
X11281729Y-25764579D02*
X11291253Y-25802674D01*
X11291253Y-25802674D02*
X11291253Y-25850293D01*
X11291253Y-25850293D02*
X11281729Y-25888388D01*
X11281729Y-25888388D02*
X11272205Y-25907436D01*
X11272205Y-25907436D02*
X11262682Y-25916960D01*
X11262682Y-25916960D02*
X11243634Y-25926484D01*
X11243634Y-25926484D02*
X11224586Y-25926484D01*
X11224586Y-25926484D02*
X11205539Y-25916960D01*
X11205539Y-25916960D02*
X11196015Y-25907436D01*
X11196015Y-25907436D02*
X11186491Y-25888388D01*
X11186491Y-25888388D02*
X11176967Y-25850293D01*
X11176967Y-25850293D02*
X11176967Y-25802674D01*
X11176967Y-25802674D02*
X11186491Y-25764579D01*
X11186491Y-25764579D02*
X11196015Y-25745531D01*
X11196015Y-25745531D02*
X11205539Y-25736008D01*
X11205539Y-25736008D02*
X11224586Y-25726484D01*
X11415062Y-25726484D02*
X11434110Y-25726484D01*
X11434110Y-25726484D02*
X11453158Y-25736008D01*
X11453158Y-25736008D02*
X11462682Y-25745531D01*
X11462682Y-25745531D02*
X11472205Y-25764579D01*
X11472205Y-25764579D02*
X11481729Y-25802674D01*
X11481729Y-25802674D02*
X11481729Y-25850293D01*
X11481729Y-25850293D02*
X11472205Y-25888388D01*
X11472205Y-25888388D02*
X11462682Y-25907436D01*
X11462682Y-25907436D02*
X11453158Y-25916960D01*
X11453158Y-25916960D02*
X11434110Y-25926484D01*
X11434110Y-25926484D02*
X11415062Y-25926484D01*
X11415062Y-25926484D02*
X11396015Y-25916960D01*
X11396015Y-25916960D02*
X11386491Y-25907436D01*
X11386491Y-25907436D02*
X11376967Y-25888388D01*
X11376967Y-25888388D02*
X11367443Y-25850293D01*
X11367443Y-25850293D02*
X11367443Y-25802674D01*
X11367443Y-25802674D02*
X11376967Y-25764579D01*
X11376967Y-25764579D02*
X11386491Y-25745531D01*
X11386491Y-25745531D02*
X11396015Y-25736008D01*
X11396015Y-25736008D02*
X11415062Y-25726484D01*
X11605539Y-25726484D02*
X11624586Y-25726484D01*
X11624586Y-25726484D02*
X11643634Y-25736008D01*
X11643634Y-25736008D02*
X11653158Y-25745531D01*
X11653158Y-25745531D02*
X11662682Y-25764579D01*
X11662682Y-25764579D02*
X11672205Y-25802674D01*
X11672205Y-25802674D02*
X11672205Y-25850293D01*
X11672205Y-25850293D02*
X11662682Y-25888388D01*
X11662682Y-25888388D02*
X11653158Y-25907436D01*
X11653158Y-25907436D02*
X11643634Y-25916960D01*
X11643634Y-25916960D02*
X11624586Y-25926484D01*
X11624586Y-25926484D02*
X11605539Y-25926484D01*
X11605539Y-25926484D02*
X11586491Y-25916960D01*
X11586491Y-25916960D02*
X11576967Y-25907436D01*
X11576967Y-25907436D02*
X11567443Y-25888388D01*
X11567443Y-25888388D02*
X11557920Y-25850293D01*
X11557920Y-25850293D02*
X11557920Y-25802674D01*
X11557920Y-25802674D02*
X11567443Y-25764579D01*
X11567443Y-25764579D02*
X11576967Y-25745531D01*
X11576967Y-25745531D02*
X11586491Y-25736008D01*
X11586491Y-25736008D02*
X11605539Y-25726484D01*
X11757920Y-25926484D02*
X11757920Y-25793150D01*
X11757920Y-25812198D02*
X11767443Y-25802674D01*
X11767443Y-25802674D02*
X11786491Y-25793150D01*
X11786491Y-25793150D02*
X11815063Y-25793150D01*
X11815063Y-25793150D02*
X11834110Y-25802674D01*
X11834110Y-25802674D02*
X11843634Y-25821722D01*
X11843634Y-25821722D02*
X11843634Y-25926484D01*
X11843634Y-25821722D02*
X11853158Y-25802674D01*
X11853158Y-25802674D02*
X11872205Y-25793150D01*
X11872205Y-25793150D02*
X11900777Y-25793150D01*
X11900777Y-25793150D02*
X11919824Y-25802674D01*
X11919824Y-25802674D02*
X11929348Y-25821722D01*
X11929348Y-25821722D02*
X11929348Y-25926484D01*
X12024586Y-25926484D02*
X12024586Y-25793150D01*
X12024586Y-25812198D02*
X12034110Y-25802674D01*
X12034110Y-25802674D02*
X12053158Y-25793150D01*
X12053158Y-25793150D02*
X12081729Y-25793150D01*
X12081729Y-25793150D02*
X12100777Y-25802674D01*
X12100777Y-25802674D02*
X12110301Y-25821722D01*
X12110301Y-25821722D02*
X12110301Y-25926484D01*
X12110301Y-25821722D02*
X12119824Y-25802674D01*
X12119824Y-25802674D02*
X12138872Y-25793150D01*
X12138872Y-25793150D02*
X12167443Y-25793150D01*
X12167443Y-25793150D02*
X12186491Y-25802674D01*
X12186491Y-25802674D02*
X12196015Y-25821722D01*
X12196015Y-25821722D02*
X12196015Y-25926484D01*
X12586491Y-25716960D02*
X12415063Y-25974103D01*
X12843634Y-25726484D02*
X12862682Y-25726484D01*
X12862682Y-25726484D02*
X12881729Y-25736008D01*
X12881729Y-25736008D02*
X12891253Y-25745531D01*
X12891253Y-25745531D02*
X12900777Y-25764579D01*
X12900777Y-25764579D02*
X12910301Y-25802674D01*
X12910301Y-25802674D02*
X12910301Y-25850293D01*
X12910301Y-25850293D02*
X12900777Y-25888388D01*
X12900777Y-25888388D02*
X12891253Y-25907436D01*
X12891253Y-25907436D02*
X12881729Y-25916960D01*
X12881729Y-25916960D02*
X12862682Y-25926484D01*
X12862682Y-25926484D02*
X12843634Y-25926484D01*
X12843634Y-25926484D02*
X12824586Y-25916960D01*
X12824586Y-25916960D02*
X12815063Y-25907436D01*
X12815063Y-25907436D02*
X12805539Y-25888388D01*
X12805539Y-25888388D02*
X12796015Y-25850293D01*
X12796015Y-25850293D02*
X12796015Y-25802674D01*
X12796015Y-25802674D02*
X12805539Y-25764579D01*
X12805539Y-25764579D02*
X12815063Y-25745531D01*
X12815063Y-25745531D02*
X12824586Y-25736008D01*
X12824586Y-25736008D02*
X12843634Y-25726484D01*
X12996015Y-25907436D02*
X13005539Y-25916960D01*
X13005539Y-25916960D02*
X12996015Y-25926484D01*
X12996015Y-25926484D02*
X12986491Y-25916960D01*
X12986491Y-25916960D02*
X12996015Y-25907436D01*
X12996015Y-25907436D02*
X12996015Y-25926484D01*
X13129348Y-25726484D02*
X13148396Y-25726484D01*
X13148396Y-25726484D02*
X13167444Y-25736008D01*
X13167444Y-25736008D02*
X13176967Y-25745531D01*
X13176967Y-25745531D02*
X13186491Y-25764579D01*
X13186491Y-25764579D02*
X13196015Y-25802674D01*
X13196015Y-25802674D02*
X13196015Y-25850293D01*
X13196015Y-25850293D02*
X13186491Y-25888388D01*
X13186491Y-25888388D02*
X13176967Y-25907436D01*
X13176967Y-25907436D02*
X13167444Y-25916960D01*
X13167444Y-25916960D02*
X13148396Y-25926484D01*
X13148396Y-25926484D02*
X13129348Y-25926484D01*
X13129348Y-25926484D02*
X13110301Y-25916960D01*
X13110301Y-25916960D02*
X13100777Y-25907436D01*
X13100777Y-25907436D02*
X13091253Y-25888388D01*
X13091253Y-25888388D02*
X13081729Y-25850293D01*
X13081729Y-25850293D02*
X13081729Y-25802674D01*
X13081729Y-25802674D02*
X13091253Y-25764579D01*
X13091253Y-25764579D02*
X13100777Y-25745531D01*
X13100777Y-25745531D02*
X13110301Y-25736008D01*
X13110301Y-25736008D02*
X13129348Y-25726484D01*
X13262682Y-25726484D02*
X13386491Y-25726484D01*
X13386491Y-25726484D02*
X13319825Y-25802674D01*
X13319825Y-25802674D02*
X13348396Y-25802674D01*
X13348396Y-25802674D02*
X13367444Y-25812198D01*
X13367444Y-25812198D02*
X13376967Y-25821722D01*
X13376967Y-25821722D02*
X13386491Y-25840769D01*
X13386491Y-25840769D02*
X13386491Y-25888388D01*
X13386491Y-25888388D02*
X13376967Y-25907436D01*
X13376967Y-25907436D02*
X13367444Y-25916960D01*
X13367444Y-25916960D02*
X13348396Y-25926484D01*
X13348396Y-25926484D02*
X13291253Y-25926484D01*
X13291253Y-25926484D02*
X13272206Y-25916960D01*
X13272206Y-25916960D02*
X13262682Y-25907436D01*
X13481729Y-25926484D02*
X13519825Y-25926484D01*
X13519825Y-25926484D02*
X13538872Y-25916960D01*
X13538872Y-25916960D02*
X13548396Y-25907436D01*
X13548396Y-25907436D02*
X13567444Y-25878865D01*
X13567444Y-25878865D02*
X13576967Y-25840769D01*
X13576967Y-25840769D02*
X13576967Y-25764579D01*
X13576967Y-25764579D02*
X13567444Y-25745531D01*
X13567444Y-25745531D02*
X13557920Y-25736008D01*
X13557920Y-25736008D02*
X13538872Y-25726484D01*
X13538872Y-25726484D02*
X13500777Y-25726484D01*
X13500777Y-25726484D02*
X13481729Y-25736008D01*
X13481729Y-25736008D02*
X13472206Y-25745531D01*
X13472206Y-25745531D02*
X13462682Y-25764579D01*
X13462682Y-25764579D02*
X13462682Y-25812198D01*
X13462682Y-25812198D02*
X13472206Y-25831246D01*
X13472206Y-25831246D02*
X13481729Y-25840769D01*
X13481729Y-25840769D02*
X13500777Y-25850293D01*
X13500777Y-25850293D02*
X13538872Y-25850293D01*
X13538872Y-25850293D02*
X13557920Y-25840769D01*
X13557920Y-25840769D02*
X13567444Y-25831246D01*
X13567444Y-25831246D02*
X13576967Y-25812198D01*
X13748396Y-25793150D02*
X13748396Y-25926484D01*
X13700777Y-25716960D02*
X13653158Y-25859817D01*
X13653158Y-25859817D02*
X13776967Y-25859817D01*
X13843634Y-25726484D02*
X13843634Y-25764579D01*
X13919825Y-25726484D02*
X13919825Y-25764579D01*
X14215063Y-26002674D02*
X14205539Y-25993150D01*
X14205539Y-25993150D02*
X14186491Y-25964579D01*
X14186491Y-25964579D02*
X14176968Y-25945531D01*
X14176968Y-25945531D02*
X14167444Y-25916960D01*
X14167444Y-25916960D02*
X14157920Y-25869341D01*
X14157920Y-25869341D02*
X14157920Y-25831246D01*
X14157920Y-25831246D02*
X14167444Y-25783627D01*
X14167444Y-25783627D02*
X14176968Y-25755055D01*
X14176968Y-25755055D02*
X14186491Y-25736008D01*
X14186491Y-25736008D02*
X14205539Y-25707436D01*
X14205539Y-25707436D02*
X14215063Y-25697912D01*
X14376968Y-25793150D02*
X14376968Y-25926484D01*
X14329348Y-25716960D02*
X14281729Y-25859817D01*
X14281729Y-25859817D02*
X14405539Y-25859817D01*
X14634110Y-25926484D02*
X14634110Y-25726484D01*
X14719825Y-25926484D02*
X14719825Y-25821722D01*
X14719825Y-25821722D02*
X14710301Y-25802674D01*
X14710301Y-25802674D02*
X14691253Y-25793150D01*
X14691253Y-25793150D02*
X14662682Y-25793150D01*
X14662682Y-25793150D02*
X14643634Y-25802674D01*
X14643634Y-25802674D02*
X14634110Y-25812198D01*
X14843634Y-25926484D02*
X14824587Y-25916960D01*
X14824587Y-25916960D02*
X14815063Y-25907436D01*
X14815063Y-25907436D02*
X14805539Y-25888388D01*
X14805539Y-25888388D02*
X14805539Y-25831246D01*
X14805539Y-25831246D02*
X14815063Y-25812198D01*
X14815063Y-25812198D02*
X14824587Y-25802674D01*
X14824587Y-25802674D02*
X14843634Y-25793150D01*
X14843634Y-25793150D02*
X14872206Y-25793150D01*
X14872206Y-25793150D02*
X14891253Y-25802674D01*
X14891253Y-25802674D02*
X14900777Y-25812198D01*
X14900777Y-25812198D02*
X14910301Y-25831246D01*
X14910301Y-25831246D02*
X14910301Y-25888388D01*
X14910301Y-25888388D02*
X14900777Y-25907436D01*
X14900777Y-25907436D02*
X14891253Y-25916960D01*
X14891253Y-25916960D02*
X14872206Y-25926484D01*
X14872206Y-25926484D02*
X14843634Y-25926484D01*
X15024587Y-25926484D02*
X15005539Y-25916960D01*
X15005539Y-25916960D02*
X14996015Y-25897912D01*
X14996015Y-25897912D02*
X14996015Y-25726484D01*
X15176968Y-25916960D02*
X15157920Y-25926484D01*
X15157920Y-25926484D02*
X15119825Y-25926484D01*
X15119825Y-25926484D02*
X15100777Y-25916960D01*
X15100777Y-25916960D02*
X15091253Y-25897912D01*
X15091253Y-25897912D02*
X15091253Y-25821722D01*
X15091253Y-25821722D02*
X15100777Y-25802674D01*
X15100777Y-25802674D02*
X15119825Y-25793150D01*
X15119825Y-25793150D02*
X15157920Y-25793150D01*
X15157920Y-25793150D02*
X15176968Y-25802674D01*
X15176968Y-25802674D02*
X15186491Y-25821722D01*
X15186491Y-25821722D02*
X15186491Y-25840769D01*
X15186491Y-25840769D02*
X15091253Y-25859817D01*
X15262682Y-25916960D02*
X15281730Y-25926484D01*
X15281730Y-25926484D02*
X15319825Y-25926484D01*
X15319825Y-25926484D02*
X15338872Y-25916960D01*
X15338872Y-25916960D02*
X15348396Y-25897912D01*
X15348396Y-25897912D02*
X15348396Y-25888388D01*
X15348396Y-25888388D02*
X15338872Y-25869341D01*
X15338872Y-25869341D02*
X15319825Y-25859817D01*
X15319825Y-25859817D02*
X15291253Y-25859817D01*
X15291253Y-25859817D02*
X15272206Y-25850293D01*
X15272206Y-25850293D02*
X15262682Y-25831246D01*
X15262682Y-25831246D02*
X15262682Y-25821722D01*
X15262682Y-25821722D02*
X15272206Y-25802674D01*
X15272206Y-25802674D02*
X15291253Y-25793150D01*
X15291253Y-25793150D02*
X15319825Y-25793150D01*
X15319825Y-25793150D02*
X15338872Y-25802674D01*
X15415063Y-26002674D02*
X15424587Y-25993150D01*
X15424587Y-25993150D02*
X15443634Y-25964579D01*
X15443634Y-25964579D02*
X15453158Y-25945531D01*
X15453158Y-25945531D02*
X15462682Y-25916960D01*
X15462682Y-25916960D02*
X15472206Y-25869341D01*
X15472206Y-25869341D02*
X15472206Y-25831246D01*
X15472206Y-25831246D02*
X15462682Y-25783627D01*
X15462682Y-25783627D02*
X15453158Y-25755055D01*
X15453158Y-25755055D02*
X15443634Y-25736008D01*
X15443634Y-25736008D02*
X15424587Y-25707436D01*
X15424587Y-25707436D02*
X15415063Y-25697912D01*
D12*
X10587500Y-26151500D02*
X10640000Y-26099000D01*
X10587500Y-26046500D01*
X10535000Y-26099000D01*
X10587500Y-26151500D01*
D11*
X11005539Y-26190484D02*
X10891253Y-26190484D01*
X10948396Y-26190484D02*
X10948396Y-25990484D01*
X10948396Y-25990484D02*
X10929348Y-26019055D01*
X10929348Y-26019055D02*
X10910301Y-26038103D01*
X10910301Y-26038103D02*
X10891253Y-26047627D01*
X11091253Y-26171436D02*
X11100777Y-26180960D01*
X11100777Y-26180960D02*
X11091253Y-26190484D01*
X11091253Y-26190484D02*
X11081729Y-26180960D01*
X11081729Y-26180960D02*
X11091253Y-26171436D01*
X11091253Y-26171436D02*
X11091253Y-26190484D01*
X11224586Y-25990484D02*
X11243634Y-25990484D01*
X11243634Y-25990484D02*
X11262682Y-26000008D01*
X11262682Y-26000008D02*
X11272205Y-26009531D01*
X11272205Y-26009531D02*
X11281729Y-26028579D01*
X11281729Y-26028579D02*
X11291253Y-26066674D01*
X11291253Y-26066674D02*
X11291253Y-26114293D01*
X11291253Y-26114293D02*
X11281729Y-26152388D01*
X11281729Y-26152388D02*
X11272205Y-26171436D01*
X11272205Y-26171436D02*
X11262682Y-26180960D01*
X11262682Y-26180960D02*
X11243634Y-26190484D01*
X11243634Y-26190484D02*
X11224586Y-26190484D01*
X11224586Y-26190484D02*
X11205539Y-26180960D01*
X11205539Y-26180960D02*
X11196015Y-26171436D01*
X11196015Y-26171436D02*
X11186491Y-26152388D01*
X11186491Y-26152388D02*
X11176967Y-26114293D01*
X11176967Y-26114293D02*
X11176967Y-26066674D01*
X11176967Y-26066674D02*
X11186491Y-26028579D01*
X11186491Y-26028579D02*
X11196015Y-26009531D01*
X11196015Y-26009531D02*
X11205539Y-26000008D01*
X11205539Y-26000008D02*
X11224586Y-25990484D01*
X11472205Y-25990484D02*
X11376967Y-25990484D01*
X11376967Y-25990484D02*
X11367443Y-26085722D01*
X11367443Y-26085722D02*
X11376967Y-26076198D01*
X11376967Y-26076198D02*
X11396015Y-26066674D01*
X11396015Y-26066674D02*
X11443634Y-26066674D01*
X11443634Y-26066674D02*
X11462682Y-26076198D01*
X11462682Y-26076198D02*
X11472205Y-26085722D01*
X11472205Y-26085722D02*
X11481729Y-26104769D01*
X11481729Y-26104769D02*
X11481729Y-26152388D01*
X11481729Y-26152388D02*
X11472205Y-26171436D01*
X11472205Y-26171436D02*
X11462682Y-26180960D01*
X11462682Y-26180960D02*
X11443634Y-26190484D01*
X11443634Y-26190484D02*
X11396015Y-26190484D01*
X11396015Y-26190484D02*
X11376967Y-26180960D01*
X11376967Y-26180960D02*
X11367443Y-26171436D01*
X11605539Y-25990484D02*
X11624586Y-25990484D01*
X11624586Y-25990484D02*
X11643634Y-26000008D01*
X11643634Y-26000008D02*
X11653158Y-26009531D01*
X11653158Y-26009531D02*
X11662682Y-26028579D01*
X11662682Y-26028579D02*
X11672205Y-26066674D01*
X11672205Y-26066674D02*
X11672205Y-26114293D01*
X11672205Y-26114293D02*
X11662682Y-26152388D01*
X11662682Y-26152388D02*
X11653158Y-26171436D01*
X11653158Y-26171436D02*
X11643634Y-26180960D01*
X11643634Y-26180960D02*
X11624586Y-26190484D01*
X11624586Y-26190484D02*
X11605539Y-26190484D01*
X11605539Y-26190484D02*
X11586491Y-26180960D01*
X11586491Y-26180960D02*
X11576967Y-26171436D01*
X11576967Y-26171436D02*
X11567443Y-26152388D01*
X11567443Y-26152388D02*
X11557920Y-26114293D01*
X11557920Y-26114293D02*
X11557920Y-26066674D01*
X11557920Y-26066674D02*
X11567443Y-26028579D01*
X11567443Y-26028579D02*
X11576967Y-26009531D01*
X11576967Y-26009531D02*
X11586491Y-26000008D01*
X11586491Y-26000008D02*
X11605539Y-25990484D01*
X11757920Y-26190484D02*
X11757920Y-26057150D01*
X11757920Y-26076198D02*
X11767443Y-26066674D01*
X11767443Y-26066674D02*
X11786491Y-26057150D01*
X11786491Y-26057150D02*
X11815063Y-26057150D01*
X11815063Y-26057150D02*
X11834110Y-26066674D01*
X11834110Y-26066674D02*
X11843634Y-26085722D01*
X11843634Y-26085722D02*
X11843634Y-26190484D01*
X11843634Y-26085722D02*
X11853158Y-26066674D01*
X11853158Y-26066674D02*
X11872205Y-26057150D01*
X11872205Y-26057150D02*
X11900777Y-26057150D01*
X11900777Y-26057150D02*
X11919824Y-26066674D01*
X11919824Y-26066674D02*
X11929348Y-26085722D01*
X11929348Y-26085722D02*
X11929348Y-26190484D01*
X12024586Y-26190484D02*
X12024586Y-26057150D01*
X12024586Y-26076198D02*
X12034110Y-26066674D01*
X12034110Y-26066674D02*
X12053158Y-26057150D01*
X12053158Y-26057150D02*
X12081729Y-26057150D01*
X12081729Y-26057150D02*
X12100777Y-26066674D01*
X12100777Y-26066674D02*
X12110301Y-26085722D01*
X12110301Y-26085722D02*
X12110301Y-26190484D01*
X12110301Y-26085722D02*
X12119824Y-26066674D01*
X12119824Y-26066674D02*
X12138872Y-26057150D01*
X12138872Y-26057150D02*
X12167443Y-26057150D01*
X12167443Y-26057150D02*
X12186491Y-26066674D01*
X12186491Y-26066674D02*
X12196015Y-26085722D01*
X12196015Y-26085722D02*
X12196015Y-26190484D01*
X12586491Y-25980960D02*
X12415063Y-26238103D01*
X12843634Y-25990484D02*
X12862682Y-25990484D01*
X12862682Y-25990484D02*
X12881729Y-26000008D01*
X12881729Y-26000008D02*
X12891253Y-26009531D01*
X12891253Y-26009531D02*
X12900777Y-26028579D01*
X12900777Y-26028579D02*
X12910301Y-26066674D01*
X12910301Y-26066674D02*
X12910301Y-26114293D01*
X12910301Y-26114293D02*
X12900777Y-26152388D01*
X12900777Y-26152388D02*
X12891253Y-26171436D01*
X12891253Y-26171436D02*
X12881729Y-26180960D01*
X12881729Y-26180960D02*
X12862682Y-26190484D01*
X12862682Y-26190484D02*
X12843634Y-26190484D01*
X12843634Y-26190484D02*
X12824586Y-26180960D01*
X12824586Y-26180960D02*
X12815063Y-26171436D01*
X12815063Y-26171436D02*
X12805539Y-26152388D01*
X12805539Y-26152388D02*
X12796015Y-26114293D01*
X12796015Y-26114293D02*
X12796015Y-26066674D01*
X12796015Y-26066674D02*
X12805539Y-26028579D01*
X12805539Y-26028579D02*
X12815063Y-26009531D01*
X12815063Y-26009531D02*
X12824586Y-26000008D01*
X12824586Y-26000008D02*
X12843634Y-25990484D01*
X12996015Y-26171436D02*
X13005539Y-26180960D01*
X13005539Y-26180960D02*
X12996015Y-26190484D01*
X12996015Y-26190484D02*
X12986491Y-26180960D01*
X12986491Y-26180960D02*
X12996015Y-26171436D01*
X12996015Y-26171436D02*
X12996015Y-26190484D01*
X13129348Y-25990484D02*
X13148396Y-25990484D01*
X13148396Y-25990484D02*
X13167444Y-26000008D01*
X13167444Y-26000008D02*
X13176967Y-26009531D01*
X13176967Y-26009531D02*
X13186491Y-26028579D01*
X13186491Y-26028579D02*
X13196015Y-26066674D01*
X13196015Y-26066674D02*
X13196015Y-26114293D01*
X13196015Y-26114293D02*
X13186491Y-26152388D01*
X13186491Y-26152388D02*
X13176967Y-26171436D01*
X13176967Y-26171436D02*
X13167444Y-26180960D01*
X13167444Y-26180960D02*
X13148396Y-26190484D01*
X13148396Y-26190484D02*
X13129348Y-26190484D01*
X13129348Y-26190484D02*
X13110301Y-26180960D01*
X13110301Y-26180960D02*
X13100777Y-26171436D01*
X13100777Y-26171436D02*
X13091253Y-26152388D01*
X13091253Y-26152388D02*
X13081729Y-26114293D01*
X13081729Y-26114293D02*
X13081729Y-26066674D01*
X13081729Y-26066674D02*
X13091253Y-26028579D01*
X13091253Y-26028579D02*
X13100777Y-26009531D01*
X13100777Y-26009531D02*
X13110301Y-26000008D01*
X13110301Y-26000008D02*
X13129348Y-25990484D01*
X13367444Y-26057150D02*
X13367444Y-26190484D01*
X13319825Y-25980960D02*
X13272206Y-26123817D01*
X13272206Y-26123817D02*
X13396015Y-26123817D01*
X13576967Y-26190484D02*
X13462682Y-26190484D01*
X13519825Y-26190484D02*
X13519825Y-25990484D01*
X13519825Y-25990484D02*
X13500777Y-26019055D01*
X13500777Y-26019055D02*
X13481729Y-26038103D01*
X13481729Y-26038103D02*
X13462682Y-26047627D01*
X13643634Y-25990484D02*
X13767444Y-25990484D01*
X13767444Y-25990484D02*
X13700777Y-26066674D01*
X13700777Y-26066674D02*
X13729348Y-26066674D01*
X13729348Y-26066674D02*
X13748396Y-26076198D01*
X13748396Y-26076198D02*
X13757920Y-26085722D01*
X13757920Y-26085722D02*
X13767444Y-26104769D01*
X13767444Y-26104769D02*
X13767444Y-26152388D01*
X13767444Y-26152388D02*
X13757920Y-26171436D01*
X13757920Y-26171436D02*
X13748396Y-26180960D01*
X13748396Y-26180960D02*
X13729348Y-26190484D01*
X13729348Y-26190484D02*
X13672206Y-26190484D01*
X13672206Y-26190484D02*
X13653158Y-26180960D01*
X13653158Y-26180960D02*
X13643634Y-26171436D01*
X13843634Y-25990484D02*
X13843634Y-26028579D01*
X13919825Y-25990484D02*
X13919825Y-26028579D01*
X14215063Y-26266674D02*
X14205539Y-26257150D01*
X14205539Y-26257150D02*
X14186491Y-26228579D01*
X14186491Y-26228579D02*
X14176968Y-26209531D01*
X14176968Y-26209531D02*
X14167444Y-26180960D01*
X14167444Y-26180960D02*
X14157920Y-26133341D01*
X14157920Y-26133341D02*
X14157920Y-26095246D01*
X14157920Y-26095246D02*
X14167444Y-26047627D01*
X14167444Y-26047627D02*
X14176968Y-26019055D01*
X14176968Y-26019055D02*
X14186491Y-26000008D01*
X14186491Y-26000008D02*
X14205539Y-25971436D01*
X14205539Y-25971436D02*
X14215063Y-25961912D01*
X14329348Y-25990484D02*
X14348396Y-25990484D01*
X14348396Y-25990484D02*
X14367444Y-26000008D01*
X14367444Y-26000008D02*
X14376968Y-26009531D01*
X14376968Y-26009531D02*
X14386491Y-26028579D01*
X14386491Y-26028579D02*
X14396015Y-26066674D01*
X14396015Y-26066674D02*
X14396015Y-26114293D01*
X14396015Y-26114293D02*
X14386491Y-26152388D01*
X14386491Y-26152388D02*
X14376968Y-26171436D01*
X14376968Y-26171436D02*
X14367444Y-26180960D01*
X14367444Y-26180960D02*
X14348396Y-26190484D01*
X14348396Y-26190484D02*
X14329348Y-26190484D01*
X14329348Y-26190484D02*
X14310301Y-26180960D01*
X14310301Y-26180960D02*
X14300777Y-26171436D01*
X14300777Y-26171436D02*
X14291253Y-26152388D01*
X14291253Y-26152388D02*
X14281729Y-26114293D01*
X14281729Y-26114293D02*
X14281729Y-26066674D01*
X14281729Y-26066674D02*
X14291253Y-26028579D01*
X14291253Y-26028579D02*
X14300777Y-26009531D01*
X14300777Y-26009531D02*
X14310301Y-26000008D01*
X14310301Y-26000008D02*
X14329348Y-25990484D01*
X14634110Y-26190484D02*
X14634110Y-25990484D01*
X14719825Y-26190484D02*
X14719825Y-26085722D01*
X14719825Y-26085722D02*
X14710301Y-26066674D01*
X14710301Y-26066674D02*
X14691253Y-26057150D01*
X14691253Y-26057150D02*
X14662682Y-26057150D01*
X14662682Y-26057150D02*
X14643634Y-26066674D01*
X14643634Y-26066674D02*
X14634110Y-26076198D01*
X14843634Y-26190484D02*
X14824587Y-26180960D01*
X14824587Y-26180960D02*
X14815063Y-26171436D01*
X14815063Y-26171436D02*
X14805539Y-26152388D01*
X14805539Y-26152388D02*
X14805539Y-26095246D01*
X14805539Y-26095246D02*
X14815063Y-26076198D01*
X14815063Y-26076198D02*
X14824587Y-26066674D01*
X14824587Y-26066674D02*
X14843634Y-26057150D01*
X14843634Y-26057150D02*
X14872206Y-26057150D01*
X14872206Y-26057150D02*
X14891253Y-26066674D01*
X14891253Y-26066674D02*
X14900777Y-26076198D01*
X14900777Y-26076198D02*
X14910301Y-26095246D01*
X14910301Y-26095246D02*
X14910301Y-26152388D01*
X14910301Y-26152388D02*
X14900777Y-26171436D01*
X14900777Y-26171436D02*
X14891253Y-26180960D01*
X14891253Y-26180960D02*
X14872206Y-26190484D01*
X14872206Y-26190484D02*
X14843634Y-26190484D01*
X15024587Y-26190484D02*
X15005539Y-26180960D01*
X15005539Y-26180960D02*
X14996015Y-26161912D01*
X14996015Y-26161912D02*
X14996015Y-25990484D01*
X15176968Y-26180960D02*
X15157920Y-26190484D01*
X15157920Y-26190484D02*
X15119825Y-26190484D01*
X15119825Y-26190484D02*
X15100777Y-26180960D01*
X15100777Y-26180960D02*
X15091253Y-26161912D01*
X15091253Y-26161912D02*
X15091253Y-26085722D01*
X15091253Y-26085722D02*
X15100777Y-26066674D01*
X15100777Y-26066674D02*
X15119825Y-26057150D01*
X15119825Y-26057150D02*
X15157920Y-26057150D01*
X15157920Y-26057150D02*
X15176968Y-26066674D01*
X15176968Y-26066674D02*
X15186491Y-26085722D01*
X15186491Y-26085722D02*
X15186491Y-26104769D01*
X15186491Y-26104769D02*
X15091253Y-26123817D01*
X15262682Y-26180960D02*
X15281730Y-26190484D01*
X15281730Y-26190484D02*
X15319825Y-26190484D01*
X15319825Y-26190484D02*
X15338872Y-26180960D01*
X15338872Y-26180960D02*
X15348396Y-26161912D01*
X15348396Y-26161912D02*
X15348396Y-26152388D01*
X15348396Y-26152388D02*
X15338872Y-26133341D01*
X15338872Y-26133341D02*
X15319825Y-26123817D01*
X15319825Y-26123817D02*
X15291253Y-26123817D01*
X15291253Y-26123817D02*
X15272206Y-26114293D01*
X15272206Y-26114293D02*
X15262682Y-26095246D01*
X15262682Y-26095246D02*
X15262682Y-26085722D01*
X15262682Y-26085722D02*
X15272206Y-26066674D01*
X15272206Y-26066674D02*
X15291253Y-26057150D01*
X15291253Y-26057150D02*
X15319825Y-26057150D01*
X15319825Y-26057150D02*
X15338872Y-26066674D01*
X15586492Y-26114293D02*
X15738873Y-26114293D01*
X15662682Y-26190484D02*
X15662682Y-26038103D01*
X15976968Y-26009531D02*
X15986492Y-26000008D01*
X15986492Y-26000008D02*
X16005539Y-25990484D01*
X16005539Y-25990484D02*
X16053158Y-25990484D01*
X16053158Y-25990484D02*
X16072206Y-26000008D01*
X16072206Y-26000008D02*
X16081730Y-26009531D01*
X16081730Y-26009531D02*
X16091253Y-26028579D01*
X16091253Y-26028579D02*
X16091253Y-26047627D01*
X16091253Y-26047627D02*
X16081730Y-26076198D01*
X16081730Y-26076198D02*
X15967444Y-26190484D01*
X15967444Y-26190484D02*
X16091253Y-26190484D01*
X16319825Y-26180960D02*
X16338873Y-26190484D01*
X16338873Y-26190484D02*
X16376968Y-26190484D01*
X16376968Y-26190484D02*
X16396015Y-26180960D01*
X16396015Y-26180960D02*
X16405539Y-26161912D01*
X16405539Y-26161912D02*
X16405539Y-26152388D01*
X16405539Y-26152388D02*
X16396015Y-26133341D01*
X16396015Y-26133341D02*
X16376968Y-26123817D01*
X16376968Y-26123817D02*
X16348396Y-26123817D01*
X16348396Y-26123817D02*
X16329349Y-26114293D01*
X16329349Y-26114293D02*
X16319825Y-26095246D01*
X16319825Y-26095246D02*
X16319825Y-26085722D01*
X16319825Y-26085722D02*
X16329349Y-26066674D01*
X16329349Y-26066674D02*
X16348396Y-26057150D01*
X16348396Y-26057150D02*
X16376968Y-26057150D01*
X16376968Y-26057150D02*
X16396015Y-26066674D01*
X16519825Y-26190484D02*
X16500777Y-26180960D01*
X16500777Y-26180960D02*
X16491254Y-26161912D01*
X16491254Y-26161912D02*
X16491254Y-25990484D01*
X16624587Y-26190484D02*
X16605539Y-26180960D01*
X16605539Y-26180960D02*
X16596015Y-26171436D01*
X16596015Y-26171436D02*
X16586492Y-26152388D01*
X16586492Y-26152388D02*
X16586492Y-26095246D01*
X16586492Y-26095246D02*
X16596015Y-26076198D01*
X16596015Y-26076198D02*
X16605539Y-26066674D01*
X16605539Y-26066674D02*
X16624587Y-26057150D01*
X16624587Y-26057150D02*
X16653158Y-26057150D01*
X16653158Y-26057150D02*
X16672206Y-26066674D01*
X16672206Y-26066674D02*
X16681730Y-26076198D01*
X16681730Y-26076198D02*
X16691254Y-26095246D01*
X16691254Y-26095246D02*
X16691254Y-26152388D01*
X16691254Y-26152388D02*
X16681730Y-26171436D01*
X16681730Y-26171436D02*
X16672206Y-26180960D01*
X16672206Y-26180960D02*
X16653158Y-26190484D01*
X16653158Y-26190484D02*
X16624587Y-26190484D01*
X16748396Y-26057150D02*
X16824587Y-26057150D01*
X16776968Y-25990484D02*
X16776968Y-26161912D01*
X16776968Y-26161912D02*
X16786492Y-26180960D01*
X16786492Y-26180960D02*
X16805539Y-26190484D01*
X16805539Y-26190484D02*
X16824587Y-26190484D01*
X16881730Y-26180960D02*
X16900777Y-26190484D01*
X16900777Y-26190484D02*
X16938873Y-26190484D01*
X16938873Y-26190484D02*
X16957920Y-26180960D01*
X16957920Y-26180960D02*
X16967444Y-26161912D01*
X16967444Y-26161912D02*
X16967444Y-26152388D01*
X16967444Y-26152388D02*
X16957920Y-26133341D01*
X16957920Y-26133341D02*
X16938873Y-26123817D01*
X16938873Y-26123817D02*
X16910301Y-26123817D01*
X16910301Y-26123817D02*
X16891254Y-26114293D01*
X16891254Y-26114293D02*
X16881730Y-26095246D01*
X16881730Y-26095246D02*
X16881730Y-26085722D01*
X16881730Y-26085722D02*
X16891254Y-26066674D01*
X16891254Y-26066674D02*
X16910301Y-26057150D01*
X16910301Y-26057150D02*
X16938873Y-26057150D01*
X16938873Y-26057150D02*
X16957920Y-26066674D01*
X17034111Y-26266674D02*
X17043635Y-26257150D01*
X17043635Y-26257150D02*
X17062682Y-26228579D01*
X17062682Y-26228579D02*
X17072206Y-26209531D01*
X17072206Y-26209531D02*
X17081730Y-26180960D01*
X17081730Y-26180960D02*
X17091254Y-26133341D01*
X17091254Y-26133341D02*
X17091254Y-26095246D01*
X17091254Y-26095246D02*
X17081730Y-26047627D01*
X17081730Y-26047627D02*
X17072206Y-26019055D01*
X17072206Y-26019055D02*
X17062682Y-26000008D01*
X17062682Y-26000008D02*
X17043635Y-25971436D01*
X17043635Y-25971436D02*
X17034111Y-25961912D01*
D13*
X10530000Y-26308000D02*
X10640000Y-26418000D01*
X10640000Y-26308000D02*
X10530000Y-26418000D01*
X10640000Y-26363000D02*
G75*
G02*
X10530000Y-26363000I-55000J0D01*
G01*
X10530000Y-26363000D02*
G75*
G02*
X10640000Y-26363000I55000J0D01*
G01*
D11*
X11005539Y-26454484D02*
X10891253Y-26454484D01*
X10948396Y-26454484D02*
X10948396Y-26254484D01*
X10948396Y-26254484D02*
X10929348Y-26283055D01*
X10929348Y-26283055D02*
X10910301Y-26302103D01*
X10910301Y-26302103D02*
X10891253Y-26311627D01*
X11091253Y-26435436D02*
X11100777Y-26444960D01*
X11100777Y-26444960D02*
X11091253Y-26454484D01*
X11091253Y-26454484D02*
X11081729Y-26444960D01*
X11081729Y-26444960D02*
X11091253Y-26435436D01*
X11091253Y-26435436D02*
X11091253Y-26454484D01*
X11291253Y-26454484D02*
X11176967Y-26454484D01*
X11234110Y-26454484D02*
X11234110Y-26254484D01*
X11234110Y-26254484D02*
X11215062Y-26283055D01*
X11215062Y-26283055D02*
X11196015Y-26302103D01*
X11196015Y-26302103D02*
X11176967Y-26311627D01*
X11415062Y-26254484D02*
X11434110Y-26254484D01*
X11434110Y-26254484D02*
X11453158Y-26264008D01*
X11453158Y-26264008D02*
X11462682Y-26273531D01*
X11462682Y-26273531D02*
X11472205Y-26292579D01*
X11472205Y-26292579D02*
X11481729Y-26330674D01*
X11481729Y-26330674D02*
X11481729Y-26378293D01*
X11481729Y-26378293D02*
X11472205Y-26416388D01*
X11472205Y-26416388D02*
X11462682Y-26435436D01*
X11462682Y-26435436D02*
X11453158Y-26444960D01*
X11453158Y-26444960D02*
X11434110Y-26454484D01*
X11434110Y-26454484D02*
X11415062Y-26454484D01*
X11415062Y-26454484D02*
X11396015Y-26444960D01*
X11396015Y-26444960D02*
X11386491Y-26435436D01*
X11386491Y-26435436D02*
X11376967Y-26416388D01*
X11376967Y-26416388D02*
X11367443Y-26378293D01*
X11367443Y-26378293D02*
X11367443Y-26330674D01*
X11367443Y-26330674D02*
X11376967Y-26292579D01*
X11376967Y-26292579D02*
X11386491Y-26273531D01*
X11386491Y-26273531D02*
X11396015Y-26264008D01*
X11396015Y-26264008D02*
X11415062Y-26254484D01*
X11605539Y-26254484D02*
X11624586Y-26254484D01*
X11624586Y-26254484D02*
X11643634Y-26264008D01*
X11643634Y-26264008D02*
X11653158Y-26273531D01*
X11653158Y-26273531D02*
X11662682Y-26292579D01*
X11662682Y-26292579D02*
X11672205Y-26330674D01*
X11672205Y-26330674D02*
X11672205Y-26378293D01*
X11672205Y-26378293D02*
X11662682Y-26416388D01*
X11662682Y-26416388D02*
X11653158Y-26435436D01*
X11653158Y-26435436D02*
X11643634Y-26444960D01*
X11643634Y-26444960D02*
X11624586Y-26454484D01*
X11624586Y-26454484D02*
X11605539Y-26454484D01*
X11605539Y-26454484D02*
X11586491Y-26444960D01*
X11586491Y-26444960D02*
X11576967Y-26435436D01*
X11576967Y-26435436D02*
X11567443Y-26416388D01*
X11567443Y-26416388D02*
X11557920Y-26378293D01*
X11557920Y-26378293D02*
X11557920Y-26330674D01*
X11557920Y-26330674D02*
X11567443Y-26292579D01*
X11567443Y-26292579D02*
X11576967Y-26273531D01*
X11576967Y-26273531D02*
X11586491Y-26264008D01*
X11586491Y-26264008D02*
X11605539Y-26254484D01*
X11757920Y-26454484D02*
X11757920Y-26321150D01*
X11757920Y-26340198D02*
X11767443Y-26330674D01*
X11767443Y-26330674D02*
X11786491Y-26321150D01*
X11786491Y-26321150D02*
X11815063Y-26321150D01*
X11815063Y-26321150D02*
X11834110Y-26330674D01*
X11834110Y-26330674D02*
X11843634Y-26349722D01*
X11843634Y-26349722D02*
X11843634Y-26454484D01*
X11843634Y-26349722D02*
X11853158Y-26330674D01*
X11853158Y-26330674D02*
X11872205Y-26321150D01*
X11872205Y-26321150D02*
X11900777Y-26321150D01*
X11900777Y-26321150D02*
X11919824Y-26330674D01*
X11919824Y-26330674D02*
X11929348Y-26349722D01*
X11929348Y-26349722D02*
X11929348Y-26454484D01*
X12024586Y-26454484D02*
X12024586Y-26321150D01*
X12024586Y-26340198D02*
X12034110Y-26330674D01*
X12034110Y-26330674D02*
X12053158Y-26321150D01*
X12053158Y-26321150D02*
X12081729Y-26321150D01*
X12081729Y-26321150D02*
X12100777Y-26330674D01*
X12100777Y-26330674D02*
X12110301Y-26349722D01*
X12110301Y-26349722D02*
X12110301Y-26454484D01*
X12110301Y-26349722D02*
X12119824Y-26330674D01*
X12119824Y-26330674D02*
X12138872Y-26321150D01*
X12138872Y-26321150D02*
X12167443Y-26321150D01*
X12167443Y-26321150D02*
X12186491Y-26330674D01*
X12186491Y-26330674D02*
X12196015Y-26349722D01*
X12196015Y-26349722D02*
X12196015Y-26454484D01*
X12586491Y-26244960D02*
X12415063Y-26502103D01*
X12843634Y-26254484D02*
X12862682Y-26254484D01*
X12862682Y-26254484D02*
X12881729Y-26264008D01*
X12881729Y-26264008D02*
X12891253Y-26273531D01*
X12891253Y-26273531D02*
X12900777Y-26292579D01*
X12900777Y-26292579D02*
X12910301Y-26330674D01*
X12910301Y-26330674D02*
X12910301Y-26378293D01*
X12910301Y-26378293D02*
X12900777Y-26416388D01*
X12900777Y-26416388D02*
X12891253Y-26435436D01*
X12891253Y-26435436D02*
X12881729Y-26444960D01*
X12881729Y-26444960D02*
X12862682Y-26454484D01*
X12862682Y-26454484D02*
X12843634Y-26454484D01*
X12843634Y-26454484D02*
X12824586Y-26444960D01*
X12824586Y-26444960D02*
X12815063Y-26435436D01*
X12815063Y-26435436D02*
X12805539Y-26416388D01*
X12805539Y-26416388D02*
X12796015Y-26378293D01*
X12796015Y-26378293D02*
X12796015Y-26330674D01*
X12796015Y-26330674D02*
X12805539Y-26292579D01*
X12805539Y-26292579D02*
X12815063Y-26273531D01*
X12815063Y-26273531D02*
X12824586Y-26264008D01*
X12824586Y-26264008D02*
X12843634Y-26254484D01*
X12996015Y-26435436D02*
X13005539Y-26444960D01*
X13005539Y-26444960D02*
X12996015Y-26454484D01*
X12996015Y-26454484D02*
X12986491Y-26444960D01*
X12986491Y-26444960D02*
X12996015Y-26435436D01*
X12996015Y-26435436D02*
X12996015Y-26454484D01*
X13129348Y-26254484D02*
X13148396Y-26254484D01*
X13148396Y-26254484D02*
X13167444Y-26264008D01*
X13167444Y-26264008D02*
X13176967Y-26273531D01*
X13176967Y-26273531D02*
X13186491Y-26292579D01*
X13186491Y-26292579D02*
X13196015Y-26330674D01*
X13196015Y-26330674D02*
X13196015Y-26378293D01*
X13196015Y-26378293D02*
X13186491Y-26416388D01*
X13186491Y-26416388D02*
X13176967Y-26435436D01*
X13176967Y-26435436D02*
X13167444Y-26444960D01*
X13167444Y-26444960D02*
X13148396Y-26454484D01*
X13148396Y-26454484D02*
X13129348Y-26454484D01*
X13129348Y-26454484D02*
X13110301Y-26444960D01*
X13110301Y-26444960D02*
X13100777Y-26435436D01*
X13100777Y-26435436D02*
X13091253Y-26416388D01*
X13091253Y-26416388D02*
X13081729Y-26378293D01*
X13081729Y-26378293D02*
X13081729Y-26330674D01*
X13081729Y-26330674D02*
X13091253Y-26292579D01*
X13091253Y-26292579D02*
X13100777Y-26273531D01*
X13100777Y-26273531D02*
X13110301Y-26264008D01*
X13110301Y-26264008D02*
X13129348Y-26254484D01*
X13367444Y-26321150D02*
X13367444Y-26454484D01*
X13319825Y-26244960D02*
X13272206Y-26387817D01*
X13272206Y-26387817D02*
X13396015Y-26387817D01*
X13453158Y-26254484D02*
X13576967Y-26254484D01*
X13576967Y-26254484D02*
X13510301Y-26330674D01*
X13510301Y-26330674D02*
X13538872Y-26330674D01*
X13538872Y-26330674D02*
X13557920Y-26340198D01*
X13557920Y-26340198D02*
X13567444Y-26349722D01*
X13567444Y-26349722D02*
X13576967Y-26368769D01*
X13576967Y-26368769D02*
X13576967Y-26416388D01*
X13576967Y-26416388D02*
X13567444Y-26435436D01*
X13567444Y-26435436D02*
X13557920Y-26444960D01*
X13557920Y-26444960D02*
X13538872Y-26454484D01*
X13538872Y-26454484D02*
X13481729Y-26454484D01*
X13481729Y-26454484D02*
X13462682Y-26444960D01*
X13462682Y-26444960D02*
X13453158Y-26435436D01*
X13643634Y-26254484D02*
X13767444Y-26254484D01*
X13767444Y-26254484D02*
X13700777Y-26330674D01*
X13700777Y-26330674D02*
X13729348Y-26330674D01*
X13729348Y-26330674D02*
X13748396Y-26340198D01*
X13748396Y-26340198D02*
X13757920Y-26349722D01*
X13757920Y-26349722D02*
X13767444Y-26368769D01*
X13767444Y-26368769D02*
X13767444Y-26416388D01*
X13767444Y-26416388D02*
X13757920Y-26435436D01*
X13757920Y-26435436D02*
X13748396Y-26444960D01*
X13748396Y-26444960D02*
X13729348Y-26454484D01*
X13729348Y-26454484D02*
X13672206Y-26454484D01*
X13672206Y-26454484D02*
X13653158Y-26444960D01*
X13653158Y-26444960D02*
X13643634Y-26435436D01*
X13843634Y-26254484D02*
X13843634Y-26292579D01*
X13919825Y-26254484D02*
X13919825Y-26292579D01*
X14215063Y-26530674D02*
X14205539Y-26521150D01*
X14205539Y-26521150D02*
X14186491Y-26492579D01*
X14186491Y-26492579D02*
X14176968Y-26473531D01*
X14176968Y-26473531D02*
X14167444Y-26444960D01*
X14167444Y-26444960D02*
X14157920Y-26397341D01*
X14157920Y-26397341D02*
X14157920Y-26359246D01*
X14157920Y-26359246D02*
X14167444Y-26311627D01*
X14167444Y-26311627D02*
X14176968Y-26283055D01*
X14176968Y-26283055D02*
X14186491Y-26264008D01*
X14186491Y-26264008D02*
X14205539Y-26235436D01*
X14205539Y-26235436D02*
X14215063Y-26225912D01*
X14272206Y-26254484D02*
X14396015Y-26254484D01*
X14396015Y-26254484D02*
X14329348Y-26330674D01*
X14329348Y-26330674D02*
X14357920Y-26330674D01*
X14357920Y-26330674D02*
X14376968Y-26340198D01*
X14376968Y-26340198D02*
X14386491Y-26349722D01*
X14386491Y-26349722D02*
X14396015Y-26368769D01*
X14396015Y-26368769D02*
X14396015Y-26416388D01*
X14396015Y-26416388D02*
X14386491Y-26435436D01*
X14386491Y-26435436D02*
X14376968Y-26444960D01*
X14376968Y-26444960D02*
X14357920Y-26454484D01*
X14357920Y-26454484D02*
X14300777Y-26454484D01*
X14300777Y-26454484D02*
X14281729Y-26444960D01*
X14281729Y-26444960D02*
X14272206Y-26435436D01*
X14510301Y-26340198D02*
X14491253Y-26330674D01*
X14491253Y-26330674D02*
X14481729Y-26321150D01*
X14481729Y-26321150D02*
X14472206Y-26302103D01*
X14472206Y-26302103D02*
X14472206Y-26292579D01*
X14472206Y-26292579D02*
X14481729Y-26273531D01*
X14481729Y-26273531D02*
X14491253Y-26264008D01*
X14491253Y-26264008D02*
X14510301Y-26254484D01*
X14510301Y-26254484D02*
X14548396Y-26254484D01*
X14548396Y-26254484D02*
X14567444Y-26264008D01*
X14567444Y-26264008D02*
X14576968Y-26273531D01*
X14576968Y-26273531D02*
X14586491Y-26292579D01*
X14586491Y-26292579D02*
X14586491Y-26302103D01*
X14586491Y-26302103D02*
X14576968Y-26321150D01*
X14576968Y-26321150D02*
X14567444Y-26330674D01*
X14567444Y-26330674D02*
X14548396Y-26340198D01*
X14548396Y-26340198D02*
X14510301Y-26340198D01*
X14510301Y-26340198D02*
X14491253Y-26349722D01*
X14491253Y-26349722D02*
X14481729Y-26359246D01*
X14481729Y-26359246D02*
X14472206Y-26378293D01*
X14472206Y-26378293D02*
X14472206Y-26416388D01*
X14472206Y-26416388D02*
X14481729Y-26435436D01*
X14481729Y-26435436D02*
X14491253Y-26444960D01*
X14491253Y-26444960D02*
X14510301Y-26454484D01*
X14510301Y-26454484D02*
X14548396Y-26454484D01*
X14548396Y-26454484D02*
X14567444Y-26444960D01*
X14567444Y-26444960D02*
X14576968Y-26435436D01*
X14576968Y-26435436D02*
X14586491Y-26416388D01*
X14586491Y-26416388D02*
X14586491Y-26378293D01*
X14586491Y-26378293D02*
X14576968Y-26359246D01*
X14576968Y-26359246D02*
X14567444Y-26349722D01*
X14567444Y-26349722D02*
X14548396Y-26340198D01*
X14824587Y-26454484D02*
X14824587Y-26254484D01*
X14910301Y-26454484D02*
X14910301Y-26349722D01*
X14910301Y-26349722D02*
X14900777Y-26330674D01*
X14900777Y-26330674D02*
X14881730Y-26321150D01*
X14881730Y-26321150D02*
X14853158Y-26321150D01*
X14853158Y-26321150D02*
X14834110Y-26330674D01*
X14834110Y-26330674D02*
X14824587Y-26340198D01*
X15034110Y-26454484D02*
X15015063Y-26444960D01*
X15015063Y-26444960D02*
X15005539Y-26435436D01*
X15005539Y-26435436D02*
X14996015Y-26416388D01*
X14996015Y-26416388D02*
X14996015Y-26359246D01*
X14996015Y-26359246D02*
X15005539Y-26340198D01*
X15005539Y-26340198D02*
X15015063Y-26330674D01*
X15015063Y-26330674D02*
X15034110Y-26321150D01*
X15034110Y-26321150D02*
X15062682Y-26321150D01*
X15062682Y-26321150D02*
X15081730Y-26330674D01*
X15081730Y-26330674D02*
X15091253Y-26340198D01*
X15091253Y-26340198D02*
X15100777Y-26359246D01*
X15100777Y-26359246D02*
X15100777Y-26416388D01*
X15100777Y-26416388D02*
X15091253Y-26435436D01*
X15091253Y-26435436D02*
X15081730Y-26444960D01*
X15081730Y-26444960D02*
X15062682Y-26454484D01*
X15062682Y-26454484D02*
X15034110Y-26454484D01*
X15215063Y-26454484D02*
X15196015Y-26444960D01*
X15196015Y-26444960D02*
X15186491Y-26425912D01*
X15186491Y-26425912D02*
X15186491Y-26254484D01*
X15367444Y-26444960D02*
X15348396Y-26454484D01*
X15348396Y-26454484D02*
X15310301Y-26454484D01*
X15310301Y-26454484D02*
X15291253Y-26444960D01*
X15291253Y-26444960D02*
X15281730Y-26425912D01*
X15281730Y-26425912D02*
X15281730Y-26349722D01*
X15281730Y-26349722D02*
X15291253Y-26330674D01*
X15291253Y-26330674D02*
X15310301Y-26321150D01*
X15310301Y-26321150D02*
X15348396Y-26321150D01*
X15348396Y-26321150D02*
X15367444Y-26330674D01*
X15367444Y-26330674D02*
X15376968Y-26349722D01*
X15376968Y-26349722D02*
X15376968Y-26368769D01*
X15376968Y-26368769D02*
X15281730Y-26387817D01*
X15453158Y-26444960D02*
X15472206Y-26454484D01*
X15472206Y-26454484D02*
X15510301Y-26454484D01*
X15510301Y-26454484D02*
X15529349Y-26444960D01*
X15529349Y-26444960D02*
X15538872Y-26425912D01*
X15538872Y-26425912D02*
X15538872Y-26416388D01*
X15538872Y-26416388D02*
X15529349Y-26397341D01*
X15529349Y-26397341D02*
X15510301Y-26387817D01*
X15510301Y-26387817D02*
X15481730Y-26387817D01*
X15481730Y-26387817D02*
X15462682Y-26378293D01*
X15462682Y-26378293D02*
X15453158Y-26359246D01*
X15453158Y-26359246D02*
X15453158Y-26349722D01*
X15453158Y-26349722D02*
X15462682Y-26330674D01*
X15462682Y-26330674D02*
X15481730Y-26321150D01*
X15481730Y-26321150D02*
X15510301Y-26321150D01*
X15510301Y-26321150D02*
X15529349Y-26330674D01*
X15605539Y-26530674D02*
X15615063Y-26521150D01*
X15615063Y-26521150D02*
X15634111Y-26492579D01*
X15634111Y-26492579D02*
X15643634Y-26473531D01*
X15643634Y-26473531D02*
X15653158Y-26444960D01*
X15653158Y-26444960D02*
X15662682Y-26397341D01*
X15662682Y-26397341D02*
X15662682Y-26359246D01*
X15662682Y-26359246D02*
X15653158Y-26311627D01*
X15653158Y-26311627D02*
X15643634Y-26283055D01*
X15643634Y-26283055D02*
X15634111Y-26264008D01*
X15634111Y-26264008D02*
X15615063Y-26235436D01*
X15615063Y-26235436D02*
X15605539Y-26225912D01*
M02*
