ISO-10303-21;
HEADER;
/* Generated by software containing ST-Developer
 * from STEP Tools, Inc. (www.steptools.com) 
 */
/* OPTION: using custom renumber hook */

FILE_DESCRIPTION(
/* description */ ('STEP AP242 Edition 2',
'CAx-IF Rec.Pracs.---Representation and Presentation of Product Manufa
cturing Information (PMI)---4.0---2014-10-13',
'CAx-IF Rec.Pracs.---3D Tessellated Geometry---0.4---2014-09-14','2;1',
'CAx-IF Rec.Pracs.---User Defined Attributes---1.5---2016-08-15'),
/* implementation_level */ '2;1');

FILE_NAME(
/* name */ 'm3-5mm-screw',
/* time_stamp */ '2026-06-12T21:47:57Z',
/* author */ (''),
/* organization */ (''),
/* preprocessor_version */ 'ST-DEVELOPER v20',
/* originating_system */ 'ONSHAPE BY PTC INC, 1.216',
/* authorisation */ '  ');

FILE_SCHEMA (('AP242_MANAGED_MODEL_BASED_3D_ENGINEERING_MIM_LF { 1 0 10303 442 3 1 4 }'));
ENDSEC;

DATA;
#10=SHAPE_REPRESENTATION_RELATIONSHIP('','',#476,#11);
#11=ADVANCED_BREP_SHAPE_REPRESENTATION('',(#474),#841);
#12=CONICAL_SURFACE('',#509,0.0015,0.785398163397451);
#13=CONICAL_SURFACE('',#513,0.0015,0.959931088596885);
#14=CONICAL_SURFACE('',#516,0.0012195,0.959931088596876);
#15=CONICAL_SURFACE('',#519,0.0015,0.959931088596885);
#16=CONICAL_SURFACE('',#522,0.0012195,0.959931088596876);
#17=CONICAL_SURFACE('',#525,0.0015,0.959931088596885);
#18=CONICAL_SURFACE('',#528,0.0012195,0.959931088596876);
#19=CONICAL_SURFACE('',#531,0.0015,0.959931088596885);
#20=CONICAL_SURFACE('',#534,0.0012195,0.959931088596876);
#21=CONICAL_SURFACE('',#537,0.0015,0.959931088596885);
#22=CONICAL_SURFACE('',#540,0.0012195,0.959931088596876);
#23=CONICAL_SURFACE('',#543,0.0015,0.959931088596885);
#24=CONICAL_SURFACE('',#546,0.0012195,0.959931088596876);
#25=CONICAL_SURFACE('',#549,0.0012195,0.959931088596876);
#26=CYLINDRICAL_SURFACE('',#507,0.00275);
#27=CYLINDRICAL_SURFACE('',#511,0.0015);
#28=CYLINDRICAL_SURFACE('',#517,0.0015);
#29=CYLINDRICAL_SURFACE('',#523,0.0015);
#30=CYLINDRICAL_SURFACE('',#529,0.0015);
#31=CYLINDRICAL_SURFACE('',#535,0.0015);
#32=CYLINDRICAL_SURFACE('',#541,0.0015);
#33=CYLINDRICAL_SURFACE('',#547,0.0015);
#34=SPHERICAL_SURFACE('',#505,0.0074);
#35=LINE('',#720,#51);
#36=LINE('',#722,#52);
#37=LINE('',#724,#53);
#38=LINE('',#726,#54);
#39=LINE('',#730,#55);
#40=LINE('',#737,#56);
#41=LINE('',#739,#57);
#42=LINE('',#741,#58);
#43=LINE('',#743,#59);
#44=LINE('',#747,#60);
#45=LINE('',#751,#61);
#46=LINE('',#755,#62);
#47=LINE('',#756,#63);
#48=LINE('',#761,#64);
#49=LINE('',#762,#65);
#50=LINE('',#763,#66);
#51=VECTOR('',#560,1.);
#52=VECTOR('',#561,1.);
#53=VECTOR('',#562,1.);
#54=VECTOR('',#565,1.);
#55=VECTOR('',#570,1.);
#56=VECTOR('',#577,1.);
#57=VECTOR('',#578,1.);
#58=VECTOR('',#579,1.);
#59=VECTOR('',#582,1.);
#60=VECTOR('',#587,1.);
#61=VECTOR('',#592,1.);
#62=VECTOR('',#595,1.);
#63=VECTOR('',#596,1.);
#64=VECTOR('',#601,1.);
#65=VECTOR('',#602,1.);
#66=VECTOR('',#603,1.);
#67=ORIENTED_EDGE('',*,*,#169,.F.);
#68=ORIENTED_EDGE('',*,*,#170,.T.);
#69=ORIENTED_EDGE('',*,*,#171,.T.);
#70=ORIENTED_EDGE('',*,*,#172,.T.);
#71=ORIENTED_EDGE('',*,*,#173,.F.);
#72=ORIENTED_EDGE('',*,*,#174,.F.);
#73=ORIENTED_EDGE('',*,*,#171,.F.);
#74=ORIENTED_EDGE('',*,*,#175,.F.);
#75=ORIENTED_EDGE('',*,*,#173,.T.);
#76=ORIENTED_EDGE('',*,*,#176,.F.);
#77=ORIENTED_EDGE('',*,*,#177,.F.);
#78=ORIENTED_EDGE('',*,*,#178,.T.);
#79=ORIENTED_EDGE('',*,*,#179,.T.);
#80=ORIENTED_EDGE('',*,*,#180,.T.);
#81=ORIENTED_EDGE('',*,*,#181,.F.);
#82=ORIENTED_EDGE('',*,*,#181,.T.);
#83=ORIENTED_EDGE('',*,*,#182,.F.);
#84=ORIENTED_EDGE('',*,*,#183,.F.);
#85=ORIENTED_EDGE('',*,*,#184,.F.);
#86=ORIENTED_EDGE('',*,*,#179,.F.);
#87=ORIENTED_EDGE('',*,*,#185,.F.);
#88=ORIENTED_EDGE('',*,*,#186,.F.);
#89=ORIENTED_EDGE('',*,*,#187,.T.);
#90=ORIENTED_EDGE('',*,*,#188,.T.);
#91=ORIENTED_EDGE('',*,*,#189,.F.);
#92=ORIENTED_EDGE('',*,*,#190,.T.);
#93=ORIENTED_EDGE('',*,*,#191,.T.);
#94=ORIENTED_EDGE('',*,*,#192,.F.);
#95=ORIENTED_EDGE('',*,*,#193,.F.);
#96=ORIENTED_EDGE('',*,*,#172,.F.);
#97=ORIENTED_EDGE('',*,*,#189,.T.);
#98=ORIENTED_EDGE('',*,*,#180,.F.);
#99=ORIENTED_EDGE('',*,*,#192,.T.);
#100=ORIENTED_EDGE('',*,*,#194,.F.);
#101=ORIENTED_EDGE('',*,*,#182,.T.);
#102=ORIENTED_EDGE('',*,*,#188,.F.);
#103=ORIENTED_EDGE('',*,*,#193,.T.);
#104=ORIENTED_EDGE('',*,*,#184,.T.);
#105=ORIENTED_EDGE('',*,*,#195,.F.);
#106=ORIENTED_EDGE('',*,*,#186,.T.);
#107=ORIENTED_EDGE('',*,*,#174,.T.);
#108=ORIENTED_EDGE('',*,*,#196,.F.);
#109=ORIENTED_EDGE('',*,*,#197,.F.);
#110=ORIENTED_EDGE('',*,*,#176,.T.);
#111=ORIENTED_EDGE('',*,*,#191,.F.);
#112=ORIENTED_EDGE('',*,*,#187,.F.);
#113=ORIENTED_EDGE('',*,*,#196,.T.);
#114=ORIENTED_EDGE('',*,*,#175,.T.);
#115=ORIENTED_EDGE('',*,*,#170,.F.);
#116=ORIENTED_EDGE('',*,*,#177,.T.);
#117=ORIENTED_EDGE('',*,*,#197,.T.);
#118=ORIENTED_EDGE('',*,*,#190,.F.);
#119=ORIENTED_EDGE('',*,*,#195,.T.);
#120=ORIENTED_EDGE('',*,*,#185,.T.);
#121=ORIENTED_EDGE('',*,*,#178,.F.);
#122=ORIENTED_EDGE('',*,*,#183,.T.);
#123=ORIENTED_EDGE('',*,*,#194,.T.);
#124=ORIENTED_EDGE('',*,*,#198,.T.);
#125=ORIENTED_EDGE('',*,*,#198,.F.);
#126=ORIENTED_EDGE('',*,*,#199,.T.);
#127=ORIENTED_EDGE('',*,*,#199,.F.);
#128=ORIENTED_EDGE('',*,*,#200,.T.);
#129=ORIENTED_EDGE('',*,*,#200,.F.);
#130=ORIENTED_EDGE('',*,*,#201,.T.);
#131=ORIENTED_EDGE('',*,*,#202,.T.);
#132=ORIENTED_EDGE('',*,*,#203,.F.);
#133=ORIENTED_EDGE('',*,*,#201,.F.);
#134=ORIENTED_EDGE('',*,*,#203,.T.);
#135=ORIENTED_EDGE('',*,*,#202,.F.);
#136=ORIENTED_EDGE('',*,*,#204,.T.);
#137=ORIENTED_EDGE('',*,*,#205,.T.);
#138=ORIENTED_EDGE('',*,*,#206,.F.);
#139=ORIENTED_EDGE('',*,*,#204,.F.);
#140=ORIENTED_EDGE('',*,*,#206,.T.);
#141=ORIENTED_EDGE('',*,*,#205,.F.);
#142=ORIENTED_EDGE('',*,*,#207,.T.);
#143=ORIENTED_EDGE('',*,*,#208,.T.);
#144=ORIENTED_EDGE('',*,*,#209,.F.);
#145=ORIENTED_EDGE('',*,*,#207,.F.);
#146=ORIENTED_EDGE('',*,*,#209,.T.);
#147=ORIENTED_EDGE('',*,*,#208,.F.);
#148=ORIENTED_EDGE('',*,*,#210,.T.);
#149=ORIENTED_EDGE('',*,*,#211,.T.);
#150=ORIENTED_EDGE('',*,*,#212,.F.);
#151=ORIENTED_EDGE('',*,*,#210,.F.);
#152=ORIENTED_EDGE('',*,*,#212,.T.);
#153=ORIENTED_EDGE('',*,*,#211,.F.);
#154=ORIENTED_EDGE('',*,*,#213,.T.);
#155=ORIENTED_EDGE('',*,*,#214,.T.);
#156=ORIENTED_EDGE('',*,*,#215,.F.);
#157=ORIENTED_EDGE('',*,*,#213,.F.);
#158=ORIENTED_EDGE('',*,*,#215,.T.);
#159=ORIENTED_EDGE('',*,*,#214,.F.);
#160=ORIENTED_EDGE('',*,*,#216,.T.);
#161=ORIENTED_EDGE('',*,*,#217,.T.);
#162=ORIENTED_EDGE('',*,*,#218,.F.);
#163=ORIENTED_EDGE('',*,*,#216,.F.);
#164=ORIENTED_EDGE('',*,*,#218,.T.);
#165=ORIENTED_EDGE('',*,*,#217,.F.);
#166=ORIENTED_EDGE('',*,*,#219,.T.);
#167=ORIENTED_EDGE('',*,*,#219,.F.);
#168=ORIENTED_EDGE('',*,*,#169,.T.);
#169=EDGE_CURVE('',#220,#220,#259,.T.);
#170=EDGE_CURVE('',#221,#222,#260,.T.);
#171=EDGE_CURVE('',#222,#223,#35,.T.);
#172=EDGE_CURVE('',#223,#224,#36,.T.);
#173=EDGE_CURVE('',#221,#224,#37,.T.);
#174=EDGE_CURVE('',#223,#225,#38,.T.);
#175=EDGE_CURVE('',#225,#222,#261,.T.);
#176=EDGE_CURVE('',#226,#224,#39,.T.);
#177=EDGE_CURVE('',#221,#226,#262,.T.);
#178=EDGE_CURVE('',#227,#228,#263,.T.);
#179=EDGE_CURVE('',#228,#229,#40,.T.);
#180=EDGE_CURVE('',#229,#230,#41,.T.);
#181=EDGE_CURVE('',#227,#230,#42,.T.);
#182=EDGE_CURVE('',#231,#230,#43,.T.);
#183=EDGE_CURVE('',#227,#231,#264,.T.);
#184=EDGE_CURVE('',#229,#232,#44,.T.);
#185=EDGE_CURVE('',#232,#228,#265,.T.);
#186=EDGE_CURVE('',#233,#223,#45,.T.);
#187=EDGE_CURVE('',#233,#234,#266,.T.);
#188=EDGE_CURVE('',#234,#230,#46,.T.);
#189=EDGE_CURVE('',#223,#230,#47,.T.);
#190=EDGE_CURVE('',#235,#236,#267,.T.);
#191=EDGE_CURVE('',#236,#224,#48,.T.);
#192=EDGE_CURVE('',#229,#224,#49,.T.);
#193=EDGE_CURVE('',#235,#229,#50,.T.);
#194=EDGE_CURVE('',#231,#234,#268,.T.);
#195=EDGE_CURVE('',#235,#232,#269,.T.);
#196=EDGE_CURVE('',#233,#225,#270,.T.);
#197=EDGE_CURVE('',#226,#236,#271,.T.);
#198=EDGE_CURVE('',#237,#237,#272,.T.);
#199=EDGE_CURVE('',#238,#238,#273,.T.);
#200=EDGE_CURVE('',#239,#239,#274,.T.);
#201=EDGE_CURVE('',#240,#240,#275,.T.);
#202=EDGE_CURVE('',#241,#241,#276,.T.);
#203=EDGE_CURVE('',#242,#242,#277,.T.);
#204=EDGE_CURVE('',#243,#243,#278,.T.);
#205=EDGE_CURVE('',#244,#244,#279,.T.);
#206=EDGE_CURVE('',#245,#245,#280,.T.);
#207=EDGE_CURVE('',#246,#246,#281,.T.);
#208=EDGE_CURVE('',#247,#247,#282,.T.);
#209=EDGE_CURVE('',#248,#248,#283,.T.);
#210=EDGE_CURVE('',#249,#249,#284,.T.);
#211=EDGE_CURVE('',#250,#250,#285,.T.);
#212=EDGE_CURVE('',#251,#251,#286,.T.);
#213=EDGE_CURVE('',#252,#252,#287,.T.);
#214=EDGE_CURVE('',#253,#253,#288,.T.);
#215=EDGE_CURVE('',#254,#254,#289,.T.);
#216=EDGE_CURVE('',#255,#255,#290,.T.);
#217=EDGE_CURVE('',#256,#256,#291,.T.);
#218=EDGE_CURVE('',#257,#257,#292,.T.);
#219=EDGE_CURVE('',#258,#258,#293,.T.);
#220=VERTEX_POINT('',#715);
#221=VERTEX_POINT('',#718);
#222=VERTEX_POINT('',#719);
#223=VERTEX_POINT('',#721);
#224=VERTEX_POINT('',#723);
#225=VERTEX_POINT('',#727);
#226=VERTEX_POINT('',#731);
#227=VERTEX_POINT('',#735);
#228=VERTEX_POINT('',#736);
#229=VERTEX_POINT('',#738);
#230=VERTEX_POINT('',#740);
#231=VERTEX_POINT('',#744);
#232=VERTEX_POINT('',#748);
#233=VERTEX_POINT('',#752);
#234=VERTEX_POINT('',#754);
#235=VERTEX_POINT('',#759);
#236=VERTEX_POINT('',#760);
#237=VERTEX_POINT('',#775);
#238=VERTEX_POINT('',#778);
#239=VERTEX_POINT('',#781);
#240=VERTEX_POINT('',#784);
#241=VERTEX_POINT('',#787);
#242=VERTEX_POINT('',#789);
#243=VERTEX_POINT('',#793);
#244=VERTEX_POINT('',#796);
#245=VERTEX_POINT('',#798);
#246=VERTEX_POINT('',#802);
#247=VERTEX_POINT('',#805);
#248=VERTEX_POINT('',#807);
#249=VERTEX_POINT('',#811);
#250=VERTEX_POINT('',#814);
#251=VERTEX_POINT('',#816);
#252=VERTEX_POINT('',#820);
#253=VERTEX_POINT('',#823);
#254=VERTEX_POINT('',#825);
#255=VERTEX_POINT('',#829);
#256=VERTEX_POINT('',#832);
#257=VERTEX_POINT('',#834);
#258=VERTEX_POINT('',#838);
#259=CIRCLE('',#479,0.0012195);
#260=CIRCLE('',#481,0.00693326230080172);
#261=CIRCLE('',#483,0.00739600745178066);
#262=CIRCLE('',#485,0.00739600745178066);
#263=CIRCLE('',#487,0.00693326230080172);
#264=CIRCLE('',#489,0.00739600745178066);
#265=CIRCLE('',#491,0.00739600745178066);
#266=CIRCLE('',#493,0.00693326230080173);
#267=CIRCLE('',#495,0.00693326230080173);
#268=CIRCLE('',#498,0.00739600745178066);
#269=CIRCLE('',#500,0.00739600745178066);
#270=CIRCLE('',#502,0.00739600745178066);
#271=CIRCLE('',#504,0.00739600745178066);
#272=CIRCLE('',#506,0.00275);
#273=CIRCLE('',#508,0.00275);
#274=CIRCLE('',#510,0.0015);
#275=CIRCLE('',#512,0.0015);
#276=CIRCLE('',#514,0.0015);
#277=CIRCLE('',#515,0.0012195);
#278=CIRCLE('',#518,0.0015);
#279=CIRCLE('',#520,0.0015);
#280=CIRCLE('',#521,0.0012195);
#281=CIRCLE('',#524,0.0015);
#282=CIRCLE('',#526,0.0015);
#283=CIRCLE('',#527,0.0012195);
#284=CIRCLE('',#530,0.0015);
#285=CIRCLE('',#532,0.0015);
#286=CIRCLE('',#533,0.0012195);
#287=CIRCLE('',#536,0.0015);
#288=CIRCLE('',#538,0.0015);
#289=CIRCLE('',#539,0.0012195);
#290=CIRCLE('',#542,0.0015);
#291=CIRCLE('',#544,0.0015);
#292=CIRCLE('',#545,0.0012195);
#293=CIRCLE('',#548,0.0015);
#294=EDGE_LOOP('',(#67));
#295=EDGE_LOOP('',(#68,#69,#70,#71));
#296=EDGE_LOOP('',(#72,#73,#74));
#297=EDGE_LOOP('',(#75,#76,#77));
#298=EDGE_LOOP('',(#78,#79,#80,#81));
#299=EDGE_LOOP('',(#82,#83,#84));
#300=EDGE_LOOP('',(#85,#86,#87));
#301=EDGE_LOOP('',(#88,#89,#90,#91));
#302=EDGE_LOOP('',(#92,#93,#94,#95));
#303=EDGE_LOOP('',(#96,#97,#98,#99));
#304=EDGE_LOOP('',(#100,#101,#102));
#305=EDGE_LOOP('',(#103,#104,#105));
#306=EDGE_LOOP('',(#106,#107,#108));
#307=EDGE_LOOP('',(#109,#110,#111));
#308=EDGE_LOOP('',(#112,#113,#114,#115,#116,#117,#118,#119,#120,#121,#122,
#123));
#309=EDGE_LOOP('',(#124));
#310=EDGE_LOOP('',(#125));
#311=EDGE_LOOP('',(#126));
#312=EDGE_LOOP('',(#127));
#313=EDGE_LOOP('',(#128));
#314=EDGE_LOOP('',(#129));
#315=EDGE_LOOP('',(#130));
#316=EDGE_LOOP('',(#131));
#317=EDGE_LOOP('',(#132));
#318=EDGE_LOOP('',(#133));
#319=EDGE_LOOP('',(#134));
#320=EDGE_LOOP('',(#135));
#321=EDGE_LOOP('',(#136));
#322=EDGE_LOOP('',(#137));
#323=EDGE_LOOP('',(#138));
#324=EDGE_LOOP('',(#139));
#325=EDGE_LOOP('',(#140));
#326=EDGE_LOOP('',(#141));
#327=EDGE_LOOP('',(#142));
#328=EDGE_LOOP('',(#143));
#329=EDGE_LOOP('',(#144));
#330=EDGE_LOOP('',(#145));
#331=EDGE_LOOP('',(#146));
#332=EDGE_LOOP('',(#147));
#333=EDGE_LOOP('',(#148));
#334=EDGE_LOOP('',(#149));
#335=EDGE_LOOP('',(#150));
#336=EDGE_LOOP('',(#151));
#337=EDGE_LOOP('',(#152));
#338=EDGE_LOOP('',(#153));
#339=EDGE_LOOP('',(#154));
#340=EDGE_LOOP('',(#155));
#341=EDGE_LOOP('',(#156));
#342=EDGE_LOOP('',(#157));
#343=EDGE_LOOP('',(#158));
#344=EDGE_LOOP('',(#159));
#345=EDGE_LOOP('',(#160));
#346=EDGE_LOOP('',(#161));
#347=EDGE_LOOP('',(#162));
#348=EDGE_LOOP('',(#163));
#349=EDGE_LOOP('',(#164));
#350=EDGE_LOOP('',(#165));
#351=EDGE_LOOP('',(#166));
#352=EDGE_LOOP('',(#167));
#353=EDGE_LOOP('',(#168));
#354=FACE_BOUND('',#294,.T.);
#355=FACE_BOUND('',#295,.T.);
#356=FACE_BOUND('',#296,.T.);
#357=FACE_BOUND('',#297,.T.);
#358=FACE_BOUND('',#298,.T.);
#359=FACE_BOUND('',#299,.T.);
#360=FACE_BOUND('',#300,.T.);
#361=FACE_BOUND('',#301,.T.);
#362=FACE_BOUND('',#302,.T.);
#363=FACE_BOUND('',#303,.T.);
#364=FACE_BOUND('',#304,.T.);
#365=FACE_BOUND('',#305,.T.);
#366=FACE_BOUND('',#306,.T.);
#367=FACE_BOUND('',#307,.T.);
#368=FACE_BOUND('',#308,.T.);
#369=FACE_BOUND('',#309,.T.);
#370=FACE_BOUND('',#310,.T.);
#371=FACE_BOUND('',#311,.T.);
#372=FACE_BOUND('',#312,.T.);
#373=FACE_BOUND('',#313,.T.);
#374=FACE_BOUND('',#314,.T.);
#375=FACE_BOUND('',#315,.T.);
#376=FACE_BOUND('',#316,.T.);
#377=FACE_BOUND('',#317,.T.);
#378=FACE_BOUND('',#318,.T.);
#379=FACE_BOUND('',#319,.T.);
#380=FACE_BOUND('',#320,.T.);
#381=FACE_BOUND('',#321,.T.);
#382=FACE_BOUND('',#322,.T.);
#383=FACE_BOUND('',#323,.T.);
#384=FACE_BOUND('',#324,.T.);
#385=FACE_BOUND('',#325,.T.);
#386=FACE_BOUND('',#326,.T.);
#387=FACE_BOUND('',#327,.T.);
#388=FACE_BOUND('',#328,.T.);
#389=FACE_BOUND('',#329,.T.);
#390=FACE_BOUND('',#330,.T.);
#391=FACE_BOUND('',#331,.T.);
#392=FACE_BOUND('',#332,.T.);
#393=FACE_BOUND('',#333,.T.);
#394=FACE_BOUND('',#334,.T.);
#395=FACE_BOUND('',#335,.T.);
#396=FACE_BOUND('',#336,.T.);
#397=FACE_BOUND('',#337,.T.);
#398=FACE_BOUND('',#338,.T.);
#399=FACE_BOUND('',#339,.T.);
#400=FACE_BOUND('',#340,.T.);
#401=FACE_BOUND('',#341,.T.);
#402=FACE_BOUND('',#342,.T.);
#403=FACE_BOUND('',#343,.T.);
#404=FACE_BOUND('',#344,.T.);
#405=FACE_BOUND('',#345,.T.);
#406=FACE_BOUND('',#346,.T.);
#407=FACE_BOUND('',#347,.T.);
#408=FACE_BOUND('',#348,.T.);
#409=FACE_BOUND('',#349,.T.);
#410=FACE_BOUND('',#350,.T.);
#411=FACE_BOUND('',#351,.T.);
#412=FACE_BOUND('',#352,.T.);
#413=FACE_BOUND('',#353,.T.);
#414=PLANE('',#478);
#415=PLANE('',#480);
#416=PLANE('',#482);
#417=PLANE('',#484);
#418=PLANE('',#486);
#419=PLANE('',#488);
#420=PLANE('',#490);
#421=PLANE('',#492);
#422=PLANE('',#494);
#423=PLANE('',#496);
#424=PLANE('',#497);
#425=PLANE('',#499);
#426=PLANE('',#501);
#427=PLANE('',#503);
#428=ADVANCED_FACE('',(#354),#414,.F.);
#429=ADVANCED_FACE('',(#355),#415,.F.);
#430=ADVANCED_FACE('',(#356),#416,.T.);
#431=ADVANCED_FACE('',(#357),#417,.T.);
#432=ADVANCED_FACE('',(#358),#418,.F.);
#433=ADVANCED_FACE('',(#359),#419,.T.);
#434=ADVANCED_FACE('',(#360),#420,.T.);
#435=ADVANCED_FACE('',(#361),#421,.F.);
#436=ADVANCED_FACE('',(#362),#422,.F.);
#437=ADVANCED_FACE('',(#363),#423,.T.);
#438=ADVANCED_FACE('',(#364),#424,.T.);
#439=ADVANCED_FACE('',(#365),#425,.T.);
#440=ADVANCED_FACE('',(#366),#426,.T.);
#441=ADVANCED_FACE('',(#367),#427,.T.);
#442=ADVANCED_FACE('',(#368,#369),#34,.T.);
#443=ADVANCED_FACE('',(#370,#371),#26,.T.);
#444=ADVANCED_FACE('',(#372,#373),#12,.T.);
#445=ADVANCED_FACE('',(#374,#375),#27,.T.);
#446=ADVANCED_FACE('',(#376,#377),#13,.T.);
#447=ADVANCED_FACE('',(#378,#379),#14,.T.);
#448=ADVANCED_FACE('',(#380,#381),#28,.T.);
#449=ADVANCED_FACE('',(#382,#383),#15,.T.);
#450=ADVANCED_FACE('',(#384,#385),#16,.T.);
#451=ADVANCED_FACE('',(#386,#387),#29,.T.);
#452=ADVANCED_FACE('',(#388,#389),#17,.T.);
#453=ADVANCED_FACE('',(#390,#391),#18,.T.);
#454=ADVANCED_FACE('',(#392,#393),#30,.T.);
#455=ADVANCED_FACE('',(#394,#395),#19,.T.);
#456=ADVANCED_FACE('',(#396,#397),#20,.T.);
#457=ADVANCED_FACE('',(#398,#399),#31,.T.);
#458=ADVANCED_FACE('',(#400,#401),#21,.T.);
#459=ADVANCED_FACE('',(#402,#403),#22,.T.);
#460=ADVANCED_FACE('',(#404,#405),#32,.T.);
#461=ADVANCED_FACE('',(#406,#407),#23,.T.);
#462=ADVANCED_FACE('',(#408,#409),#24,.T.);
#463=ADVANCED_FACE('',(#410,#411),#33,.T.);
#464=ADVANCED_FACE('',(#412,#413),#25,.T.);
#465=CLOSED_SHELL('',(#428,#429,#430,#431,#432,#433,#434,#435,#436,#437,
#438,#439,#440,#441,#442,#443,#444,#445,#446,#447,#448,#449,#450,#451,#452,
#453,#454,#455,#456,#457,#458,#459,#460,#461,#462,#463,#464));
#466=STYLED_ITEM('',(#467),#474);
#467=PRESENTATION_STYLE_ASSIGNMENT((#468));
#468=SURFACE_STYLE_USAGE(.BOTH.,#469);
#469=SURFACE_SIDE_STYLE('',(#470));
#470=SURFACE_STYLE_FILL_AREA(#471);
#471=FILL_AREA_STYLE('',(#472));
#472=FILL_AREA_STYLE_COLOUR('',#473);
#473=COLOUR_RGB('',0.776470588235294,0.756862745098039,0.737254901960784);
#474=MANIFOLD_SOLID_BREP('m3-5mm',#465);
#475=SHAPE_DEFINITION_REPRESENTATION(#846,#476);
#476=SHAPE_REPRESENTATION('m3-5mm',(#477),#841);
#477=AXIS2_PLACEMENT_3D('',#712,#550,#551);
#478=AXIS2_PLACEMENT_3D('',#713,#552,#553);
#479=AXIS2_PLACEMENT_3D('',#714,#554,#555);
#480=AXIS2_PLACEMENT_3D('',#716,#556,#557);
#481=AXIS2_PLACEMENT_3D('',#717,#558,#559);
#482=AXIS2_PLACEMENT_3D('',#725,#563,#564);
#483=AXIS2_PLACEMENT_3D('',#728,#566,#567);
#484=AXIS2_PLACEMENT_3D('',#729,#568,#569);
#485=AXIS2_PLACEMENT_3D('',#732,#571,#572);
#486=AXIS2_PLACEMENT_3D('',#733,#573,#574);
#487=AXIS2_PLACEMENT_3D('',#734,#575,#576);
#488=AXIS2_PLACEMENT_3D('',#742,#580,#581);
#489=AXIS2_PLACEMENT_3D('',#745,#583,#584);
#490=AXIS2_PLACEMENT_3D('',#746,#585,#586);
#491=AXIS2_PLACEMENT_3D('',#749,#588,#589);
#492=AXIS2_PLACEMENT_3D('',#750,#590,#591);
#493=AXIS2_PLACEMENT_3D('',#753,#593,#594);
#494=AXIS2_PLACEMENT_3D('',#757,#597,#598);
#495=AXIS2_PLACEMENT_3D('',#758,#599,#600);
#496=AXIS2_PLACEMENT_3D('',#764,#604,#605);
#497=AXIS2_PLACEMENT_3D('',#765,#606,#607);
#498=AXIS2_PLACEMENT_3D('',#766,#608,#609);
#499=AXIS2_PLACEMENT_3D('',#767,#610,#611);
#500=AXIS2_PLACEMENT_3D('',#768,#612,#613);
#501=AXIS2_PLACEMENT_3D('',#769,#614,#615);
#502=AXIS2_PLACEMENT_3D('',#770,#616,#617);
#503=AXIS2_PLACEMENT_3D('',#771,#618,#619);
#504=AXIS2_PLACEMENT_3D('',#772,#620,#621);
#505=AXIS2_PLACEMENT_3D('',#773,#622,#623);
#506=AXIS2_PLACEMENT_3D('',#774,#624,#625);
#507=AXIS2_PLACEMENT_3D('',#776,#626,#627);
#508=AXIS2_PLACEMENT_3D('',#777,#628,#629);
#509=AXIS2_PLACEMENT_3D('',#779,#630,#631);
#510=AXIS2_PLACEMENT_3D('',#780,#632,#633);
#511=AXIS2_PLACEMENT_3D('',#782,#634,#635);
#512=AXIS2_PLACEMENT_3D('',#783,#636,#637);
#513=AXIS2_PLACEMENT_3D('',#785,#638,#639);
#514=AXIS2_PLACEMENT_3D('',#786,#640,#641);
#515=AXIS2_PLACEMENT_3D('',#788,#642,#643);
#516=AXIS2_PLACEMENT_3D('',#790,#644,#645);
#517=AXIS2_PLACEMENT_3D('',#791,#646,#647);
#518=AXIS2_PLACEMENT_3D('',#792,#648,#649);
#519=AXIS2_PLACEMENT_3D('',#794,#650,#651);
#520=AXIS2_PLACEMENT_3D('',#795,#652,#653);
#521=AXIS2_PLACEMENT_3D('',#797,#654,#655);
#522=AXIS2_PLACEMENT_3D('',#799,#656,#657);
#523=AXIS2_PLACEMENT_3D('',#800,#658,#659);
#524=AXIS2_PLACEMENT_3D('',#801,#660,#661);
#525=AXIS2_PLACEMENT_3D('',#803,#662,#663);
#526=AXIS2_PLACEMENT_3D('',#804,#664,#665);
#527=AXIS2_PLACEMENT_3D('',#806,#666,#667);
#528=AXIS2_PLACEMENT_3D('',#808,#668,#669);
#529=AXIS2_PLACEMENT_3D('',#809,#670,#671);
#530=AXIS2_PLACEMENT_3D('',#810,#672,#673);
#531=AXIS2_PLACEMENT_3D('',#812,#674,#675);
#532=AXIS2_PLACEMENT_3D('',#813,#676,#677);
#533=AXIS2_PLACEMENT_3D('',#815,#678,#679);
#534=AXIS2_PLACEMENT_3D('',#817,#680,#681);
#535=AXIS2_PLACEMENT_3D('',#818,#682,#683);
#536=AXIS2_PLACEMENT_3D('',#819,#684,#685);
#537=AXIS2_PLACEMENT_3D('',#821,#686,#687);
#538=AXIS2_PLACEMENT_3D('',#822,#688,#689);
#539=AXIS2_PLACEMENT_3D('',#824,#690,#691);
#540=AXIS2_PLACEMENT_3D('',#826,#692,#693);
#541=AXIS2_PLACEMENT_3D('',#827,#694,#695);
#542=AXIS2_PLACEMENT_3D('',#828,#696,#697);
#543=AXIS2_PLACEMENT_3D('',#830,#698,#699);
#544=AXIS2_PLACEMENT_3D('',#831,#700,#701);
#545=AXIS2_PLACEMENT_3D('',#833,#702,#703);
#546=AXIS2_PLACEMENT_3D('',#835,#704,#705);
#547=AXIS2_PLACEMENT_3D('',#836,#706,#707);
#548=AXIS2_PLACEMENT_3D('',#837,#708,#709);
#549=AXIS2_PLACEMENT_3D('',#839,#710,#711);
#550=DIRECTION('',(0.,0.,1.));
#551=DIRECTION('',(1.,0.,0.));
#552=DIRECTION('',(-1.,0.,0.));
#553=DIRECTION('',(0.,0.,1.));
#554=DIRECTION('',(-1.,-1.22460635382238E-16,0.));
#555=DIRECTION('',(0.,-1.,0.));
#556=DIRECTION('',(0.544482116778557,3.03812449426623E-15,-0.838772450971265));
#557=DIRECTION('',(0.838772450971265,-1.90104915006614E-15,0.544482116778557));
#558=DIRECTION('',(-0.544482116778557,-3.03812449426623E-15,0.838772450971265));
#559=DIRECTION('',(-0.838772450971264,0.,-0.544482116778557));
#560=DIRECTION('',(0.836442139156632,0.0744900188304705,0.542969414366698));
#561=DIRECTION('',(0.,1.,0.));
#562=DIRECTION('',(0.836442139156632,-0.0744900188304744,0.542969414366697));
#563=DIRECTION('',(-0.0887047329662643,0.996057965356125,3.58424527258102E-15));
#564=DIRECTION('',(-0.996057965356125,-0.0887047329662643,-3.09710919818775E-16));
#565=DIRECTION('',(-0.992162185069947,-0.0883577911596622,-0.0883577911596626));
#566=DIRECTION('',(0.0887047329662643,-0.996057965356125,-3.58424527258102E-15));
#567=DIRECTION('',(-0.996057965356125,-0.0887047329662643,0.));
#568=DIRECTION('',(-0.0887047329662644,-0.996057965356125,-3.48532690374226E-15));
#569=DIRECTION('',(0.996057965356125,-0.0887047329662644,-3.09710919818776E-16));
#570=DIRECTION('',(0.992162185069947,-0.0883577911596629,0.0883577911596626));
#571=DIRECTION('',(0.0887047329662644,0.996057965356125,3.48532690374226E-15));
#572=DIRECTION('',(0.996057965356125,-0.0887047329662644,0.));
#573=DIRECTION('',(0.544482116778557,-2.92855836010189E-15,0.838772450971265));
#574=DIRECTION('',(-0.838772450971265,-1.90104915006614E-15,0.544482116778557));
#575=DIRECTION('',(-0.544482116778557,2.92855836010189E-15,-0.838772450971265));
#576=DIRECTION('',(0.838772450971264,1.24344978758017E-14,-0.544482116778557));
#577=DIRECTION('',(0.836442139156632,-0.0744900188304706,-0.542969414366698));
#578=DIRECTION('',(0.,-1.,-1.30626767769338E-16));
#579=DIRECTION('',(0.836442139156631,0.0744900188304744,-0.542969414366697));
#580=DIRECTION('',(-0.0887047329662643,0.996057965356125,3.58424527258102E-15));
#581=DIRECTION('',(-0.996057965356125,-0.0887047329662643,-3.09710919818775E-16));
#582=DIRECTION('',(0.992162185069947,0.0883577911596628,-0.0883577911596625));
#583=DIRECTION('',(0.0887047329662643,-0.996057965356125,-3.58424527258102E-15));
#584=DIRECTION('',(-0.996057965356125,-0.0887047329662643,1.15463194561016E-14));
#585=DIRECTION('',(-0.0887047329662644,-0.996057965356125,-3.48532690374226E-15));
#586=DIRECTION('',(0.996057965356125,-0.0887047329662644,-3.09710919818776E-16));
#587=DIRECTION('',(-0.992162185069947,0.0883577911596623,0.0883577911596626));
#588=DIRECTION('',(0.0887047329662644,0.996057965356125,3.48532690374226E-15));
#589=DIRECTION('',(0.996057965356125,-0.0887047329662644,0.));
#590=DIRECTION('',(0.544482116778557,-0.838772450971265,-1.09566134164342E-16));
#591=DIRECTION('',(0.838772450971265,0.544482116778557,0.));
#592=DIRECTION('',(0.836442139156632,0.542969414366697,0.0744900188304725));
#593=DIRECTION('',(-0.544482116778557,0.838772450971265,1.09566134164342E-16));
#594=DIRECTION('',(0.838772450971264,0.544482116778557,0.));
#595=DIRECTION('',(0.836442139156632,0.542969414366697,-0.0744900188304724));
#596=DIRECTION('',(0.,-1.30626767769338E-16,1.));
#597=DIRECTION('',(0.544482116778557,0.838772450971265,0.));
#598=DIRECTION('',(-0.838772450971265,0.544482116778557,0.));
#599=DIRECTION('',(-0.544482116778557,-0.838772450971265,0.));
#600=DIRECTION('',(-0.838772450971264,0.544482116778557,-3.64153152077052E-14));
#601=DIRECTION('',(0.836442139156632,-0.542969414366697,0.0744900188304725));
#602=DIRECTION('',(0.,0.,-1.));
#603=DIRECTION('',(0.836442139156632,-0.542969414366697,-0.0744900188304725));
#604=DIRECTION('',(-1.,0.,0.));
#605=DIRECTION('',(0.,0.,1.));
#606=DIRECTION('',(-0.0887047329662643,1.0652747413405E-16,-0.996057965356125));
#607=DIRECTION('',(-0.996057965356125,0.,0.0887047329662643));
#608=DIRECTION('',(0.0887047329662643,-1.0652747413405E-16,0.996057965356125));
#609=DIRECTION('',(-0.996057965356125,0.,0.0887047329662643));
#610=DIRECTION('',(-0.0887047329662643,1.0652747413405E-16,-0.996057965356125));
#611=DIRECTION('',(-0.996057965356125,0.,0.0887047329662643));
#612=DIRECTION('',(0.0887047329662643,-1.0652747413405E-16,0.996057965356125));
#613=DIRECTION('',(-0.996057965356125,2.30926389122032E-14,0.0887047329662643));
#614=DIRECTION('',(-0.0887047329662644,-7.60910529528928E-18,0.996057965356125));
#615=DIRECTION('',(0.996057965356125,0.,0.0887047329662644));
#616=DIRECTION('',(0.0887047329662644,7.60910529528928E-18,-0.996057965356125));
#617=DIRECTION('',(0.996057965356125,0.,0.0887047329662644));
#618=DIRECTION('',(-0.0887047329662644,-7.60910529528928E-18,0.996057965356125));
#619=DIRECTION('',(0.996057965356125,0.,0.0887047329662644));
#620=DIRECTION('',(0.0887047329662644,7.60910529528928E-18,-0.996057965356125));
#621=DIRECTION('',(0.996057965356125,0.,0.0887047329662644));
#622=DIRECTION('',(0.,0.,1.));
#623=DIRECTION('',(0.,-1.,0.));
#624=DIRECTION('',(-1.,0.,0.));
#625=DIRECTION('',(0.,0.,1.));
#626=DIRECTION('',(-1.,0.,0.));
#627=DIRECTION('',(0.,0.,1.));
#628=DIRECTION('',(-1.,0.,0.));
#629=DIRECTION('',(0.,0.,1.));
#630=DIRECTION('',(-1.,0.,0.));
#631=DIRECTION('',(0.,0.,1.));
#632=DIRECTION('',(-1.,0.,0.));
#633=DIRECTION('',(0.,0.,1.));
#634=DIRECTION('',(-1.,0.,0.));
#635=DIRECTION('',(0.,0.,1.));
#636=DIRECTION('',(-1.,-1.22460635382238E-16,0.));
#637=DIRECTION('',(0.,-1.,0.));
#638=DIRECTION('',(1.,0.,0.));
#639=DIRECTION('',(0.,1.,0.));
#640=DIRECTION('',(-1.,-1.22460635382238E-16,0.));
#641=DIRECTION('',(0.,-1.,0.));
#642=DIRECTION('',(-1.,-1.22460635382238E-16,0.));
#643=DIRECTION('',(0.,-1.,0.));
#644=DIRECTION('',(-1.,0.,0.));
#645=DIRECTION('',(0.,-1.,0.));
#646=DIRECTION('',(-1.,0.,0.));
#647=DIRECTION('',(0.,0.,1.));
#648=DIRECTION('',(-1.,-1.22460635382238E-16,0.));
#649=DIRECTION('',(0.,-1.,0.));
#650=DIRECTION('',(1.,0.,0.));
#651=DIRECTION('',(0.,1.,0.));
#652=DIRECTION('',(-1.,-1.22460635382238E-16,0.));
#653=DIRECTION('',(0.,-1.,0.));
#654=DIRECTION('',(-1.,-1.22460635382238E-16,0.));
#655=DIRECTION('',(0.,-1.,0.));
#656=DIRECTION('',(-1.,0.,0.));
#657=DIRECTION('',(0.,-1.,0.));
#658=DIRECTION('',(-1.,0.,0.));
#659=DIRECTION('',(0.,0.,1.));
#660=DIRECTION('',(-1.,-1.22460635382238E-16,0.));
#661=DIRECTION('',(0.,-1.,0.));
#662=DIRECTION('',(1.,0.,0.));
#663=DIRECTION('',(0.,1.,0.));
#664=DIRECTION('',(-1.,-1.22460635382238E-16,0.));
#665=DIRECTION('',(0.,-1.,0.));
#666=DIRECTION('',(-1.,-1.22460635382238E-16,0.));
#667=DIRECTION('',(0.,-1.,0.));
#668=DIRECTION('',(-1.,0.,0.));
#669=DIRECTION('',(0.,-1.,0.));
#670=DIRECTION('',(-1.,0.,0.));
#671=DIRECTION('',(0.,0.,1.));
#672=DIRECTION('',(-1.,-1.22460635382238E-16,0.));
#673=DIRECTION('',(0.,-1.,0.));
#674=DIRECTION('',(1.,0.,0.));
#675=DIRECTION('',(0.,1.,0.));
#676=DIRECTION('',(-1.,-1.22460635382238E-16,0.));
#677=DIRECTION('',(0.,-1.,0.));
#678=DIRECTION('',(-1.,-1.22460635382238E-16,0.));
#679=DIRECTION('',(0.,-1.,0.));
#680=DIRECTION('',(-1.,0.,0.));
#681=DIRECTION('',(0.,-1.,0.));
#682=DIRECTION('',(-1.,0.,0.));
#683=DIRECTION('',(0.,0.,1.));
#684=DIRECTION('',(-1.,-1.22460635382238E-16,0.));
#685=DIRECTION('',(0.,-1.,0.));
#686=DIRECTION('',(1.,0.,0.));
#687=DIRECTION('',(0.,1.,0.));
#688=DIRECTION('',(-1.,-1.22460635382238E-16,0.));
#689=DIRECTION('',(0.,-1.,0.));
#690=DIRECTION('',(-1.,-1.22460635382238E-16,0.));
#691=DIRECTION('',(0.,-1.,0.));
#692=DIRECTION('',(-1.,0.,0.));
#693=DIRECTION('',(0.,-1.,0.));
#694=DIRECTION('',(-1.,0.,0.));
#695=DIRECTION('',(0.,0.,1.));
#696=DIRECTION('',(-1.,-1.22460635382238E-16,0.));
#697=DIRECTION('',(0.,-1.,0.));
#698=DIRECTION('',(1.,0.,0.));
#699=DIRECTION('',(0.,1.,0.));
#700=DIRECTION('',(-1.,-1.22460635382238E-16,0.));
#701=DIRECTION('',(0.,-1.,0.));
#702=DIRECTION('',(-1.,-1.22460635382238E-16,0.));
#703=DIRECTION('',(0.,-1.,0.));
#704=DIRECTION('',(-1.,0.,0.));
#705=DIRECTION('',(0.,-1.,0.));
#706=DIRECTION('',(-1.,0.,0.));
#707=DIRECTION('',(0.,0.,1.));
#708=DIRECTION('',(-1.,-1.22460635382238E-16,0.));
#709=DIRECTION('',(0.,-1.,0.));
#710=DIRECTION('',(-1.,0.,0.));
#711=DIRECTION('',(0.,-1.,0.));
#712=CARTESIAN_POINT('',(0.,0.,0.));
#713=CARTESIAN_POINT('',(0.00572766907295509,0.,0.));
#714=CARTESIAN_POINT('',(0.00572766907295509,7.47336732201612E-19,0.));
#715=CARTESIAN_POINT('',(0.00572766907295509,-0.0012195,0.));
#716=CARTESIAN_POINT('',(0.00233,0.0002075,-0.0002075));
#717=CARTESIAN_POINT('',(0.00599170841267437,-7.85804535112614E-18,0.0021694673708884));
#718=CARTESIAN_POINT('',(0.000185890101969757,0.000398445409373943,-0.00159933099603895));
#719=CARTESIAN_POINT('',(0.000185890101969757,-0.000398445409373932,-0.00159933099603895));
#720=CARTESIAN_POINT('',(0.,-0.000414999999999993,-0.00172));
#721=CARTESIAN_POINT('',(0.00233,-0.0002075,-0.0002075));
#722=CARTESIAN_POINT('',(0.00233,-0.0002075,-0.0002075));
#723=CARTESIAN_POINT('',(0.00233,0.0002075,-0.0002075));
#724=CARTESIAN_POINT('',(0.,0.000415000000000006,-0.00172));
#725=CARTESIAN_POINT('',(0.00264965289256198,-0.000179033057851239,-1.91409711529425E-19));
#726=CARTESIAN_POINT('',(0.00266534787197402,-0.000177635328998021,-0.000177635328998022));
#727=CARTESIAN_POINT('',(2.30796751196933E-5,-0.00041294462120715,-0.000412944621207152));
#728=CARTESIAN_POINT('',(0.00737844022875731,0.00024209285299019,8.7115428422431E-19));
#729=CARTESIAN_POINT('',(0.00264965289256198,0.000179033057851239,4.08250146026526E-19));
#730=CARTESIAN_POINT('',(0.00266534787197402,0.000177635328998022,-0.000177635328998022));
#731=CARTESIAN_POINT('',(2.30796751196933E-5,0.000412944621207154,-0.000412944621207152));
#732=CARTESIAN_POINT('',(0.00737844022875731,-0.00024209285299019,-8.47112078892668E-19));
#733=CARTESIAN_POINT('',(0.00233,-0.0002075,0.0002075));
#734=CARTESIAN_POINT('',(0.00599170841267437,7.57465484068594E-18,-0.0021694673708884));
#735=CARTESIAN_POINT('',(0.000185890101969758,-0.000398445409373943,0.00159933099603895));
#736=CARTESIAN_POINT('',(0.000185890101969758,0.000398445409373932,0.00159933099603895));
#737=CARTESIAN_POINT('',(0.,0.000414999999999994,0.00172));
#738=CARTESIAN_POINT('',(0.00233,0.0002075,0.0002075));
#739=CARTESIAN_POINT('',(0.00233,0.0002075,0.0002075));
#740=CARTESIAN_POINT('',(0.00233,-0.0002075,0.0002075));
#741=CARTESIAN_POINT('',(0.,-0.000415000000000006,0.00172));
#742=CARTESIAN_POINT('',(0.00264965289256198,-0.000179033057851239,-1.91409711529425E-19));
#743=CARTESIAN_POINT('',(0.00266534787197402,-0.000177635328998022,0.000177635328998022));
#744=CARTESIAN_POINT('',(2.30796751196933E-5,-0.000412944621207153,0.000412944621207152));
#745=CARTESIAN_POINT('',(0.00737844022875731,0.00024209285299019,8.7115428422431E-19));
#746=CARTESIAN_POINT('',(0.00264965289256198,0.000179033057851239,4.08250146026526E-19));
#747=CARTESIAN_POINT('',(0.00266534787197402,0.000177635328998021,0.000177635328998022));
#748=CARTESIAN_POINT('',(2.30796751196915E-5,0.00041294462120715,0.000412944621207152));
#749=CARTESIAN_POINT('',(0.00737844022875731,-0.00024209285299019,-8.47112078892668E-19));
#750=CARTESIAN_POINT('',(0.00233,-0.0002075,-0.0002075));
#751=CARTESIAN_POINT('',(0.,-0.00172,-0.000415));
#752=CARTESIAN_POINT('',(0.000185890101969757,-0.00159933099603895,-0.000398445409373938));
#753=CARTESIAN_POINT('',(0.00599170841267437,0.0021694673708884,2.83390510440196E-19));
#754=CARTESIAN_POINT('',(0.000185890101969757,-0.00159933099603895,0.000398445409373937));
#755=CARTESIAN_POINT('',(0.,-0.00172,0.000415));
#756=CARTESIAN_POINT('',(0.00233,-0.0002075,-0.0002075));
#757=CARTESIAN_POINT('',(0.00233,0.0002075,0.0002075));
#758=CARTESIAN_POINT('',(0.00599170841267437,-0.0021694673708884,0.));
#759=CARTESIAN_POINT('',(0.000185890101969758,0.00159933099603895,0.000398445409373938));
#760=CARTESIAN_POINT('',(0.000185890101969758,0.00159933099603895,-0.000398445409373938));
#761=CARTESIAN_POINT('',(0.,0.00172,-0.000415));
#762=CARTESIAN_POINT('',(0.00233,0.0002075,0.0002075));
#763=CARTESIAN_POINT('',(0.,0.00172,0.000415));
#764=CARTESIAN_POINT('',(0.00233,0.0002075,-0.0002075));
#765=CARTESIAN_POINT('',(0.00264965289256198,4.33680868994202E-19,0.000179033057851239));
#766=CARTESIAN_POINT('',(0.00737844022875731,2.58916057417704E-20,-0.00024209285299019));
#767=CARTESIAN_POINT('',(0.00264965289256198,4.33680868994202E-19,0.000179033057851239));
#768=CARTESIAN_POINT('',(0.00737844022875731,2.58916057417704E-20,-0.00024209285299019));
#769=CARTESIAN_POINT('',(0.00264965289256198,-2.16840434497101E-19,-0.000179033057851239));
#770=CARTESIAN_POINT('',(0.00737844022875731,-1.84940041012645E-21,0.00024209285299019));
#771=CARTESIAN_POINT('',(0.00264965289256198,-2.16840434497101E-19,-0.000179033057851239));
#772=CARTESIAN_POINT('',(0.00737844022875731,-1.84940041012645E-21,0.00024209285299019));
#773=CARTESIAN_POINT('',(0.0074,0.,0.));
#774=CARTESIAN_POINT('',(0.000529956332016513,0.,0.));
#775=CARTESIAN_POINT('',(0.000529956332016513,0.,0.00275));
#776=CARTESIAN_POINT('',(-0.015875,0.,0.));
#777=CARTESIAN_POINT('',(0.0011776690729551,0.,0.));
#778=CARTESIAN_POINT('',(0.0011776690729551,0.,0.00275));
#779=CARTESIAN_POINT('',(0.0024276690729551,0.,0.));
#780=CARTESIAN_POINT('',(0.0024276690729551,0.,0.));
#781=CARTESIAN_POINT('',(0.0024276690729551,0.,0.0015));
#782=CARTESIAN_POINT('',(-0.015875,0.,0.));
#783=CARTESIAN_POINT('',(0.00273126085848727,7.23284457463591E-19,0.));
#784=CARTESIAN_POINT('',(0.00273126085848727,-0.0015,0.));
#785=CARTESIAN_POINT('',(0.00312407728742292,7.71389006939632E-19,0.));
#786=CARTESIAN_POINT('',(0.00312407728742292,7.71389006939632E-19,0.));
#787=CARTESIAN_POINT('',(0.00312407728742292,-0.0015,0.));
#788=CARTESIAN_POINT('',(0.00292766907295509,7.47336732201612E-19,0.));
#789=CARTESIAN_POINT('',(0.00292766907295509,-0.0012195,0.));
#790=CARTESIAN_POINT('',(0.00292766907295509,7.47336732201612E-19,0.));
#791=CARTESIAN_POINT('',(-0.015875,0.,0.));
#792=CARTESIAN_POINT('',(0.00319792752515393,7.23284457463591E-19,0.));
#793=CARTESIAN_POINT('',(0.00319792752515393,-0.0015,0.));
#794=CARTESIAN_POINT('',(0.00359074395408958,7.71389006939632E-19,0.));
#795=CARTESIAN_POINT('',(0.00359074395408958,7.71389006939632E-19,0.));
#796=CARTESIAN_POINT('',(0.00359074395408958,-0.0015,0.));
#797=CARTESIAN_POINT('',(0.00339433573962176,7.47336732201612E-19,0.));
#798=CARTESIAN_POINT('',(0.00339433573962176,-0.0012195,0.));
#799=CARTESIAN_POINT('',(0.00339433573962176,7.47336732201612E-19,0.));
#800=CARTESIAN_POINT('',(-0.015875,0.,0.));
#801=CARTESIAN_POINT('',(0.0036645941918206,7.23284457463591E-19,0.));
#802=CARTESIAN_POINT('',(0.0036645941918206,-0.0015,0.));
#803=CARTESIAN_POINT('',(0.00405741062075625,7.71389006939632E-19,0.));
#804=CARTESIAN_POINT('',(0.00405741062075625,7.71389006939632E-19,0.));
#805=CARTESIAN_POINT('',(0.00405741062075625,-0.0015,0.));
#806=CARTESIAN_POINT('',(0.00386100240628842,7.47336732201612E-19,0.));
#807=CARTESIAN_POINT('',(0.00386100240628842,-0.0012195,0.));
#808=CARTESIAN_POINT('',(0.00386100240628842,7.47336732201612E-19,0.));
#809=CARTESIAN_POINT('',(-0.015875,0.,0.));
#810=CARTESIAN_POINT('',(0.00413126085848727,7.23284457463591E-19,0.));
#811=CARTESIAN_POINT('',(0.00413126085848727,-0.0015,0.));
#812=CARTESIAN_POINT('',(0.00452407728742291,7.71389006939632E-19,0.));
#813=CARTESIAN_POINT('',(0.00452407728742291,7.71389006939632E-19,0.));
#814=CARTESIAN_POINT('',(0.00452407728742291,-0.0015,0.));
#815=CARTESIAN_POINT('',(0.00432766907295509,7.47336732201612E-19,0.));
#816=CARTESIAN_POINT('',(0.00432766907295509,-0.0012195,0.));
#817=CARTESIAN_POINT('',(0.00432766907295509,7.47336732201612E-19,0.));
#818=CARTESIAN_POINT('',(-0.015875,0.,0.));
#819=CARTESIAN_POINT('',(0.00459792752515393,7.23284457463591E-19,0.));
#820=CARTESIAN_POINT('',(0.00459792752515393,-0.0015,0.));
#821=CARTESIAN_POINT('',(0.00499074395408958,7.71389006939632E-19,0.));
#822=CARTESIAN_POINT('',(0.00499074395408958,7.71389006939632E-19,0.));
#823=CARTESIAN_POINT('',(0.00499074395408958,-0.0015,0.));
#824=CARTESIAN_POINT('',(0.00479433573962176,7.47336732201612E-19,0.));
#825=CARTESIAN_POINT('',(0.00479433573962176,-0.0012195,0.));
#826=CARTESIAN_POINT('',(0.00479433573962176,7.47336732201612E-19,0.));
#827=CARTESIAN_POINT('',(-0.015875,0.,0.));
#828=CARTESIAN_POINT('',(0.0050645941918206,7.23284457463591E-19,0.));
#829=CARTESIAN_POINT('',(0.0050645941918206,-0.0015,0.));
#830=CARTESIAN_POINT('',(0.00545741062075625,7.71389006939632E-19,0.));
#831=CARTESIAN_POINT('',(0.00545741062075625,7.71389006939632E-19,0.));
#832=CARTESIAN_POINT('',(0.00545741062075625,-0.0015,0.));
#833=CARTESIAN_POINT('',(0.00526100240628842,7.47336732201612E-19,0.));
#834=CARTESIAN_POINT('',(0.00526100240628842,-0.0012195,0.));
#835=CARTESIAN_POINT('',(0.00526100240628842,7.47336732201612E-19,0.));
#836=CARTESIAN_POINT('',(-0.015875,0.,0.));
#837=CARTESIAN_POINT('',(0.00553126085848726,7.23284457463591E-19,0.));
#838=CARTESIAN_POINT('',(0.00553126085848726,-0.0015,0.));
#839=CARTESIAN_POINT('',(0.00572766907295509,7.47336732201612E-19,0.));
#840=MECHANICAL_DESIGN_GEOMETRIC_PRESENTATION_REPRESENTATION('',(#466),
#841);
#841=(
GEOMETRIC_REPRESENTATION_CONTEXT(3)
GLOBAL_UNCERTAINTY_ASSIGNED_CONTEXT((#842))
GLOBAL_UNIT_ASSIGNED_CONTEXT((#845,#844,#843))
REPRESENTATION_CONTEXT('m3-5mm','TOP_LEVEL_ASSEMBLY_PART')
);
#842=UNCERTAINTY_MEASURE_WITH_UNIT(LENGTH_MEASURE(1.E-6),#845,
'DISTANCE_ACCURACY_VALUE','Maximum Tolerance applied to model');
#843=(
NAMED_UNIT(*)
SI_UNIT($,.STERADIAN.)
SOLID_ANGLE_UNIT()
);
#844=(
NAMED_UNIT(*)
PLANE_ANGLE_UNIT()
SI_UNIT($,.RADIAN.)
);
#845=(
LENGTH_UNIT()
NAMED_UNIT(*)
SI_UNIT($,.METRE.)
);
#846=PRODUCT_DEFINITION_SHAPE('','',#847);
#847=PRODUCT_DEFINITION('','',#849,#848);
#848=PRODUCT_DEFINITION_CONTEXT('',#855,'design');
#849=PRODUCT_DEFINITION_FORMATION_WITH_SPECIFIED_SOURCE('','',#851,
 .NOT_KNOWN.);
#850=PRODUCT_RELATED_PRODUCT_CATEGORY('','',(#851));
#851=PRODUCT('m3-5mm','m3-5mm','m3-5mm',(#853));
#852=PRODUCT_CATEGORY('','');
#853=PRODUCT_CONTEXT('',#855,'mechanical');
#854=APPLICATION_PROTOCOL_DEFINITION('international standard',
'ap242_managed_model_based_3d_engineering',2020,#855);
#855=APPLICATION_CONTEXT('managed model based 3d engineering');
ENDSEC;
END-ISO-10303-21;
